<?xml version="1.0" encoding="utf-8"?>
<!-- Generator: Adobe Illustrator 24.0.3, SVG Export Plug-In . SVG Version: 6.00 Build 0)  -->
<svg version="1.1" id="Layer_1" xmlns="http://www.w3.org/2000/svg" xmlns:xlink="http://www.w3.org/1999/xlink" x="0px" y="0px"
	 viewBox="0 0 282 138" style="enable-background:new 0 0 282 138;" xml:space="preserve">
<style type="text/css">
	.st0{fill:#2667F8;}
	.st1{fill-rule:evenodd;clip-rule:evenodd;fill:#2B5468;}
	.st2{fill-rule:evenodd;clip-rule:evenodd;fill:#336278;}
	.st3{fill-rule:evenodd;clip-rule:evenodd;fill:#FFFFFF;}
	.st4{fill-rule:evenodd;clip-rule:evenodd;fill:#F3756C;}
	.st5{fill-rule:evenodd;clip-rule:evenodd;fill:#FFCC0D;}
</style>
<title>illo-sm-xl-admin</title>
<rect class="st0" width="282" height="138"/>
<g>
	<path class="st1" d="M199.4,107.9H81.9c-0.5,0-0.9-0.4-0.9-0.9c0,0,0,0,0,0V42.7h119.4V107C200.4,107.5,199.9,107.9,199.4,107.9
		L199.4,107.9"/>
</g>
<g>
	<path class="st2" d="M200.4,42.9H81V31.8c0-0.5,0.4-0.9,0.9-0.9c0,0,0,0,0,0h117.5c0.5,0,0.9,0.4,0.9,0.9c0,0,0,0,0,0V42.9z"/>
</g>
<path class="st3" d="M88.5,37.1c0,0.7-0.5,1.2-1.2,1.2c-0.7,0-1.2-0.5-1.2-1.2s0.5-1.2,1.2-1.2c0,0,0,0,0,0
	C87.9,35.8,88.5,36.4,88.5,37.1C88.5,37.1,88.5,37.1,88.5,37.1"/>
<path class="st3" d="M94.7,37.1c0,0.7-0.5,1.2-1.2,1.2c-0.7,0-1.2-0.5-1.2-1.2s0.5-1.2,1.2-1.2c0,0,0,0,0,0
	C94.1,35.8,94.7,36.4,94.7,37.1C94.7,37.1,94.7,37.1,94.7,37.1"/>
<path class="st3" d="M100.9,37.1c0,0.7-0.5,1.2-1.2,1.2c-0.7,0-1.2-0.5-1.2-1.2s0.5-1.2,1.2-1.2c0,0,0,0,0,0
	C100.3,35.8,100.9,36.4,100.9,37.1"/>
<path class="st4" d="M124.8,78.8c-4.3,0-7.8-3.5-7.8-7.8c0-4.3,3.5-7.8,7.8-7.8c4.3,0,7.8,3.5,7.8,7.8
	C132.6,75.3,129.1,78.8,124.8,78.8z M144.4,65.2c0-0.3-0.3-0.5-0.6-0.5l-3.6,0.4c-0.2,0-0.4-0.1-0.4-0.3c-0.4-0.9-0.9-1.9-1.4-2.7
	c-0.1-0.2-0.1-0.5,0-0.7l2.1-2.5c0.2-0.2,0.2-0.6-0.1-0.8c0,0,0,0,0,0l-5.8-4.8c-0.2-0.2-0.6-0.2-0.8,0.1c0,0,0,0,0,0l-2.1,2.5
	c-0.2,0.2-0.4,0.2-0.6,0.1c-0.9-0.4-1.9-0.7-2.9-0.9c-0.2-0.1-0.4-0.3-0.4-0.5l-0.3-3.3c0-0.3-0.3-0.5-0.6-0.5c0,0,0,0,0,0l-7.6,0.7
	c-0.3,0-0.5,0.3-0.5,0.6l0.3,3.3c0,0.2-0.1,0.5-0.3,0.6c-0.9,0.4-1.9,0.9-2.7,1.4c-0.2,0.1-0.5,0.1-0.7,0l-2.5-2.1
	c-0.2-0.2-0.6-0.2-0.8,0.1l-4.8,5.8c-0.2,0.2-0.2,0.6,0.1,0.8c0,0,0,0,0,0l2.5,2.1c0.2,0.2,0.3,0.4,0.2,0.7
	c-0.4,0.9-0.7,1.9-0.9,2.9c0,0.1-0.1,0.2-0.2,0.3l-3.9,0.4c-0.3,0-0.5,0.3-0.5,0.6l0.8,7.6c0,0.3,0.3,0.5,0.6,0.5c0,0,0,0,0,0
	l3.5-0.4c0.2,0,0.4,0.1,0.5,0.3c0.4,1,0.9,1.9,1.4,2.7c0.1,0.2,0.1,0.5,0,0.7L109,83c-0.2,0.2-0.2,0.6,0.1,0.8l5.8,4.8
	c0.2,0.2,0.6,0.2,0.8-0.1c0,0,0,0,0,0l2.1-2.6c0.2-0.2,0.4-0.3,0.7-0.2c0.9,0.4,1.9,0.7,2.9,0.9c0.2,0,0.4,0.3,0.4,0.5l0.3,3.3
	c0,0.3,0.3,0.5,0.6,0.5l7.5-0.7c0.3,0,0.5-0.3,0.5-0.6c0,0,0,0,0,0l-0.3-3.3c0-0.2,0.1-0.5,0.4-0.6c1-0.4,1.9-0.9,2.7-1.4
	c0.2-0.1,0.5-0.1,0.7,0l2.6,2.1c0.2,0.2,0.6,0.2,0.8-0.1l4.9-5.8c0.2-0.2,0.2-0.6-0.1-0.8c0,0,0,0,0,0l-2.5-2.1
	c-0.2-0.2-0.3-0.4-0.2-0.6c0.4-0.9,0.7-1.9,0.9-2.9c0-0.1,0.1-0.3,0.3-0.3l3.9-0.4c0.3,0,0.5-0.3,0.5-0.6L144.4,65.2z"/>
<path class="st5" d="M159.7,91.2c-3.3,0-5.9-2.7-5.9-6c0-3.3,2.7-5.9,6-5.9c3.3,0,5.9,2.7,5.9,5.9C165.7,88.5,163.1,91.2,159.7,91.2
	C159.8,91.2,159.7,91.2,159.7,91.2z M174.6,80.9c0-0.2-0.2-0.4-0.5-0.4c0,0,0,0,0,0l-2.7,0.3c-0.1,0-0.3-0.1-0.3-0.2
	c-0.3-0.7-0.7-1.4-1.1-2.1c-0.1-0.2-0.1-0.4,0-0.5l1.6-1.9c0.2-0.2,0.2-0.4,0-0.6c0,0,0,0,0,0l-4.4-3.7c-0.2-0.2-0.5-0.1-0.6,0.1
	c0,0,0,0,0,0l-1.6,1.9c-0.1,0.1-0.3,0.2-0.5,0.1c-0.7-0.3-1.5-0.5-2.2-0.7c-0.2,0-0.3-0.2-0.3-0.4l-0.2-2.5c0-0.2-0.2-0.4-0.5-0.4
	l-5.8,0.5c-0.2,0-0.4,0.2-0.4,0.5l0.2,2.5c0,0.2-0.1,0.4-0.3,0.4c-0.7,0.3-1.4,0.7-2.1,1.1c-0.2,0.1-0.4,0.1-0.5,0l-1.9-1.6
	c-0.2-0.2-0.5-0.1-0.6,0.1c0,0,0,0,0,0l-3.7,4.4c-0.2,0.2-0.1,0.5,0.1,0.6c0,0,0,0,0,0l1.9,1.6c0.1,0.1,0.2,0.3,0.1,0.5
	c-0.3,0.7-0.5,1.5-0.7,2.2c0,0.1-0.1,0.2-0.1,0.2l-3,0.3c-0.2,0-0.4,0.2-0.4,0.5c0,0,0,0,0,0l0.6,5.8c0,0.2,0.2,0.4,0.4,0.4
	c0,0,0,0,0,0l2.6-0.3c0.2,0,0.3,0.1,0.4,0.3c0.3,0.7,0.7,1.4,1.1,2.1c0.1,0.1,0.1,0.4,0,0.5l-1.6,1.9c-0.2,0.2-0.1,0.5,0.1,0.6
	c0,0,0,0,0,0l4.4,3.7c0.2,0.1,0.4,0.1,0.6-0.1l1.6-1.9c0.1-0.1,0.3-0.2,0.5-0.1c0.7,0.3,1.5,0.5,2.2,0.7c0.2,0,0.3,0.2,0.3,0.4
	l0.2,2.5c0,0.2,0.2,0.4,0.5,0.4c0,0,0,0,0,0l5.8-0.6c0.2,0,0.4-0.2,0.4-0.5l-0.2-2.5c0-0.2,0.1-0.4,0.3-0.4c0.7-0.3,1.4-0.7,2.1-1.1
	c0.1-0.1,0.4-0.1,0.5,0l1.9,1.6c0.2,0.2,0.4,0.2,0.6,0l3.7-4.4c0.2-0.2,0.1-0.5,0-0.6c0,0,0,0,0,0l-1.9-1.6
	c-0.1-0.1-0.2-0.3-0.1-0.5c0.3-0.7,0.5-1.5,0.7-2.2c0-0.1,0.1-0.2,0.2-0.3l2.9-0.3c0.2,0,0.4-0.2,0.4-0.5L174.6,80.9z"/>
</svg>
