<svg width="1440" height="340" xmlns="http://www.w3.org/2000/svg" xmlns:xlink="http://www.w3.org/1999/xlink"><defs><path id="a" d="M0 0h1452v340H0z"/><linearGradient x1="100%" y1="173.238%" x2="4.828%" y2="173.238%" id="d"><stop stop-color="#149FF1" offset="0%"/><stop stop-color="#29B1FE" offset="100%"/></linearGradient><path id="c" d="M0 0h1920v340H0z"/><linearGradient x1="57.054%" y1="35.128%" x2="16.82%" y2="99.188%" id="e"><stop stop-color="#FFF" stop-opacity="0" offset="0%"/><stop offset="100%"/></linearGradient></defs><g transform="translate(-9)" fill="none" fill-rule="evenodd"><mask id="b" fill="#fff"><use xlink:href="#a"/></mask><use fill="#FFF" xlink:href="#a"/><g mask="url(#b)"><g transform="translate(-231)"><mask id="f" fill="#fff"><use xlink:href="#c"/></mask><use fill="url(#d)" xlink:href="#c"/><path d="M510.484-310.27l153.207-78.726 1019.445-130.241s385.422 593.294 0 791.06c-978.648 216.533-1537.76-5.153-1537.76-5.153l228.923-491.797 136.185-85.142z" fill="url(#e)" style="mix-blend-mode:soft-light" mask="url(#f)" transform="scale(-1 1) rotate(55 0 -1997.047)"/><path d="M430.674 182.226L583.88 103.5 1603.326-26.74s385.422 593.294 0 791.06c-978.648 216.533-1537.76-5.153-1537.76-5.153L294.489 267.37l136.185-85.143z" fill="url(#e)" style="mix-blend-mode:soft-light" mask="url(#f)" transform="scale(1 -1) rotate(-35 -400.075 0)"/></g></g></g></svg>