<?xml version="1.0" encoding="utf-8"?>
<!-- Generator: Adobe Illustrator 24.0.3, SVG Export Plug-In . SVG Version: 6.00 Build 0)  -->
<svg version="1.1" id="Layer_1" xmlns="http://www.w3.org/2000/svg" xmlns:xlink="http://www.w3.org/1999/xlink" x="0px" y="0px"
	 viewBox="0 0 282 138" style="enable-background:new 0 0 282 138;" xml:space="preserve">
<style type="text/css">
	.st0{fill:#353535;}
	.st1{fill:#FFFFFF;}
</style>
<rect class="st0" width="282" height="138"/>
<title>illo-sm-xl-design</title>
<g>
	<g>
		<g>
			<path class="st1" d="M188.2,75.2h-6.4V47.9h6.4V75.2z M182.5,74.5h5v-26h-5V74.5z"/>
			<path class="st1" d="M188.3,75.3h-6.7V47.7h6.7V75.3z M181.9,75.1h6.1V48h-6.1V75.1z M187.6,74.7h-5.3V48.4h5.3V74.7z
				 M182.6,74.4h4.8V48.7h-4.8V74.4z"/>
		</g>
	</g>
	<g>
		<g>
			<path class="st1" d="M142.6,98.9c-0.7,0-1.3-0.2-2-0.5c-1.3-0.7-2.6-1.3-4-1.9c-0.5-0.2-1-0.4-1.4-0.7c-0.4-0.2-0.7-0.4-0.7-1.1
				c0.2-2.5,0.2-4.6-0.4-6.7c-0.2-0.6-0.4-1.1-0.8-1.6c-0.6-0.9-1.4-1.2-2.5-1l-1.1,0.2v-0.4c0-0.2,0-0.4,0-0.6c0-0.4,0-0.8,0-1.1
				c-0.1-2.1-1.4-3.3-3.5-3.4c-0.5,0-1,0-1.6,0.1c-0.3,0-0.5,0-0.8,0.1h-0.3V80c-0.4-3.2-2.1-4.8-5.2-4.7c-2,0-3.4,1.2-4.2,3.6
				l-0.2,0.6l-0.9-1c-0.3-0.4-0.6-0.7-0.9-1c-0.4-0.5-0.8-0.9-1.2-1.4c-0.9-1.1-1.8-2.1-2.8-3.2c-0.1-0.1-0.3-0.2-0.5-0.3
				c-1.1-0.3-2.3-0.7-3.4-1l-1.4-0.4c-0.1,0-0.3-0.1-0.4-0.1l-0.5-0.2L109,43l0.9,0.2c0.4,0.1,0.8,0.2,1.2,0.3
				c0.3,0.1,0.5,0.2,0.8,0.2c0.7,0.2,1.5,0.4,2.2,0.7c1.4,0.5,2.8,0.5,4.3,0.5c0.5,0,1,0,1.5,0c1.6,0.1,3.2,0.1,4.9,0.1
				c0.7,0,1.5,0,2.2,0.1h0.7l-0.6,0.8c-0.1,0.1-0.2,0.2-0.3,0.3c-0.6,0.6-1.1,1.2-1.7,1.8c-1.5,1.6-3,3.3-4.6,4.9
				c-0.6,0.6-0.7,1.4-0.6,2c0.1,2,1.4,3.2,3.5,3.2c4.1,0.1,7.8-1.2,11-3.9c0.4-0.3,0.7-0.7,1.1-1c0.3-0.3,0.5-0.5,0.8-0.8
				c0.2-0.2,0.5-0.3,0.8-0.3c2.4,0,4.8,0,7.1,0c0.3,0,0.7,0.1,0.9,0.3c3.3,2.8,6.7,5.5,10,8.3l4.1,3.4c3.9,3.2,7.7,6.4,11.6,9.7
				c1.2,1,2.1,2.2,2.6,3.7c0.4,1.2,0.3,2.3-0.5,3.2c-1.7,2.1-3.7,3.1-6,3.2c-0.7,0-1.3-0.2-1.9-0.7c-3.6-3.4-6.7-6.4-9.7-9.2
				c-0.4-0.4-0.4-0.8-0.3-1.1v-0.1c0.2-3.3-0.4-6.2-1.8-8.7c-1.7-2.9-4.3-5-7.8-6.1c-5.1-1.6-9.5-0.6-13.3,2.7
				c-4,3.6-5.5,8.2-4.5,13.8c1.1,5.9,5.5,9.9,11.8,10.7c2.5,0.3,4.6,0.1,6.7-0.7c0.4-0.2,0.8-0.4,1.1-0.6c0.5-0.3,0.9-0.1,1.2,0.1
				c2.2,1.7,4.5,3.5,6.8,5.3c0.3,0.2,0.6,0.4,0.9,0.6c0.2,0.1,0.3,0.2,0.5,0.3l0.2,0.1l-0.1,0.2c-0.7,3-3.5,4.9-6.5,4.5
				c-1.1-0.1-2.1-0.7-2.9-1.2c-0.3-0.2-0.5-0.3-0.8-0.5c-1.4-0.7-2.9-1.5-4.2-2.3c-0.6-0.3-1.2-0.7-1.9-1c-0.3-0.1-0.3-0.2-0.6,0.3
				c0,0,0,0,0,0.1c0,0,0.1,0,0.1,0.1c0.1,0,0.1,0.1,0.2,0.1c2,1.2,4,2.4,6.1,3.6c0.3,0.2,0.6,0.3,0.9,0.5c0.1,0.1,0.3,0.1,0.4,0.2
				l0.3,0.1l-0.1,0.3c-0.6,1.2-1.9,2.7-3.6,3.3C143.5,98.8,143.1,98.9,142.6,98.9z M131.4,84.6c1.1,0,1.9,0.5,2.6,1.4
				c0.3,0.5,0.6,1.1,0.8,1.8c0.7,2.2,0.7,4.4,0.5,7c0,0.3,0,0.3,0.3,0.4c0.5,0.2,0.9,0.4,1.4,0.7c1.3,0.6,2.7,1.2,4,2
				c0.9,0.5,1.8,0.6,2.8,0.2c1.4-0.5,2.5-1.6,3-2.6c0,0-0.1,0-0.1-0.1c-0.3-0.1-0.6-0.3-0.9-0.5c-2-1.2-4.1-2.4-6.1-3.6
				c0,0-0.1,0-0.1-0.1c-0.2-0.1-0.4-0.2-0.5-0.5c-0.1-0.2,0-0.4,0.1-0.6c0.3-0.5,0.7-1,1.5-0.6c0.6,0.3,1.2,0.7,1.9,1
				c1.4,0.8,2.8,1.6,4.2,2.3c0.3,0.2,0.6,0.3,0.8,0.5c0.9,0.5,1.7,1,2.7,1.1c2.7,0.4,5-1.2,5.7-3.7c-0.1,0-0.2-0.1-0.2-0.1
				c-0.3-0.2-0.7-0.4-1-0.6c-2.3-1.8-4.6-3.5-6.8-5.3c-0.2-0.2-0.3-0.2-0.4-0.1c-0.4,0.2-0.8,0.4-1.3,0.6c-2.1,0.8-4.4,1.1-7,0.7
				c-6.6-0.9-11.3-5.1-12.4-11.3c-1.1-5.8,0.5-10.6,4.7-14.4c3.9-3.5,8.6-4.5,13.9-2.9c3.7,1.1,6.5,3.3,8.2,6.4
				c1.5,2.6,2.1,5.6,1.9,9c0,0.1,0,0.1,0,0.2c0,0.3,0,0.4,0.1,0.5c2.9,2.8,6.1,5.8,9.7,9.2c0.4,0.4,0.9,0.6,1.4,0.6
				c2.1,0,3.9-1,5.5-2.9c0.6-0.8,0.8-1.6,0.4-2.6c-0.5-1.4-1.3-2.5-2.4-3.4c-3.9-3.2-7.7-6.4-11.6-9.7l-4.1-3.4
				c-3.3-2.8-6.6-5.6-10-8.3c-0.1-0.1-0.3-0.2-0.5-0.2c-2.3,0-4.7,0-7.1,0c-0.1,0-0.3,0.1-0.4,0.2c-0.3,0.2-0.5,0.5-0.8,0.8
				c-0.4,0.4-0.7,0.7-1.1,1.1c-3.3,2.8-7.2,4.1-11.4,4.1c-2.5,0-4-1.5-4.2-3.9c0-0.8,0-1.7,0.8-2.6c1.5-1.6,3.1-3.3,4.6-4.9
				c0.5-0.6,1.1-1.2,1.6-1.8c-0.5,0-1,0-1.5,0c-1.7,0-3.3-0.1-4.9-0.1c-0.5,0-1,0-1.4,0c-1.5,0-3,0-4.5-0.6
				c-0.7-0.3-1.4-0.5-2.1-0.7c-0.3-0.1-0.5-0.2-0.8-0.2c-0.4-0.1-0.8-0.2-1.2-0.3l-0.2-0.1l-6.7,26.6c0.1,0,0.2,0.1,0.3,0.1l1.4,0.4
				c1.1,0.3,2.3,0.7,3.4,1c0.3,0.1,0.6,0.3,0.8,0.5c0.9,1,1.8,2.1,2.8,3.2c0.4,0.5,0.8,0.9,1.2,1.4c0.3,0.3,0.6,0.7,0.9,1l0.1,0.1
				c0.9-2.3,2.5-3.5,4.6-3.6c3.3-0.1,5.3,1.7,5.8,5c0.2,0,0.3,0,0.5,0c0.6,0,1.1-0.1,1.6-0.1c2.4,0.1,4,1.6,4.1,4c0,0.4,0,0.8,0,1.2
				c0,0.1,0,0.1,0,0.2l0.4-0.1C131,84.6,131.2,84.6,131.4,84.6z"/>
			<path class="st1" d="M142.6,99c-0.7,0-1.4-0.2-2-0.5c-1.3-0.7-2.6-1.3-4-1.9c-0.5-0.2-1-0.4-1.4-0.7c-0.4-0.2-0.8-0.5-0.7-1.3
				c0.2-2.5,0.2-4.6-0.4-6.7c-0.2-0.6-0.4-1.1-0.7-1.5c-0.6-0.8-1.4-1.1-2.4-1l-1.3,0.2V85c0-0.2,0-0.4,0-0.6c0-0.4,0-0.8,0-1.1
				c-0.1-2-1.4-3.2-3.3-3.3c-0.5,0-1,0-1.5,0.1h-0.2c-0.2,0-0.4,0-0.7,0h-0.4l-0.1-0.4c-0.4-3.1-2-4.6-4.9-4.6c-0.1,0-0.1,0-0.2,0
				c-2,0-3.3,1.2-4.1,3.5l-0.3,0.8l-1-1.1c-0.3-0.4-0.6-0.7-0.9-1c-0.4-0.5-0.8-0.9-1.2-1.4l-0.1-0.1c-0.9-1-1.8-2.1-2.7-3.1
				c-0.1-0.1-0.3-0.2-0.5-0.3c-1.1-0.3-2.3-0.7-3.4-1l-1.4-0.4c-0.1,0-0.3-0.1-0.4-0.1l-0.6-0.2v-0.1l7.1-28l1,0.3
				c0.4,0.1,0.8,0.2,1.2,0.3c0.3,0.1,0.5,0.2,0.8,0.2c0.7,0.2,1.5,0.4,2.2,0.7c1.4,0.5,2.8,0.5,4.2,0.5l0,0c0.5,0,0.9,0,1.4,0
				c1.6,0.1,3.3,0.1,4.9,0.1c0.7,0,1.5,0,2.2,0.1h1l-0.8,1c-0.1,0.1-0.2,0.2-0.3,0.3c-0.6,0.6-1.1,1.2-1.7,1.8l-0.1,0.1
				c-1.5,1.6-3,3.2-4.5,4.8c-0.6,0.6-0.6,1.3-0.6,1.9c0.1,2,1.3,3.1,3.4,3.1c0.1,0,0.2,0,0.3,0c3.9,0,7.5-1.3,10.5-3.9
				c0.4-0.3,0.7-0.7,1.1-1c0.3-0.3,0.5-0.5,0.8-0.8c0.2-0.2,0.6-0.4,0.9-0.4c2.4,0,4.8,0,7.1,0c0.3,0,0.7,0.1,1,0.4
				c3.3,2.8,6.7,5.5,10,8.3l4.1,3.4c3.9,3.2,7.7,6.4,11.6,9.7c1.2,1,2.1,2.3,2.7,3.8c0.5,1.2,0.3,2.4-0.6,3.4
				c-1.7,2.1-3.7,3.2-6.1,3.2c-0.7,0-1.4-0.3-2-0.8c-3.5-3.4-6.7-6.4-9.7-9.2c-0.4-0.4-0.4-0.9-0.4-1.2v-0.1
				c0.2-3.3-0.4-6.1-1.8-8.6c-1.6-2.9-4.2-4.9-7.7-6c-5-1.5-9.4-0.6-13.1,2.7c-4,3.6-5.5,8.2-4.4,13.6c1.1,5.8,5.5,9.8,11.7,10.6
				c2.4,0.3,4.6,0.1,6.6-0.7c0.4-0.2,0.8-0.3,1.1-0.6c0.6-0.4,1-0.1,1.4,0.1c2.2,1.7,4.5,3.5,6.8,5.3c0.3,0.2,0.6,0.4,0.9,0.6
				c0.2,0.1,0.3,0.2,0.5,0.3l0.3,0.2l-0.1,0.3c-0.7,3-3.6,5-6.7,4.6c-1.2-0.2-2.1-0.7-3-1.2l0,0c-0.3-0.1-0.5-0.3-0.8-0.4
				c-1.5-0.8-2.9-1.6-4.2-2.3c-0.6-0.3-1.2-0.7-1.9-1c-0.1,0-0.1-0.1-0.1-0.1s-0.1,0.2-0.2,0.3c0.1,0,0.1,0.1,0.2,0.1
				c2,1.2,4,2.4,6.1,3.6c0.3,0.2,0.6,0.3,0.8,0.5c0.1,0.1,0.3,0.1,0.4,0.2l0.4,0.2l-0.2,0.4c-0.6,1.3-1.9,2.8-3.7,3.3
				C143.6,99,143.1,99,142.6,99z M131.4,85.2c0.9,0,1.6,0.4,2.1,1.1c0.3,0.5,0.6,1,0.8,1.6c0.7,2.1,0.6,4.2,0.4,6.8
				c0,0.6,0.2,0.8,0.6,1c0.5,0.2,1,0.4,1.4,0.7c1.3,0.6,2.7,1.2,4,2c1,0.5,2.1,0.6,3.2,0.3c1.7-0.5,3-2,3.5-3.2l0.1-0.2l-0.2-0.1
				c-0.1-0.1-0.3-0.1-0.4-0.2c-0.3-0.1-0.6-0.3-0.9-0.5c-2-1.2-4.1-2.4-6.1-3.6c0,0-0.1-0.1-0.2-0.1c-0.1,0-0.1,0-0.1-0.1l-0.1-0.1
				v-0.1c0,0,0,0,0-0.1c0.3-0.5,0.4-0.6,0.7-0.4c0.6,0.3,1.2,0.7,1.9,1c1.3,0.7,2.8,1.6,4.2,2.3c0.3,0.1,0.5,0.3,0.8,0.4l0,0
				c0.9,0.5,1.8,1,2.9,1.2c3,0.4,5.7-1.5,6.4-4.4v-0.1l-0.1-0.1c-0.2-0.1-0.3-0.2-0.5-0.3c-0.3-0.2-0.7-0.4-0.9-0.6
				c-2.3-1.8-4.6-3.6-6.8-5.3c-0.3-0.2-0.6-0.4-1.1-0.1c-0.3,0.2-0.7,0.4-1.2,0.6c-2,0.8-4.3,1-6.7,0.7c-6.4-0.8-10.8-4.9-12-10.8
				c-1-5.6,0.5-10.2,4.5-13.9c3.8-3.4,8.3-4.3,13.4-2.8c3.6,1.1,6.2,3.2,7.9,6.1c1.4,2.5,2,5.4,1.8,8.7c0,0,0,0.1,0,0.2
				c0,0.3-0.1,0.6,0.3,1c2.9,2.8,6.1,5.8,9.7,9.2c0.5,0.5,1.1,0.7,1.8,0.7c2.3,0,4.3-1.1,5.9-3.1c0.8-0.9,0.9-2,0.5-3.1
				c-0.6-1.5-1.4-2.7-2.6-3.7c-3.9-3.2-7.7-6.4-11.6-9.7l-4.1-3.4c-3.3-2.8-6.6-5.6-10-8.3c-0.2-0.2-0.5-0.3-0.8-0.3
				c-2.3,0-4.7,0-7.1,0c-0.3,0-0.5,0.1-0.7,0.3c-0.3,0.2-0.5,0.5-0.8,0.8c-0.4,0.4-0.7,0.7-1.1,1.1c-3.1,2.6-6.7,3.9-10.7,3.9
				c-0.1,0-0.2,0-0.3,0c-2.2,0-3.5-1.2-3.6-3.3c0-0.7,0-1.5,0.7-2.1c1.5-1.6,3-3.2,4.5-4.8l0.1-0.1c0.6-0.6,1.1-1.2,1.7-1.8
				c0.1-0.1,0.2-0.2,0.3-0.3l0.5-0.5h-0.4c-0.8,0-1.5,0-2.2-0.1c-1.6,0-3.2-0.1-4.9-0.1c-0.5,0-0.9,0-1.4,0l0,0
				c-1.5,0-2.9,0-4.3-0.5c-0.7-0.3-1.5-0.5-2.2-0.7c-0.3-0.1-0.5-0.2-0.8-0.2c-0.4-0.1-0.8-0.2-1.2-0.3l-0.8-0.2l-7,27.6l0.4,0.1
				c0.1,0.1,0.3,0.1,0.4,0.1l1.4,0.4c1.1,0.3,2.3,0.7,3.4,1c0.2,0.1,0.4,0.2,0.6,0.3c0.9,1,1.8,2.1,2.7,3.1l0.1,0.1
				c0.4,0.5,0.8,0.9,1.2,1.4c0.3,0.3,0.6,0.7,0.9,1l0.7,0.8l0.1-0.3c0.8-2.5,2.2-3.7,4.3-3.7c3.1-0.1,4.9,1.6,5.3,4.8v0.2h0.2
				c0.2,0,0.5,0,0.7,0h0.2c0.5,0,1-0.1,1.5-0.1c2.1,0.1,3.5,1.4,3.6,3.5c0,0.4,0,0.7,0,1.1c0,0.2,0,0.4,0,0.6v0.2l1-0.2
				C131.1,85.2,131.2,85.2,131.4,85.2z M142.6,98.4c-0.6,0-1.2-0.2-1.7-0.5c-1.3-0.7-2.7-1.3-4-2c-0.5-0.2-1-0.4-1.4-0.7
				c-0.3-0.1-0.4-0.3-0.4-0.6c0.2-2.6,0.2-4.8-0.5-6.9c-0.2-0.6-0.5-1.2-0.8-1.7c-0.7-1-1.7-1.5-3.1-1.3l-0.5,0.1v-0.3
				c0-0.4,0-0.8,0-1.2c-0.1-2.3-1.7-3.8-4-3.9c-0.5,0-1.1,0-1.6,0.1c-0.2,0-0.3,0-0.5,0H124v-0.1c-0.5-3.3-2.5-4.9-5.7-4.9
				c-2.1,0-3.6,1.2-4.5,3.5l-0.1,0.2l-0.3-0.4c-0.3-0.3-0.6-0.6-0.8-0.9l-1.2-1.4c-0.9-1-1.8-2.1-2.7-3.1c-0.2-0.2-0.5-0.4-0.8-0.5
				c-1.1-0.3-2.3-0.7-3.4-1l-1.4-0.4c-0.1,0-0.2-0.1-0.3-0.1h-0.1v-0.1l6.8-26.7l0.3,0.1c0.4,0.1,0.8,0.2,1.2,0.3
				c0.3,0.1,0.5,0.2,0.8,0.2c0.7,0.2,1.5,0.4,2.1,0.7c1.5,0.5,3,0.5,4.5,0.5c0.4,0,0.9,0,1.4,0c1.6,0.1,3.2,0.1,4.9,0.1h1.8
				l-0.2,0.2c-0.5,0.6-1.1,1.2-1.6,1.8c-1.5,1.6-3,3.3-4.6,4.9c-0.8,0.8-0.8,1.7-0.8,2.5c0.1,2.3,1.6,3.7,4.1,3.7
				c4.2,0.1,8-1.3,11.3-4c0.4-0.3,0.8-0.7,1.1-1.1c0.2-0.3,0.5-0.5,0.8-0.8c0.1-0.1,0.3-0.2,0.5-0.2c2.4,0,4.8,0,7.1,0
				c0.2,0,0.4,0.1,0.5,0.2c3.3,2.8,6.7,5.5,10,8.3l4.1,3.4c3.9,3.2,7.7,6.4,11.6,9.7c1.1,0.9,1.9,2.1,2.5,3.5c0.4,1,0.2,1.9-0.4,2.7
				c-1.6,2-3.4,2.9-5.6,3l0,0c-0.5,0-1-0.2-1.4-0.6c-3.5-3.3-6.6-6.3-9.7-9.2c-0.2-0.2-0.2-0.3-0.2-0.6c0-0.1,0-0.1,0-0.2
				c0.2-3.4-0.4-6.4-1.9-9c-1.7-3.1-4.5-5.2-8.1-6.3c-5.3-1.6-9.9-0.7-13.8,2.8c-4.2,3.7-5.7,8.6-4.7,14.3
				c1.1,6.1,5.7,10.3,12.3,11.2c2.6,0.3,4.8,0.1,6.9-0.7c0.4-0.2,0.9-0.4,1.2-0.6c0.2-0.1,0.3-0.1,0.6,0.1c2.2,1.8,4.5,3.5,6.8,5.3
				c0.3,0.2,0.7,0.4,1,0.6l0.3,0.2v0.1c-0.7,2.6-3.1,4.2-5.9,3.8c-1-0.1-1.9-0.6-2.7-1.1l0,0c-0.3-0.2-0.5-0.3-0.8-0.5
				c-1.4-0.7-2.8-1.5-4.2-2.3h-0.1c-0.6-0.3-1.2-0.7-1.9-1c-0.6-0.3-0.9-0.1-1.3,0.5c-0.1,0.2-0.1,0.4-0.1,0.5
				c0.1,0.2,0.3,0.3,0.4,0.4l0,0h0.1c2,1.2,4,2.4,6.1,3.6c0.3,0.2,0.6,0.3,0.9,0.5l0.3,0.1l-0.1,0.1c-0.5,1-1.6,2.2-3.1,2.7
				C143.4,98.3,143,98.4,142.6,98.4z M131.4,84.5c1.1,0,2,0.5,2.7,1.4c0.4,0.5,0.7,1.1,0.9,1.8c0.7,2.2,0.7,4.4,0.5,7
				c0,0.2,0,0.2,0.2,0.3c0.5,0.2,0.9,0.4,1.4,0.7c1.3,0.6,2.7,1.3,4,2c0.8,0.5,1.7,0.5,2.7,0.2c1.3-0.4,2.4-1.5,2.9-2.4l0,0
				c-0.3-0.1-0.6-0.3-0.9-0.5c-2-1.2-4.1-2.4-6.1-3.6c0,0,0,0-0.1,0l0,0c-0.2-0.1-0.5-0.2-0.5-0.5c-0.1-0.2,0-0.5,0.1-0.7
				c0.3-0.6,0.8-1.1,1.7-0.6c0.6,0.3,1.2,0.7,1.9,1h0.1c1.4,0.8,2.8,1.5,4.1,2.3c0.3,0.1,0.6,0.3,0.8,0.5l0,0c0.9,0.5,1.7,1,2.6,1.1
				c2.6,0.3,4.8-1.1,5.5-3.6l-0.1-0.1c-0.3-0.2-0.7-0.4-1-0.7c-2.3-1.8-4.6-3.5-6.8-5.3c-0.2-0.1-0.2-0.1-0.3,0
				c-0.4,0.2-0.8,0.4-1.3,0.6c-2.2,0.8-4.5,1.1-7.1,0.7c-3.7-0.5-6.9-2-9.1-4.4c0.2,0.5,0.3,1,0.4,1.7c0,0.4,0,0.8,0,1.2l0,0h0.2
				C131,84.5,131.2,84.5,131.4,84.5z M140.6,56.5c1.6,0,3.2,0.3,4.9,0.8c3.7,1.1,6.5,3.3,8.3,6.4c1.5,2.6,2.1,5.6,1.9,9.1
				c0,0.1,0,0.1,0,0.2c0,0.3,0,0.3,0.1,0.4c3,2.8,6.2,5.8,9.7,9.2c0.4,0.4,0.8,0.5,1.3,0.5c2.1,0,3.9-1,5.4-2.9
				c0.6-0.7,0.7-1.6,0.4-2.4c-0.5-1.4-1.3-2.5-2.4-3.4c-3.9-3.2-7.7-6.4-11.6-9.7l-4.1-3.4c-3.3-2.8-6.6-5.6-10-8.3
				c-0.1-0.1-0.3-0.1-0.4-0.1c-2.3,0-4.6,0-7.1,0c-0.1,0-0.2,0.1-0.3,0.1c-0.3,0.2-0.5,0.5-0.8,0.7c-0.4,0.4-0.7,0.7-1.1,1.1
				c-3.4,2.8-7.2,4.2-11.5,4.1c-2.6,0-4.2-1.5-4.3-4c0-0.8,0-1.8,0.8-2.7c1.5-1.6,3.1-3.3,4.6-4.9c0.5-0.5,1-1,1.4-1.5h-1.2
				c-1.7,0-3.3-0.1-4.9-0.1c-0.5,0-1,0-1.4,0c-1.5,0-3,0-4.6-0.6c-0.7-0.2-1.4-0.5-2.1-0.7c-0.3-0.1-0.6-0.2-0.8-0.2
				c-0.4-0.1-0.8-0.2-1.2-0.3h-0.1L103,70.2c0.1,0,0.1,0,0.2,0.1l1.4,0.4c1.1,0.3,2.3,0.7,3.4,1c0.3,0.1,0.7,0.3,0.9,0.6
				c0.9,1,1.8,2.1,2.7,3.1l1.2,1.4c0.3,0.3,0.5,0.6,0.8,0.9l0,0c0.9-2.2,2.5-3.4,4.7-3.4c0.1,0,0.1,0,0.2,0c3.2,0,5.2,1.7,5.8,5
				c0.1,0,0.2,0,0.4,0c0.5,0,1.1-0.1,1.7-0.1c1,0,1.9,0.3,2.5,0.8c-1-1.5-1.7-3.3-2.1-5.3c-1.1-5.8,0.5-10.7,4.7-14.5
				C134.2,57.8,137.3,56.5,140.6,56.5z"/>
		</g>
	</g>
	<g>
		<g>
			<path class="st1" d="M173.4,75.9l-0.2-0.3c-0.8-1.4-2.1-2.5-3.3-3.5c-0.2-0.2-0.4-0.3-0.6-0.5c-2.3-1.9-4.6-3.9-6.9-5.8
				c-1-0.8-2-1.6-3-2.5l-2.6-2.2c-4-3.3-7.9-6.7-11.9-10c-0.1-0.1-0.2-0.1-0.4-0.1c-2.4,0-5.2,0-8,0c-0.1,0-0.4,0.1-0.5,0.2
				c-0.5,0.4-0.9,0.8-1.3,1.2c-0.8,0.7-1.5,1.4-2.4,2.1c-1.6,1.3-3.6,1.7-5.4,2.2l-0.9,0.2c-0.5,0.1-1,0.2-1.6,0.3
				c-1.5,0.3-2.9-0.4-3.6-1.7c-0.5-1-0.4-1.8,0.3-2.6c0.6-0.6,1.2-1.3,1.9-1.9c0.9-0.9,1.9-1.9,2.8-2.9c0.7-0.7,1.3-1.5,2-2.2
				c0.7-0.8,1.4-1.6,2.1-2.4c0.7-0.7,1.4-1.3,2.2-1.9c0.2-0.1,0.4-0.3,0.5-0.4c0.5-0.4,1.2-0.6,2-0.6c1.5,0,3,0,4.5,0
				c1.9,0,4,0,5.9,0c2.2,0,4.4,0.5,6.4,1.5c0.7,0.3,1.3,0.7,1.9,1.1c0.2,0.1,0.4,0.3,0.5,0.4c1,0.7,2.1,1.4,3.1,2.1
				c1.8,1.2,3.5,2.3,5.3,3.5c0.2,0.1,0.5,0.2,0.7,0.2c4.7,0,9.5,0,14.2,0h3.9v24h-2c-0.7,0-1.5,0-2.2,0c-0.4,0-0.6,0.1-0.9,0.3
				c-0.5,0.5-1.1,0.9-1.7,1.4c-0.2,0.2-0.5,0.4-0.7,0.5L173.4,75.9z M140.7,50.4c1.4,0,2.7,0,3.9,0c0.3,0,0.6,0.1,0.8,0.3
				c4,3.3,8,6.6,11.9,10l2.6,2.2c1,0.8,2,1.6,2.9,2.5c2.3,1.9,4.6,3.8,6.9,5.8c0.2,0.2,0.4,0.3,0.6,0.5c1.2,1,2.4,2,3.3,3.4
				c0.1-0.1,0.3-0.2,0.4-0.3c0.6-0.4,1.1-0.9,1.7-1.4c0.4-0.3,0.8-0.5,1.3-0.5c0.7,0,1.5,0,2.2,0h1.3V50.2h-3.3c-4.7,0-9.5,0-14.2,0
				c-0.4,0-0.8-0.1-1.1-0.3c-1.8-1.2-3.5-2.3-5.3-3.5c-1-0.7-2.1-1.4-3.1-2.1c-0.2-0.1-0.4-0.3-0.6-0.4c-0.6-0.4-1.2-0.8-1.8-1.1
				c-1.9-0.9-4-1.4-6.1-1.4c-2,0-4,0-5.9,0c-1.5,0-3,0-4.5,0c-0.6,0-1.1,0.1-1.5,0.5c-0.2,0.1-0.4,0.3-0.5,0.4
				c-0.7,0.6-1.5,1.2-2.1,1.9c-0.7,0.8-1.4,1.6-2.1,2.4c-0.6,0.8-1.3,1.5-2,2.3c-0.9,1-1.9,2-2.8,2.9c-0.6,0.6-1.3,1.3-1.9,1.9
				c-0.5,0.6-0.6,1.1-0.2,1.8c0.5,1,1.6,1.5,2.8,1.3c0.5-0.1,1-0.2,1.5-0.3l0.9-0.2c1.8-0.4,3.7-0.9,5.2-2c0.8-0.6,1.6-1.4,2.3-2.1
				c0.4-0.4,0.9-0.8,1.3-1.2c0.2-0.2,0.6-0.4,1-0.4C138,50.4,139.4,50.4,140.7,50.4z"/>
			<path class="st1" d="M173.4,76.1l-0.3-0.5c-0.8-1.4-2.1-2.5-3.3-3.5c-0.2-0.2-0.4-0.3-0.6-0.5c-2.3-1.9-4.6-3.8-6.8-5.7h-0.1
				c-1-0.8-2-1.6-3-2.5l-3.4-2.8c-3.7-3.1-7.4-6.2-11.1-9.3c-0.1,0-0.2-0.1-0.3-0.1c-2.3,0-5.1,0-8,0c-0.1,0-0.3,0.1-0.4,0.2
				c-0.4,0.4-0.9,0.8-1.3,1.2c-0.8,0.7-1.6,1.4-2.4,2.1c-1.6,1.3-3.6,1.7-5.5,2.2l-0.9,0.2c-0.5,0.1-1,0.2-1.6,0.3
				c-1.6,0.3-3-0.4-3.7-1.7c-0.5-1-0.4-1.9,0.4-2.7c0.6-0.6,1.2-1.2,1.8-1.9l0,0c0.9-0.9,1.9-1.9,2.8-2.9c0.7-0.7,1.3-1.5,1.9-2.2
				l0,0c0.7-0.8,1.3-1.6,2.1-2.4c0.7-0.7,1.4-1.3,2.2-1.9l0.1-0.1c0.2-0.1,0.3-0.2,0.4-0.4c0.5-0.4,1.2-0.7,2-0.7l0,0
				c1.5,0,3,0,4.5,0c1.8,0,3.9,0,6,0c2.2,0,4.4,0.5,6.4,1.5c0.7,0.3,1.3,0.7,1.9,1.1c0.2,0.1,0.4,0.2,0.5,0.4
				c0.9,0.6,1.8,1.2,2.7,1.8l0.4,0.3c1.8,1.2,3.5,2.3,5.3,3.5c0.2,0.1,0.4,0.2,0.7,0.2c4.7,0,9.5,0,14.2,0h4.1v24.2H179
				c-0.7,0-1.5,0-2.2,0c-0.3,0-0.6,0.1-0.8,0.3c-0.6,0.5-1.2,1-1.7,1.4L173.4,76.1z M140.8,51c1.4,0,2.7,0,3.9,0
				c0.2,0,0.3,0.1,0.4,0.2c3.7,3.1,7.4,6.2,11.1,9.3l3.4,2.8c1,0.8,2,1.6,3,2.5l0.1,0.1c2.2,1.9,4.5,3.8,6.8,5.7
				c0.2,0.2,0.4,0.3,0.6,0.5c1.2,1,2.5,2.1,3.4,3.6l0.1,0.2l0.9-0.7c0.5-0.4,1.1-0.9,1.7-1.4c0.3-0.2,0.5-0.3,0.9-0.3c0,0,0,0,0.1,0
				c0.7,0,1.5,0,2.2,0h1.8V49.6h-3.8c-4.7,0-9.5,0-14.2,0c-0.3,0-0.6-0.1-0.8-0.2c-1.8-1.2-3.5-2.3-5.3-3.5l-0.4-0.3
				c-0.9-0.6-1.8-1.2-2.7-1.8c-0.2-0.1-0.4-0.2-0.6-0.4c-0.6-0.4-1.2-0.8-1.9-1.1c-2-0.9-4.1-1.4-6.3-1.4c-2,0-4.1,0-5.9,0
				c-1.5,0-3,0-4.5,0l0,0c-0.7,0-1.4,0.2-1.8,0.6c-0.1,0.1-0.3,0.2-0.5,0.4l-0.1,0.1c-0.7,0.6-1.5,1.2-2.2,1.9
				c-0.7,0.8-1.4,1.6-2.1,2.4H128l0.1,0.1c-0.6,0.7-1.3,1.5-1.9,2.2c-0.9,1-1.9,2-2.8,2.9l0,0c-0.6,0.6-1.2,1.2-1.8,1.9
				c-0.7,0.7-0.8,1.5-0.3,2.4c0.6,1.2,2,1.9,3.4,1.6c0.5-0.1,1-0.2,1.5-0.3l0.9-0.2c1.9-0.4,3.8-0.9,5.4-2.1
				c0.8-0.6,1.6-1.4,2.4-2.1c0.4-0.4,0.9-0.8,1.3-1.2c0.2-0.1,0.4-0.3,0.6-0.3C138,51,139.4,51,140.8,51z M173.6,75.1l-0.1-0.1
				c-0.9-1.3-2.1-2.4-3.2-3.3c-0.2-0.2-0.4-0.3-0.6-0.5c-2.2-1.9-4.5-3.8-6.7-5.7l-0.4-0.4c-0.9-0.7-1.7-1.5-2.6-2.2l-2.9-2.4
				c-3.9-3.2-7.7-6.5-11.6-9.7c-0.2-0.1-0.5-0.2-0.7-0.2c-2.4,0-5.2,0-8,0c-0.3,0-0.7,0.2-0.9,0.4c-0.5,0.4-0.9,0.8-1.3,1.2
				c-0.8,0.7-1.5,1.4-2.3,2.1c-1.5,1.2-3.4,1.6-5.2,2.1l-0.9,0.2c-0.5,0.1-1,0.2-1.5,0.3c-1.3,0.2-2.4-0.3-3-1.4
				c-0.4-0.8-0.3-1.4,0.2-1.9c0.6-0.6,1.2-1.2,1.8-1.9l0,0c0.9-0.9,1.9-1.9,2.8-2.9c0.7-0.8,1.4-1.6,2-2.3c0.7-0.8,1.3-1.6,2.1-2.4
				c0.6-0.7,1.4-1.3,2.1-1.9c0.2-0.1,0.4-0.3,0.5-0.4c0.4-0.4,0.9-0.5,1.6-0.5c1.5,0,3,0,4.5,0h0.1c1.9,0,3.9,0,5.9,0
				c2.1,0,4.2,0.5,6.1,1.4c0.6,0.3,1.2,0.7,1.8,1.1h0.1c0.2,0.1,0.3,0.2,0.5,0.3c1,0.7,2.1,1.4,3.1,2.1c1.8,1.2,3.5,2.3,5.3,3.5
				c0.3,0.2,0.6,0.3,1,0.3c4.6,0,9.1,0,13.7,0h4v22.9h-1.4c-0.7,0-1.5,0-2.2,0c-0.5,0-0.9,0.1-1.3,0.4c-0.5,0.5-1.1,0.9-1.6,1.3
				L173.6,75.1z M140.7,50.3c1.4,0,2.7,0,3.9,0c0.3,0,0.7,0.1,0.9,0.3c3.9,3.2,7.7,6.5,11.6,9.7l2.9,2.4c0.9,0.7,1.7,1.5,2.6,2.2
				l0.4,0.4c2.2,1.8,4.5,3.8,6.7,5.7c0.2,0.2,0.4,0.3,0.6,0.5c1.1,1,2.3,2,3.2,3.3l0.3-0.3c0.5-0.4,1.1-0.9,1.6-1.3
				c0.4-0.3,0.8-0.5,1.4-0.5l0,0c0.7,0,1.5,0,2.2,0h1.2V50.3h-3.7c-4.6,0-9.1,0-13.7,0c-0.4,0-0.9-0.1-1.2-0.3
				c-1.8-1.2-3.5-2.3-5.3-3.5c-1-0.7-2.1-1.4-3.1-2.1c-0.2-0.1-0.3-0.2-0.5-0.3h-0.1c-0.6-0.4-1.1-0.8-1.8-1.1
				c-1.9-0.9-3.9-1.3-6-1.4c-1.9,0-3.9,0-5.8,0h-0.1c-1.5,0-3,0-4.5,0c-0.6,0-1,0.1-1.4,0.5c-0.2,0.1-0.4,0.3-0.5,0.4
				c-0.7,0.6-1.5,1.2-2.1,1.9c-0.7,0.8-1.4,1.6-2,2.3c-0.6,0.7-1.3,1.5-2,2.3c-0.9,1-1.9,2-2.8,2.9l0,0c-0.6,0.6-1.2,1.2-1.8,1.9
				c-0.5,0.5-0.5,1-0.2,1.6c0.5,1,1.5,1.4,2.7,1.2c0.5-0.1,1-0.2,1.5-0.3l0.9-0.2c1.8-0.4,3.7-0.9,5.1-2c0.8-0.6,1.6-1.3,2.3-2
				c0.4-0.4,0.9-0.8,1.4-1.2c0.2-0.2,0.7-0.4,1.1-0.5C138,50.3,139.4,50.3,140.7,50.3z"/>
		</g>
	</g>
	<g>
		<g>
			<path class="st1" d="M100.5,72.7l-6.7-1.6l7.9-32l6.9,1.7L100.5,72.7z M94.7,70.6l5.4,1.3l7.8-30.5l-5.6-1.4L94.7,70.6z"/>
			<path class="st1" d="M100.6,72.8L100.6,72.8l-6.9-1.6v-0.1l7.9-32.1l7.2,1.8v0.1L100.6,72.8z M94,71l6.4,1.5l8.1-31.6l-6.7-1.7
				L94,71z M100.1,72L100.1,72l-5.6-1.3v-0.1l7.6-30.8l5.9,1.5v0.1L100.1,72z M94.8,70.5l5.1,1.2l7.7-30.2l-5.3-1.3L94.8,70.5z"/>
		</g>
	</g>
	<g>
		<g>
			<path class="st1" d="M159.4,90.4c-0.7,0-1.3-0.2-1.9-0.6c-1.9-1.3-3.8-2.6-5.5-3.8c-0.7-0.5-1.4-1-2.1-1.6
				c-0.3-0.3-0.6-0.5-1-0.8l-0.3-0.3L149,83c3.2-2.4,4.9-4.9,5.7-7.9l0.1-0.6l2.1,2c1.3,1.2,2.6,2.5,3.9,3.7
				c0.4,0.4,0.9,0.8,1.4,1.3c0.9,0.8,1.7,1.6,2.6,2.4c0.2,0.2,0.4,0.5,0.3,0.8c-0.3,1.9-1.2,4.4-4,5.3
				C160.4,90.3,159.9,90.4,159.4,90.4z M149.7,83.3c0.2,0.2,0.4,0.3,0.6,0.5c0.7,0.6,1.4,1.1,2.1,1.6c1.8,1.3,3.6,2.5,5.5,3.8
				c0.8,0.5,1.7,0.6,2.9,0.2c2.5-0.8,3.3-3,3.6-4.8c0,0-0.1-0.1-0.1-0.2c-0.8-0.8-1.7-1.6-2.6-2.4c-0.5-0.4-0.9-0.8-1.4-1.3
				c-1.3-1.2-2.6-2.4-3.9-3.7l-1.3-1.2C154.3,78.7,152.6,81,149.7,83.3z"/>
			<path class="st1" d="M159.4,90.5c-0.7,0-1.4-0.2-2-0.6c-1.9-1.3-3.8-2.6-5.5-3.8c-0.7-0.5-1.4-1-2.1-1.6c-0.3-0.3-0.7-0.5-1-0.8
				l-0.5-0.4l0.5-0.4c3.2-2.4,4.9-4.8,5.6-7.8l0.2-0.8l2.3,2.1c1.3,1.2,2.6,2.5,3.9,3.7c0.3,0.3,0.7,0.6,1,0.9l0.4,0.3
				c0.9,0.8,1.7,1.6,2.6,2.4c0.2,0.2,0.4,0.5,0.4,0.9c-0.3,2-1.2,4.5-4.1,5.5C160.4,90.4,159.9,90.5,159.4,90.5z M148.8,83.3
				l0.2,0.2c0.3,0.3,0.7,0.5,1,0.8c0.7,0.6,1.4,1.1,2.1,1.6c1.8,1.3,3.6,2.5,5.5,3.8c0.9,0.6,2,0.7,3.3,0.3c2.8-0.9,3.7-3.3,3.9-5.2
				c0-0.2-0.1-0.5-0.3-0.7c-0.8-0.8-1.7-1.6-2.6-2.4l-0.4-0.3c-0.3-0.3-0.7-0.6-1-0.9c-1.3-1.2-2.6-2.4-3.9-3.7l-1.9-1.8l-0.1,0.3
				c-0.7,3-2.5,5.5-5.7,7.9L148.8,83.3z M159.4,89.8c-0.6,0-1.1-0.2-1.6-0.5c-1.9-1.3-3.7-2.6-5.5-3.8c-0.7-0.5-1.4-1-2-1.6
				c-0.2-0.2-0.4-0.3-0.6-0.5l-0.1-0.1l0.1-0.1c2.9-2.3,4.6-4.6,5.4-7.3l0.1-0.2l1.4,1.3c1.3,1.2,2.6,2.5,3.9,3.7
				c0.5,0.4,0.9,0.9,1.4,1.3c0.9,0.8,1.7,1.6,2.6,2.4c0.1,0.1,0.2,0.2,0.2,0.2l0,0l0,0c-0.2,1.8-1.1,4.1-3.6,4.9
				C160.3,89.8,159.8,89.8,159.4,89.8z M149.9,83.3c0.2,0.1,0.3,0.3,0.5,0.4c0.7,0.6,1.4,1.1,2.1,1.6c1.8,1.3,3.6,2.5,5.5,3.8
				c0.7,0.5,1.6,0.6,2.7,0.2c2.4-0.8,3.2-2.9,3.5-4.6l-0.1-0.1c-0.8-0.8-1.7-1.6-2.5-2.4c-0.5-0.4-0.9-0.9-1.4-1.3
				c-1.3-1.2-2.6-2.4-3.9-3.7l-1.1-1C154.4,78.8,152.7,81.1,149.9,83.3z"/>
		</g>
	</g>
	<g>
		<g>
			<path class="st1" d="M117.4,90.5L117.4,90.5c-1.4-0.1-3-0.3-4-1.7c-0.8-1.2-1.1-2.6-0.6-4c0.6-1.7,1.2-3.5,1.9-5.2
				c0.3-0.7,0.5-1.3,0.7-2c0.1-0.2,0.2-0.4,0.3-0.5c0.9-0.7,2.3-1.6,4-1.1c1.4,0.4,2.2,1.5,2.6,3.2c0.2,1,0.2,2.1-0.2,3.1
				c-1,2.5-2,5.1-3,7.5c-0.1,0.3-0.5,0.5-0.7,0.5c-0.2,0.1-0.5,0.1-0.7,0.1C117.6,90.5,117.5,90.5,117.4,90.5L117.4,90.5z
				 M118.7,76.6c-0.8,0-1.6,0.4-2.5,1.1c0,0-0.1,0.1-0.1,0.2c-0.2,0.7-0.5,1.3-0.7,2c-0.6,1.7-1.3,3.4-1.8,5.1
				c-0.4,1.2-0.2,2.4,0.5,3.4c0.9,1.2,2.2,1.4,3.5,1.4c0.1,0,0.2,0,0.3,0c0.2,0,0.4,0,0.5,0s0.3-0.1,0.3-0.1c1-2.4,2-4.9,3-7.5
				c0.3-0.8,0.4-1.8,0.2-2.7c-0.3-1.5-1-2.3-2.1-2.7C119.2,76.6,118.9,76.6,118.7,76.6z"/>
			<path class="st1" d="M117.4,90.6L117.4,90.6c-1.4-0.1-3-0.3-4.1-1.8c-0.9-1.2-1.1-2.7-0.6-4.1c0.5-1.7,1.2-3.5,1.8-5.1
				c0.3-0.7,0.5-1.3,0.8-2c0.1-0.2,0.2-0.4,0.4-0.5c0.9-0.7,2.4-1.6,4.2-1.1c1.4,0.5,2.3,1.5,2.7,3.3c0.2,1.1,0.2,2.2-0.2,3.2
				c-1,2.6-2,5.1-3,7.5c-0.2,0.5-0.8,0.6-0.8,0.6c-0.2,0.1-0.5,0.1-0.7,0.1h-0.1C117.6,90.6,117.5,90.6,117.4,90.6L117.4,90.6z
				 M118.7,76c-1.2,0-2.2,0.6-2.9,1.2c-0.1,0.1-0.2,0.2-0.3,0.4c-0.2,0.7-0.5,1.3-0.7,2c-0.6,1.7-1.3,3.4-1.8,5.2
				c-0.4,1.4-0.2,2.7,0.6,3.9c1,1.4,2.5,1.6,3.9,1.7v0.1v-0.1l0,0c0.1,0,0.2,0,0.2,0h0.1c0.2,0,0.4,0,0.7-0.1c0.2,0,0.5-0.2,0.7-0.5
				c1-2.4,2-4.9,3-7.5c0.4-0.9,0.4-2,0.2-3c-0.4-1.7-1.2-2.7-2.5-3.1C119.3,76.1,119,76,118.7,76z M117.4,89.9
				c-1.3-0.1-2.7-0.2-3.6-1.5c-0.7-1-0.9-2.3-0.5-3.5c0.5-1.7,1.2-3.5,1.8-5.1c0.3-0.7,0.5-1.3,0.7-2c0-0.1,0.1-0.2,0.1-0.2
				c1.3-1,2.4-1.3,3.5-1c1.2,0.4,1.9,1.3,2.2,2.8c0.2,0.9,0.1,1.9-0.2,2.8c-1,2.5-2,5.1-3,7.5c-0.1,0.1-0.2,0.2-0.4,0.2
				C117.8,89.9,117.6,89.9,117.4,89.9C117.6,89.9,117.5,89.9,117.4,89.9z M116.2,77.8C116.2,77.8,116.2,77.8,116.2,77.8
				c-0.3,0.8-0.6,1.4-0.8,2.1c-0.6,1.7-1.3,3.4-1.8,5.1c-0.4,1.1-0.2,2.3,0.5,3.3c0.8,1.2,2.1,1.3,3.4,1.4c0.1,0,0.2,0,0.3,0
				c0.2,0,0.4,0,0.5,0s0.2-0.1,0.2-0.1c1-2.4,2-4.9,2.9-7.4c0.3-0.8,0.4-1.7,0.2-2.6c-0.3-1.4-1-2.3-2-2.6
				C118.4,76.5,117.5,76.8,116.2,77.8L116.2,77.8z"/>
		</g>
	</g>
	<g>
		<g>
			<path class="st1" d="M123.7,93.8L123.7,93.8c-1.8,0-3.6-1.6-3.9-3.2c0-0.3,0.1-0.5,0.2-0.7v-0.1c0.7-1.7,1.4-3.3,2.1-5l0.8-1.8
				l0,0c0-1.7,1.4-2,2.4-2.2h0.2c1.4-0.3,2.5,0.2,3.3,1.4c0.3,0.4,0.6,1,0.4,1.8c-0.3,0.9-0.5,1.8-0.7,2.7c-0.3,1.3-0.7,2.6-1,3.8
				c-0.3,1.1-0.9,2-1.7,2.6C125.1,93.6,124.4,93.8,123.7,93.8z M126.2,81.4c-0.2,0-0.4,0-0.6,0.1h-0.2c-1.1,0.2-1.8,0.4-1.8,1.5
				c0,0.1,0,0.2-0.1,0.3l-0.8,1.8c-0.7,1.7-1.4,3.3-2.1,5v0.1c0,0.1-0.1,0.3-0.1,0.3c0.2,1.3,1.8,2.7,3.1,2.7l0,0
				c0.6,0,1.1-0.2,1.6-0.6c0.7-0.5,1.2-1.3,1.4-2.2c0.4-1.3,0.7-2.6,1-3.8c0.2-0.9,0.5-1.8,0.7-2.7c0.1-0.4,0-0.8-0.3-1.2
				C127.7,81.7,127,81.4,126.2,81.4z M122.9,83L122.9,83L122.9,83z"/>
			<path class="st1" d="M123.7,94L123.7,94c-1.8,0-3.7-1.6-4-3.3c0-0.3,0.1-0.6,0.2-0.8v-0.1c0.7-1.7,1.4-3.3,2.1-5l0.8-1.8
				c0-1.7,1.5-2.1,2.5-2.3h0.2c1.4-0.3,2.6,0.2,3.4,1.4c0.3,0.5,0.6,1.1,0.4,1.9c-0.3,0.9-0.5,1.8-0.7,2.7l0,0
				c-0.3,1.2-0.7,2.5-1,3.8c-0.3,1.1-0.9,2-1.7,2.7C125.1,93.7,124.5,94,123.7,94z M126.2,80.8c-0.2,0-0.5,0-0.7,0.1h-0.2
				c-1,0.2-2.2,0.5-2.3,2l0,0l-0.8,1.9c-0.7,1.7-1.4,3.3-2.1,5v0.1c-0.1,0.2-0.2,0.4-0.1,0.6c0.3,1.6,2,3.1,3.6,3.1h0.1
				c0.7,0,1.3-0.2,1.8-0.7c0.8-0.6,1.3-1.4,1.6-2.5c0.4-1.3,0.7-2.5,1-3.8l0,0c0.2-0.9,0.5-1.8,0.7-2.7c0.2-0.7-0.1-1.3-0.4-1.7
				C128,81.3,127.2,80.8,126.2,80.8z M123.7,93.3L123.7,93.3c-1.5,0-3.1-1.4-3.3-2.8c0-0.1,0-0.2,0.1-0.4V90c0.7-1.7,1.4-3.3,2.1-5
				l0.8-1.8c0-0.1,0.1-0.1,0.1-0.2c0-1.3,0.9-1.5,1.9-1.7h0.2c1.1-0.2,2,0.1,2.7,1.1c0.3,0.5,0.4,0.9,0.3,1.4
				c-0.3,0.9-0.5,1.8-0.7,2.7c-0.3,1.3-0.7,2.6-1,3.8c-0.3,1-0.8,1.8-1.5,2.3C124.8,93.1,124.3,93.3,123.7,93.3z M126.2,81.5
				c-0.2,0-0.4,0-0.6,0.1h-0.2c-1.1,0.2-1.7,0.4-1.7,1.4c0,0.1-0.1,0.3-0.1,0.3l-0.8,1.8c-0.7,1.7-1.4,3.3-2.1,5v0.1
				c0,0.1-0.1,0.2-0.1,0.3c0.2,1.3,1.7,2.5,3,2.5c0.6,0,1.1-0.2,1.5-0.5c0.6-0.5,1.1-1.2,1.4-2.2c0.4-1.3,0.7-2.6,1-3.8
				c0.2-0.9,0.5-1.9,0.7-2.8c0.1-0.4,0-0.7-0.3-1.1C127.6,81.9,127,81.5,126.2,81.5z"/>
		</g>
	</g>
	<g>
		<g>
			<path class="st1" d="M132.3,97.6c-0.2,0-0.3,0-0.5,0c-1.9-0.3-3.3-0.9-4.3-2c-0.3-0.3-0.6-0.8-0.7-1.2c-0.1-0.3-0.1-0.8,0.1-1.2
				c1.4-2.2,2.2-4.3,2.6-6.5v-0.3h0.3c0.1,0,0.3,0,0.4,0c0.3,0,0.6-0.1,0.9-0.1c1.3,0,2.1,0.7,2.3,1.9c0.5,2.8,0.6,5.5,0.1,8.1
				C133.3,97.2,133,97.6,132.3,97.6z M130,87.1c-0.4,2.2-1.2,4.3-2.6,6.5c-0.1,0.1-0.1,0.4-0.1,0.6c0.1,0.3,0.3,0.7,0.6,0.9
				c0.9,1,2.2,1.5,3.9,1.8c0.8,0.1,0.9,0.1,1-0.7c0.5-2.5,0.4-5.1-0.1-7.8c-0.2-0.9-0.7-1.3-1.7-1.3c-0.3,0-0.6,0-0.9,0.1
				C130.2,87.1,130.1,87.1,130,87.1z"/>
			<path class="st1" d="M132.3,97.7c-0.2,0-0.3,0-0.5,0c-1.9-0.3-3.3-0.9-4.4-2c-0.3-0.3-0.6-0.8-0.8-1.2c-0.1-0.4-0.1-0.9,0.2-1.3
				c1.4-2.2,2.2-4.2,2.6-6.4l0.1-0.4h0.4c0.1,0,0.3,0,0.4,0c0.3,0,0.6-0.1,1-0.1c1.4,0,2.2,0.7,2.5,2c0.5,2.8,0.6,5.5,0.1,8.1
				C133.5,97.3,133.1,97.7,132.3,97.7z M129.6,86.6v0.2c-0.3,2.2-1.2,4.3-2.6,6.5c-0.2,0.3-0.2,0.7-0.1,1c0.2,0.4,0.4,0.8,0.7,1.1
				c1,1,2.4,1.7,4.2,2c0.2,0,0.4,0,0.5,0c0.7,0,1-0.3,1.1-1.2c0.5-2.6,0.5-5.3-0.1-8c-0.2-1.1-1-1.8-2.2-1.8c-0.3,0-0.6,0-0.9,0.1
				c-0.1,0-0.3,0-0.4,0L129.6,86.6z M132.3,97.1c-0.1,0-0.3,0-0.5,0c-1.8-0.3-3-0.9-4-1.8c-0.3-0.3-0.5-0.6-0.6-1
				c-0.1-0.2,0-0.5,0.1-0.7c1.4-2.2,2.3-4.2,2.6-6.4v-0.1h0.3c0.3,0,0.6,0,0.8-0.1l0,0c1,0,1.6,0.5,1.8,1.4c0.5,2.7,0.6,5.4,0.1,7.9
				C132.9,96.8,132.7,97.1,132.3,97.1z M130.1,87.2c-0.4,2.2-1.2,4.2-2.6,6.4c-0.1,0.1-0.1,0.3-0.1,0.4c0.1,0.3,0.3,0.7,0.6,0.9
				c0.9,0.9,2.1,1.5,3.9,1.8c0.7,0.1,0.7,0.1,0.9-0.6c0.5-2.5,0.4-5.1-0.1-7.8c-0.2-0.8-0.7-1.2-1.5-1.2l0,0
				C130.8,87.2,130.5,87.2,130.1,87.2L130.1,87.2z"/>
		</g>
	</g>
	<g>
		<g>
			<path class="st1" d="M131.6,73.4l-0.9-1.6l10-6.5v3.8l7.7-5.9l-0.8-1.1h3.2l-0.8,3.5l-0.7-0.9l-10,7.9v-4L131.6,73.4z
				 M131.5,71.9l0.4,0.6l8-5v3.9l9.5-7.5l0.3,0.4l0.4-1.6h-1.3l0.4,0.6l-9.1,6.9v-3.9L131.5,71.9z"/>
			<path class="st1" d="M131.6,73.5l-1.1-1.8l10.2-6.7v3.8l7.4-5.7l-0.9-1.2h3.6l-0.9,3.8l-0.8-1l-10.1,8v-4.1L131.6,73.5z
				 M130.8,71.8l0.8,1.4l7.7-4.8v4l9.9-7.9l0.6,0.8l0.7-3.1h-2.9l0.7,1l-7.9,6.1v-3.8L130.8,71.8z M131.8,72.7l-0.5-0.8l8.9-5.8V70
				l8.8-6.7l-0.5-0.7h1.7l-0.5,2l-0.4-0.5l-9.6,7.6v-3.9L131.8,72.7z M131.6,72l0.3,0.4l8.1-5.1v-0.8L131.6,72z M140,70.5v0.7
				l9.4-7.5l0.2,0.3l0.3-1.2h-1l0.4,0.5L140,70.5z"/>
		</g>
	</g>
	<g>
		<g>
			<path class="st1" d="M147.6,82.2l-0.1-0.6c0-0.1,0-0.2,0-0.2c0-0.1,0-0.2,0-0.3v-3.5c0-2.9,0-5.8,0-8.7c0-0.4,0.1-0.8,0.5-1.1
				c0.3-0.2,0.7-0.5,1-0.8c0.2-0.1,0.3-0.3,0.5-0.4l0.5-0.4v7.6c0,2,0,4,0,6c0,0.6-0.2,1-0.7,1.3c-0.3,0.2-0.6,0.4-0.9,0.6
				c-0.1,0.1-0.3,0.2-0.5,0.3L147.6,82.2z M149.4,67.5c-0.4,0.3-0.7,0.5-1,0.8c-0.2,0.1-0.2,0.2-0.2,0.5c0,2.9,0,5.8,0,8.7V81
				c0.3-0.2,0.6-0.4,0.9-0.6c0.3-0.2,0.4-0.4,0.4-0.7c0-2,0-4,0-6L149.4,67.5z"/>
			<path class="st1" d="M147.5,82.5l-0.1-1c0-0.1,0-0.2,0-0.4v-3.5c0-2.9,0-5.8,0-8.7c0-0.4,0.1-0.8,0.6-1.2c0.3-0.2,0.6-0.5,1-0.8
				c0.2-0.2,0.4-0.3,0.6-0.4l0.8-0.6v7.8c0,2,0,4,0,6c0,0.7-0.2,1.1-0.8,1.4c-0.3,0.2-0.6,0.4-0.9,0.6c-0.1,0.1-0.3,0.2-0.5,0.3
				L147.5,82.5z M150,66.4l-0.3,0.3c-0.2,0.1-0.4,0.3-0.5,0.4c-0.4,0.3-0.7,0.6-1,0.8c-0.4,0.3-0.5,0.6-0.5,1c0,2.9,0,5.8,0,8.7v3.5
				c0,0.1,0,0.2,0,0.3l0.1,0.6l0.3-0.2c0.2-0.1,0.3-0.2,0.5-0.3c0.3-0.2,0.6-0.4,0.9-0.6c0.5-0.3,0.7-0.6,0.7-1.2c0-2,0-4,0-6
				L150,66.4z M148,81.3v-3.7c0-2.9,0-5.8,0-8.7c0-0.3,0.1-0.5,0.3-0.6c0.4-0.2,0.7-0.5,1-0.8l0.2-0.2v6.4c0,2,0,4,0,6
				c0,0.4-0.1,0.7-0.4,0.8c-0.3,0.2-0.6,0.4-0.9,0.6L148,81.3z M149.3,67.8c-0.3,0.2-0.5,0.4-0.8,0.6c-0.1,0.1-0.2,0.2-0.2,0.4
				c0,2.9,0,5.8,0,8.7v3.2c0.2-0.2,0.5-0.3,0.7-0.5c0.2-0.1,0.3-0.3,0.3-0.6c0-2,0-4,0-6V67.8z"/>
		</g>
	</g>
	<g>
		<g>
			<path class="st1" d="M150.7,80l-0.6-0.3v-4.2c0-2.9,0-5.8,0-8.7c0-0.4,0.1-0.8,0.6-1.2c0.2-0.1,0.4-0.3,0.5-0.4s0.3-0.2,0.4-0.3
				c0.1-0.1,0.3-0.1,0.4-0.2c0.1,0,0.1-0.1,0.2-0.1l0.5-0.2v3.7c0,2.9,0,5.9,0,8.9c0,0.4-0.2,0.9-0.5,1.3s-0.7,0.8-1,1.2
				C151.1,79.7,150.9,79.8,150.7,80L150.7,80z M152.1,65.4L152.1,65.4c-0.2,0.1-0.3,0.2-0.4,0.3c-0.2,0.2-0.4,0.3-0.6,0.5
				c-0.2,0.1-0.2,0.3-0.2,0.6c0,2.9,0,5.8,0,8.7v3.3c0.3-0.4,0.7-0.7,0.9-1.1c0.2-0.3,0.3-0.6,0.3-0.9c0-3,0-6,0-8.9V65.4z"/>
			<path class="st1" d="M150.7,80.1l-0.7-0.4v-5.1c0-2.6,0-5.2,0-7.9c0-0.4,0.1-0.9,0.6-1.3c0.2-0.1,0.4-0.3,0.5-0.4
				c0.2-0.1,0.3-0.2,0.4-0.3c0.1-0.1,0.3-0.2,0.4-0.2c0.1,0,0.1-0.1,0.2-0.1l0.7-0.3V68c0,2.9,0,5.9,0,8.9c0,0.4-0.2,1-0.5,1.4
				s-0.7,0.8-1,1.2l-0.1,0.1c-0.1,0.1-0.2,0.3-0.4,0.4L150.7,80.1z M150.3,79.6l0.4,0.2l0.1-0.1c0.1-0.1,0.2-0.3,0.4-0.4l0.1-0.1
				c0.3-0.4,0.7-0.8,1-1.2c0.3-0.4,0.4-0.8,0.4-1.2c0-3,0-6,0-8.9v-3.5l-0.3,0.1c-0.1,0-0.2,0.1-0.2,0.1c-0.1,0.1-0.3,0.1-0.4,0.2
				c-0.1,0.1-0.3,0.2-0.4,0.3c-0.2,0.2-0.4,0.3-0.6,0.4c-0.4,0.3-0.5,0.7-0.5,1c0,2.6,0,5.2,0,7.9V79.6z M150.7,79.2v-3.6
				c0-2.9,0-5.8,0-8.7c0-0.3,0-0.5,0.3-0.7c0.2-0.1,0.4-0.3,0.6-0.5c0.1-0.1,0.3-0.2,0.4-0.3c0,0,0,0,0.1,0l0.2-0.1v2.8
				c0,2.9,0,5.9,0,8.9c0,0.3-0.1,0.7-0.3,1c-0.3,0.4-0.6,0.7-0.9,1.1L150.7,79.2z M152,65.7c-0.1,0.1-0.1,0.1-0.2,0.2
				c-0.2,0.2-0.4,0.3-0.6,0.5c-0.1,0.1-0.2,0.2-0.2,0.5c0,2.9,0,5.8,0,8.7v3c0.3-0.3,0.5-0.5,0.7-0.8c0.2-0.2,0.3-0.6,0.3-0.8
				c0-3,0-6,0-8.9V65.7z"/>
		</g>
	</g>
	<g>
		<g>
			<path class="st1" d="M144.4,83.4v-5.3c0-2.3,0-4.6,0-6.9c0-0.4,0.1-0.8,0.6-1.1c0.3-0.2,0.6-0.5,1-0.8c0.2-0.1,0.3-0.3,0.5-0.4
				l0.6-0.4v4.4c0,2.8,0,5.7,0,8.5c0,0.6-0.1,1.2-1,1.4c-0.2,0.1-0.5,0.1-0.7,0.2c-0.1,0.1-0.3,0.1-0.5,0.2L144.4,83.4z M146.4,69.9
				c-0.4,0.3-0.7,0.6-1,0.8c-0.2,0.1-0.3,0.3-0.3,0.6c0,2.3,0,4.6,0,6.9v4.3c0.3-0.1,0.5-0.2,0.8-0.3c0.4-0.1,0.5-0.2,0.5-0.8
				c0-2.8,0-5.7,0-8.5V69.9z"/>
			<path class="st1" d="M144.3,83.6v-5.5c0-2.3,0-4.6,0-6.9c0-0.4,0.1-0.9,0.6-1.3c0.3-0.2,0.6-0.5,1-0.8c0.2-0.1,0.3-0.3,0.5-0.4
				l0.8-0.6v4.7c0,2.8,0,5.7,0,8.5c0,0.6-0.1,1.3-1.1,1.6c-0.2,0.1-0.4,0.1-0.7,0.2c-0.1,0.1-0.3,0.1-0.5,0.2L144.3,83.6z
				 M146.9,68.7l-0.3,0.3c-0.2,0.1-0.4,0.3-0.5,0.4c-0.4,0.3-0.7,0.5-1,0.8c-0.4,0.3-0.5,0.7-0.5,1c0,2.3,0,4.6,0,6.9v5.1l0.3-0.1
				c0.2-0.1,0.3-0.1,0.5-0.2c0.3-0.1,0.5-0.2,0.7-0.2c0.8-0.2,0.9-0.8,0.9-1.3c0-2.8,0-5.7,0-8.5L146.9,68.7z M145,82.6v-4.5
				c0-2.3,0-4.6,0-6.9c0-0.4,0.1-0.5,0.3-0.7c0.3-0.2,0.6-0.5,1-0.8l0.2-0.2v3.3c0,2.8,0,5.7,0,8.5c0,0.6-0.1,0.8-0.6,0.9
				C145.6,82.3,145.4,82.4,145,82.6L145,82.6z M146.3,70.2c-0.3,0.2-0.5,0.4-0.8,0.6c-0.2,0.1-0.2,0.2-0.2,0.5c0,2.3,0,4.6,0,6.9
				v4.1c0.2-0.1,0.4-0.1,0.6-0.2c0.3-0.1,0.4-0.1,0.4-0.7c0-2.8,0-5.7,0-8.5V70.2z"/>
		</g>
	</g>
	<g>
		<g>
			<path class="st1" d="M138.2,83.6l-0.4-0.1c-0.2,0-0.3-0.1-0.5-0.1c-0.4-0.1-0.8-0.2-1.2-0.4c-0.3-0.1-0.5-0.5-0.5-0.8
				c0-2.8,0-5.9,0-9.2c0-0.3,0.2-0.6,0.4-0.7c0.4-0.2,0.8-0.5,1.2-0.7l1-0.5V83.6z M137.5,72.2c-0.4,0.2-0.8,0.4-1.2,0.7l-0.1,0.1
				c0,3.4,0,6.4,0,9.2l0.1,0.1c0.3,0.1,0.7,0.2,1.1,0.3l0,0L137.5,72.2L137.5,72.2z"/>
			<path class="st1" d="M138.4,83.8l-0.6-0.2c-0.2,0-0.3-0.1-0.5-0.1l0,0c-0.4-0.1-0.8-0.2-1.2-0.4c-0.3-0.1-0.6-0.6-0.6-0.9
				c0-2.8,0-5.9,0-9.2c0-0.3,0.2-0.7,0.5-0.8c0.4-0.2,0.8-0.4,1.2-0.7l1.2-0.7L138.4,83.8L138.4,83.8z M138.1,71.3l-0.8,0.5
				c-0.4,0.2-0.8,0.4-1.2,0.7c-0.2,0.1-0.3,0.4-0.3,0.6c0,3.4,0,6.4,0,9.2c0,0.2,0.2,0.6,0.4,0.6c0.4,0.1,0.7,0.2,1.1,0.4l0,0
				c0.2,0,0.3,0.1,0.5,0.1l0.3,0.1V71.3z M137.7,82.9l-0.2-0.1c-0.4-0.1-0.8-0.2-1.1-0.3l0,0c-0.1,0-0.1-0.2-0.1-0.2
				c0-2.8,0-5.8,0-9.2c0-0.1,0.1-0.2,0.1-0.2c0.4-0.2,0.8-0.5,1.2-0.7l0.2-0.1v0.2L137.7,82.9L137.7,82.9z M136.5,82.2
				c0.3,0.1,0.6,0.2,0.9,0.3V72.4c-0.3,0.2-0.7,0.4-1,0.5l0,0C136.4,76.4,136.4,79.4,136.5,82.2C136.4,82.2,136.5,82.2,136.5,82.2z"
				/>
		</g>
	</g>
	<g>
		<g>
			<path class="st1" d="M141.4,83.8V82c0-1,0-2,0-3c0-0.5,0-1.1,0-1.6c0-1.3,0-2.6,0-3.9c0-0.5,0.2-0.9,0.6-1.1
				c0.1-0.1,0.2-0.2,0.4-0.3c0.1-0.1,0.3-0.2,0.5-0.3c0.2-0.1,0.3-0.2,0.5-0.2c0.1,0,0.2-0.1,0.2-0.1l0.5-0.2v12.2L141.4,83.8z
				 M143.4,72.3c-0.1,0-0.1,0-0.1,0.1c-0.1,0.1-0.3,0.2-0.4,0.3c-0.1,0.1-0.3,0.2-0.4,0.3c-0.2,0.1-0.3,0.3-0.3,0.6
				c0,1.3,0,2.6,0,3.9c0,0.5,0,1.1,0,1.6c0,1,0,2,0,3v1l1.2-0.2V72.3z"/>
			<path class="st1" d="M141.3,83.9V82c0-1,0-2,0-3c0-0.4,0-0.9,0-1.3v-0.3c0-1.3,0-2.6,0-3.9c0-0.6,0.2-1,0.6-1.2
				c0.1-0.1,0.2-0.2,0.4-0.3c0.2-0.1,0.3-0.2,0.5-0.3c0.2-0.1,0.4-0.2,0.5-0.2s0.2-0.1,0.2-0.1l0.6-0.3v12.5L141.3,83.9z
				 M143.9,71.5l-0.3,0.1c-0.1,0-0.2,0.1-0.2,0.1c-0.2,0.1-0.3,0.1-0.5,0.2s-0.3,0.2-0.4,0.3c-0.1,0.1-0.3,0.2-0.4,0.3
				c-0.4,0.2-0.5,0.6-0.5,1c0,1.3,0,2.6,0,3.9v0.3c0,0.4,0,0.9,0,1.3c0,1,0,2,0,3v1.6l2.3-0.3L143.9,71.5L143.9,71.5z M142,83.2V82
				c0-1,0-2,0-3v-1.8c0-1.2,0-2.5,0-3.8c0-0.3,0.1-0.5,0.3-0.7c0.1-0.1,0.3-0.2,0.4-0.3c0.1-0.1,0.3-0.2,0.4-0.3
				c0,0,0.1-0.1,0.2-0.1l0.2-0.1V83L142,83.2z M143.2,72.5c-0.1,0.1-0.2,0.2-0.3,0.2c-0.1,0.1-0.3,0.2-0.4,0.3
				c-0.2,0.1-0.2,0.2-0.2,0.4c0,1.3,0,2.5,0,3.8V79c0,1,0,2,0,3v0.9l1-0.1V72.5H143.2z"/>
		</g>
	</g>
	<g>
		<g>
			<path class="st1" d="M141.2,83.8l-2.6-0.2v-4.8c0-1.1,0-2.2,0-3.2c0-0.3,0.2-0.7,0.4-0.9c0.3-0.3,0.7-0.6,1-0.8
				c0.2-0.1,0.3-0.2,0.5-0.2c0.1,0,0.2-0.1,0.2-0.1l0.5-0.2L141.2,83.8L141.2,83.8z M139.3,83l1.3,0.1v-8.6c-0.1,0-0.1,0.1-0.2,0.1
				c-0.3,0.2-0.6,0.4-0.8,0.7c-0.1,0.1-0.2,0.3-0.2,0.4c0,1.1,0,2.2,0,3.2L139.3,83z"/>
			<path class="st1" d="M141.4,84l-2.9-0.2v-5c0-1,0-2.1,0-3.2c0-0.4,0.2-0.7,0.5-1s0.7-0.6,1-0.8c0.2-0.1,0.4-0.2,0.5-0.2l0,0
				c0.1,0,0.1,0,0.2-0.1l0.6-0.3L141.4,84L141.4,84z M138.8,83.5l2.4,0.2v-10l-0.3,0.1c-0.1,0-0.1,0.1-0.2,0.1l0,0
				c-0.2,0.1-0.3,0.1-0.5,0.2c-0.3,0.2-0.6,0.4-0.9,0.7c-0.2,0.2-0.4,0.5-0.4,0.8c0,1.1,0,2.1,0,3.2L138.8,83.5z M140.7,83.2
				l-1.5-0.1v-4.3c0-1,0-2.1,0-3.2c0-0.2,0.1-0.4,0.3-0.5c0.3-0.3,0.6-0.5,0.9-0.7c0.1,0,0.1-0.1,0.2-0.1l0.2-0.1L140.7,83.2
				L140.7,83.2z M139.4,82.9l1,0.1v-8.3c-0.3,0.2-0.5,0.4-0.8,0.6c-0.1,0.1-0.2,0.3-0.2,0.3c0,1.1,0,2.2,0,3.2V82.9z"/>
		</g>
	</g>
	<g>
		<g>
			<path class="st1" d="M135.4,82.8l-0.5-0.3c-0.2-0.1-0.4-0.2-0.6-0.3c-0.5-0.3-1-0.5-1.4-0.8c-0.3-0.2-0.4-0.6-0.4-0.8
				c0-2,0-4,0-5.9c0-0.2,0.1-0.6,0.4-0.8c0.5-0.3,0.9-0.5,1.4-0.8c0.2-0.1,0.4-0.2,0.5-0.3l0.5-0.3v10.3H135.4z M134.7,73.8
				L134.7,73.8c-0.5,0.3-1,0.5-1.4,0.8c0,0,0,0.1,0,0.2c0,1.9,0,3.9,0,5.9c0,0.1,0,0.2,0.1,0.2c0.4,0.3,0.9,0.5,1.4,0.8l0,0v-7.9
				H134.7z"/>
			<path class="st1" d="M135.6,83.1l-0.7-0.4c-0.2-0.1-0.4-0.2-0.6-0.3h-0.1c-0.5-0.3-0.9-0.5-1.4-0.8c-0.3-0.2-0.4-0.6-0.4-0.9
				c0-2,0-4,0-5.9c0-0.2,0.1-0.7,0.4-0.9c0.5-0.3,0.9-0.5,1.4-0.8l1.2-0.7v10.7H135.6z M135.3,72.8l-0.8,0.5c-0.5,0.3-1,0.5-1.4,0.8
				c-0.2,0.1-0.3,0.5-0.3,0.6c0,1.9,0,3.9,0,5.9c0,0.2,0.1,0.5,0.3,0.7c0.4,0.3,0.9,0.5,1.3,0.8h0.1c0.2,0.1,0.4,0.2,0.6,0.3
				l0.3,0.2v-9.8H135.3z M134.9,81.9l-0.2-0.1c-0.5-0.3-1-0.5-1.4-0.8l0,0c0-0.1-0.1-0.2-0.1-0.3c0-2,0-3.9,0-5.9c0-0.1,0-0.1,0-0.2
				l0,0l0,0c0.4-0.3,0.9-0.5,1.4-0.8l0.2-0.1v0.2v8H134.9z M133.4,80.8c0.4,0.2,0.8,0.5,1.2,0.7V74c-0.4,0.2-0.8,0.4-1.2,0.7
				c0,0.1,0,0.1,0,0.1c0,2,0,3.9,0,5.9C133.4,80.7,133.4,80.7,133.4,80.8z"/>
		</g>
	</g>
	<g>
		<g>
			<path class="st1" d="M132.5,81.2l-0.6-0.5c-0.1-0.1-0.3-0.2-0.4-0.3c-0.3-0.2-0.5-0.4-0.8-0.7l-0.1-0.1c-0.5-0.5-0.9-1-1.3-1.5
				c-0.2-0.3-0.3-0.7-0.4-1c0-0.1,0-0.2,0-0.3c-0.1-0.3,0.1-0.6,0.3-0.7c0.7-0.4,1.5-0.9,2.3-1.3c0.1-0.1,0.3-0.1,0.4-0.1
				c0.1,0,0.1,0,0.2,0h0.4L132.5,81.2L132.5,81.2z M129.6,76.6c0,0.1,0,0.2,0,0.2c0.1,0.3,0.1,0.6,0.2,0.8c0.4,0.5,0.8,1,1.3,1.5
				l0.1,0.1c0.2,0.2,0.3,0.3,0.5,0.5v-4.4C131,75.8,130.3,76.2,129.6,76.6z M129.6,76.7L129.6,76.7
				C129.6,76.7,129.6,76.6,129.6,76.7z"/>
			<path class="st1" d="M132.6,81.5l-0.8-0.7c-0.1-0.1-0.3-0.2-0.4-0.3c-0.3-0.2-0.5-0.4-0.8-0.7l-0.1-0.1c-0.5-0.5-1-1-1.4-1.5
				c-0.2-0.3-0.3-0.7-0.4-1.1c0-0.1,0-0.2,0-0.3c-0.1-0.3,0.1-0.7,0.4-0.8c0.7-0.4,1.5-0.8,2.3-1.3c0.2-0.1,0.3-0.1,0.5-0.1
				c0.1,0,0.1,0,0.2,0l0.5-0.1V81.5z M132.4,74.8h-0.2c-0.1,0-0.1,0-0.2,0c-0.2,0-0.3,0-0.4,0.1c-0.8,0.5-1.6,0.9-2.3,1.3
				c-0.2,0.1-0.3,0.3-0.3,0.5c0,0.1,0,0.2,0,0.3c0.1,0.3,0.1,0.7,0.3,1c0.4,0.5,0.9,1,1.3,1.5l0.1,0.1c0.2,0.2,0.5,0.4,0.7,0.7
				c0.1,0.1,0.3,0.2,0.4,0.3l0.3,0.3v-6.1H132.4z M132,80l-0.2-0.2c-0.2-0.2-0.4-0.3-0.6-0.5l-0.1-0.1c-0.5-0.5-0.9-0.9-1.3-1.5
				c-0.1-0.2-0.2-0.5-0.3-0.8c0-0.1,0-0.2,0-0.2l0,0h0.1h-0.1v-0.1h0.1l0,0h0.1l0,0c0.7-0.4,1.4-0.8,2.2-1.2l0.2-0.1L132,80L132,80z
				 M129.7,76.7L129.7,76.7c0,0.4,0.1,0.6,0.2,0.8c0.4,0.5,0.8,1,1.3,1.4l0.1,0.1c0.1,0.1,0.2,0.2,0.3,0.3v-3.8
				C131,76,130.3,76.4,129.7,76.7z"/>
		</g>
	</g>
</g>
</svg>
