<?xml version="1.0" encoding="utf-8"?>
<!-- Generator: Adobe Illustrator 24.0.3, SVG Export Plug-In . SVG Version: 6.00 Build 0)  -->
<svg version="1.1" id="Layer_1" xmlns="http://www.w3.org/2000/svg" xmlns:xlink="http://www.w3.org/1999/xlink" x="0px" y="0px"
	 viewBox="0 0 282 138" style="enable-background:new 0 0 282 138;" xml:space="preserve">
<style type="text/css">
	.st0{fill:#353535;}
	.st1{fill:#FFFFFF;}
</style>
<rect class="st0" width="282" height="138"/>
<title>illo-sm-xl-design</title>
<g>
	<path class="st1" d="M151.5,44.7c2.3-0.7,4.7-1.1,7.1-1c2.8,0.2,5.2,1.3,6.9,3.7c0.1,0.2,0.5,0.4,0.8,0.4c1.5,0.1,2.7,1.1,3,2.5
		s-0.3,2.7-1.6,3.5c-0.2,0.1-0.4,0.4-0.4,0.6c-0.3,1.5-0.4,3-0.7,4.5c-0.1,0.5,0,0.7,0.4,0.9c2,1.2,3.8,2.5,5.2,4.4
		c3.1,3.9,2.9,8.3-0.3,12.1c-1.4,1.6-3,2.9-4.9,3.9c-0.5,0.3-0.6,0.6-0.4,1.1c0.7,2.6,1.1,5.2,0.6,7.9c-0.4,2.1-1.5,3.9-3.3,5.2
		c-0.3,0.2-0.4,0.4-0.4,0.8c0,1.4-0.9,2.5-2.3,2.9c-1.3,0.4-2.7-0.1-3.4-1.3c-0.2-0.4-0.5-0.5-0.9-0.5c-1.8-0.2-3.5-0.5-5.3-0.7
		c-0.6,0.9-1.3,1.9-1.9,2.8c-0.1,0.1,0,0.4,0,0.5c0.6,1.4,0.3,2.8-0.8,3.7c-1.1,0.9-2.5,1-3.8,0.2c-0.2-0.1-0.5-0.2-0.7-0.1
		c-3.7,1.5-6.8,0.5-9.6-2c-1.6-1.4-2.8-3-3.8-4.8c-0.2-0.4-0.4-0.6-1-0.4c-2.5,0.7-5,1.1-7.6,0.7c-3.5-0.5-5.7-2.4-6.8-5.8
		c-0.1-0.5-0.3-0.7-0.8-0.8c-1.4-0.4-2.3-1.6-2.3-2.9s0.9-2.6,2.2-3c0.4-0.1,0.5-0.3,0.6-0.6c0.1-0.7,0.2-1.4,0.4-2
		c0.1-0.5,0-0.6-0.4-0.9c-1.8-1-3.4-2.2-4.8-3.8c-3.7-4.1-3.6-9,0.1-13c1.3-1.4,2.9-2.6,4.6-3.6c0.4-0.2,0.5-0.5,0.4-0.9
		c-0.7-2.5-1.1-5-0.6-7.6c0.9-4.6,4.5-7.6,9.3-7.7c1.9,0,3.7,0.3,5.6,0.7c0.2,0.1,0.5,0.1,0.6,0.2c1-1.4,1.9-2.8,3.1-4
		c1-1.1,2.4-1.9,3.5-2.9c0.2-0.2,0.5-0.5,0.6-0.7c0.4-1.4,1.5-2.3,2.9-2.4c1.3-0.1,2.5,0.8,3.1,2.2c0.1,0.2,0.2,0.4,0.4,0.5
		c3.2,1.2,5.3,3.6,7,6.4C151.1,43.9,151.3,44.3,151.5,44.7z M140.9,84.7c1.9-0.1,3.6-0.1,5.3-0.2c0.4,0,0.8-0.2,1.1-0.4
		c2.8-2.3,5.4-4.9,7.7-7.7c0.2-0.2,0.3-0.6,0.3-0.8c0.4-3.6,0.3-7.3,0-10.9c0-0.3-0.2-0.6-0.3-0.9c-2.4-2.9-5-5.5-7.9-7.9
		c-0.2-0.2-0.5-0.3-0.7-0.3c-3.6,0-7.3,0-10.9,0c-0.3,0-0.6,0.1-0.8,0.3c-2.8,2.4-5.5,5.1-7.9,7.9c-0.2,0.2-0.2,0.5-0.3,0.7
		c-0.3,3.6-0.3,7.3,0,10.9c0,0.3,0.1,0.6,0.3,0.8c2.3,2.8,4.9,5.4,7.7,7.8c0.2,0.2,0.6,0.3,0.8,0.4
		C137.4,84.6,139.2,84.6,140.9,84.7z M166,79.1c2.4-1.4,4.5-3,6-5.5c1.3-2.3,1.4-4.6,0.1-7c-0.9-1.7-2.1-3-3.6-4.1
		c-0.8-0.6-1.7-1.2-2.6-1.8c-1.1,3.2-2.6,6.1-4.3,8.9c-0.1,0.2-0.1,0.6,0,0.8c0.6,1.2,1.4,2.3,2,3.5C164.5,75.7,165.2,77.4,166,79.1
		z M115.9,61c-2.3,1.3-4.3,2.9-5.7,5.1c-0.9,1.5-1.4,3-1.1,4.8c0.7,4.1,3.7,6.2,6.9,8.2c0.1-0.1,0.1-0.2,0.1-0.2
		c1-3,2.5-5.9,4.2-8.6c0.1-0.2,0.1-0.6,0-0.8c-0.4-0.8-1-1.6-1.4-2.4C117.9,65.1,116.9,63.1,115.9,61z M116.4,83.6
		c2.8,1.6,3,4,0.5,5.8c-0.1,0.1-0.2,0.4-0.2,0.5c0.5,1.6,1.3,2.9,2.8,3.8c2,1.3,4.3,1.4,6.6,1.1c1.2-0.1,2.4-0.5,3.7-0.7
		c-1.5-3.1-2.5-6.1-3.3-9.3c-0.1-0.2-0.4-0.4-0.6-0.5c-1.3-0.4-2.7-0.7-4-1.1c-1.7-0.6-3.4-1.3-5.2-2
		C116.7,82.1,116.5,82.9,116.4,83.6z M131.8,45.1c0.2,0.1,0.3,0.1,0.4,0.2c2.9,1.1,5.6,2.5,8.2,4.1c0.4,0.3,0.7,0.2,1.1,0
		c2.4-1.2,4.7-2.4,7.1-3.6c0.5-0.3,1-0.4,1.6-0.7c-1.6-2.8-3.5-5.3-6.7-6.5c-0.5,1.4-1.5,2.2-2.9,2.3s-2.4-0.7-3.1-1.9
		C135,40.3,133.3,42.5,131.8,45.1z M152.2,45.9c1.4,3,2.4,6,3.1,9c0.1,0.5,0.4,0.6,0.8,0.7c1.9,0.6,3.8,1.1,5.7,1.7
		c1.2,0.4,2.3,0.9,3.5,1.4c0.2-1.6,0.5-3.1,0.7-4.7c-2.8-0.6-3.9-3.6-1.5-5.8c-0.8-1.3-2-2.2-3.4-2.7
		C158.1,44.6,155.2,45.1,152.2,45.9z M131.8,94.9c0.9,1.7,2,3.2,3.3,4.4c1.1,1.1,2.4,2,4,2.4s3.1,0.4,4.6-0.4
		c-0.4-1.4-0.1-2.6,1-3.5s2.3-0.9,3.6-0.3c0.6-0.9,1.1-1.7,1.7-2.6c-0.5-0.2-1-0.3-1.4-0.5c-2.5-1.2-4.9-2.5-7.4-3.7
		c-0.2-0.1-0.6-0.2-0.8-0.1C137.8,92.3,134.9,93.7,131.8,94.9z M129.7,45.9c-2-0.6-4-1-6-0.8c-3.7,0.3-6.4,2.5-7.3,6
		c-0.4,1.6-0.4,3.3-0.1,4.9c0.2,0.9,0.4,1.9,0.6,2.9c0.3-0.1,0.4-0.2,0.5-0.2c0.7-0.2,1-0.5,1-1.4c0-1.3,0.7-2.2,1.9-2.7
		c1.2-0.5,2.5-0.4,3.3,0.7c0.7,0.9,1.3,0.8,2.1,0.5c0.1,0,0.2-0.1,0.3-0.1c0.4,0,0.6-0.3,0.7-0.7c0.3-1.3,0.6-2.6,1.1-3.8
		C128.3,49.4,129,47.7,129.7,45.9z M165.1,81.2c-0.3,0.1-0.5,0.2-0.7,0.3c-0.6,0.2-0.9,0.5-1,1.3c-0.3,2.4-3.3,3.4-5,1.8
		c-0.6-0.5-1-0.6-1.7-0.4c-0.1,0.1-0.3,0.1-0.5,0.1c-0.6,0-0.7,0.4-0.9,0.9c-0.8,2.5-1.7,5.1-2.5,7.6c-0.1,0.4-0.4,0.8-0.6,1.4
		c1.7,0.3,3.4,0.5,5,0.7c0.3-1.5,1-2.5,2.4-2.9s2.5,0.2,3.4,1.2c1.1-0.8,1.9-1.8,2.4-3.1C166.5,87.2,165.9,84.2,165.1,81.2z
		 M160.7,68.7c1.6-2.7,3.1-5.5,4.1-8.5c-2.9-1.4-5.8-2.4-8.9-3.2c0.3,2.1,0.6,4.1,0.9,6.2c0,0.2,0.1,0.3,0.2,0.5
		C158.1,65.4,159.4,67,160.7,68.7z M142.2,89.6c2.8,1.7,5.5,3.1,8.6,4.1c1.4-2.8,2.4-5.7,3.1-8.8c-0.2,0-0.4,0-0.5,0
		c-1.6,0.2-3.2,0.6-4.8,0.7c-0.9,0.1-1.6,0.4-2.3,1C145,87.7,143.7,88.6,142.2,89.6z M117.3,79.8c2.8,1.4,5.7,2.4,8.8,3.1
		c0-0.1,0-0.2,0-0.3c-0.3-2-0.6-3.9-0.9-5.9c0-0.2-0.1-0.4-0.2-0.5c-1.2-1.7-2.5-3.3-3.7-5C119.7,74,118.3,76.8,117.3,79.8z
		 M142.2,50.3c1.8,1.4,3.4,2.6,5,3.8c0.2,0.1,0.4,0.2,0.6,0.2c1.3,0.2,2.6,0.3,3.9,0.5c0.7,0.1,1.4,0.2,2.2,0.3
		c-0.8-3.1-1.7-6.1-3.1-9C147.9,47.6,145.1,48.9,142.2,50.3z M128.1,55.1c0.2,0,0.4,0,0.6,0c1.7-0.2,3.3-0.5,5-0.7
		c0.3,0,0.7,0,0.9-0.2c1.6-1.2,3.3-2.4,4.9-3.7c-2.7-1.6-5.4-3-8.4-4.1C129.8,49.2,128.8,52.1,128.1,55.1z M128.1,84.9
		c0.3,2.1,2.1,7.3,3.1,8.7c2.9-1,5.6-2.4,8.3-4c-0.2-0.2-0.4-0.3-0.5-0.4c-1.3-1-2.7-2-4-3c-0.3-0.2-0.8-0.4-1.2-0.5
		c-1.2-0.2-2.4-0.3-3.5-0.5C129.6,85.2,128.9,85,128.1,84.9z M117.3,60.2c1.1,3,2.5,5.7,4.1,8.4c0.5-0.7,1-1.4,1.5-2.1s1-1.3,1.5-2
		c0.6-0.7,1-1.4,1-2.4c0-0.8,0.2-1.6,0.3-2.4c0.1-0.9,0.3-1.8,0.4-2.7c-0.3,0.1-0.6,0.2-0.9,0.2c-0.5,0.1-0.7,0.3-0.8,0.8
		c-0.6,2.6-3.6,3.3-5.2,1.6c-0.1-0.1-0.4-0.2-0.6-0.1C118.2,59.8,117.8,60,117.3,60.2z M157.2,82.7c-0.1-1.6,0.5-2.8,2-3.3
		c1.6-0.6,2.9,0,3.9,1.3c0.6-0.3,1.1-0.5,1.6-0.8c-1.1-3-2.5-5.7-4.1-8.3c-1.3,1.7-2.5,3.3-3.7,4.9c-0.1,0.2-0.2,0.5-0.2,0.8
		c-0.2,1.3-0.3,2.5-0.5,3.8c-0.1,0.7-0.2,1.3-0.3,2C156.3,82.9,156.7,82.8,157.2,82.7z M155.1,78.8c-1.8,1.8-3.6,3.6-5.4,5.3
		c1.3-0.2,2.7-0.5,4.1-0.7c0.4-0.1,0.5-0.3,0.6-0.6C154.7,81.5,154.9,80.1,155.1,78.8z M132.4,55.9c-1.5,0.3-2.9,0.5-4.4,0.8
		c-0.1,0-0.3,0.2-0.3,0.4c-0.3,1.5-0.5,2.9-0.8,4.3C128.6,59.6,130.5,57.8,132.4,55.9z M155.1,61.2c-0.2-1-0.3-2.1-0.5-3.1
		c-0.3-1.4-0.3-1.4-1.7-1.7c-1.1-0.2-2.1-0.3-3-0.5C151.5,57.7,153.3,59.4,155.1,61.2z M126.9,78.9c0.2,1.3,0.5,2.8,0.8,4.3
		c0,0.1,0.2,0.2,0.3,0.2c1.5,0.3,2.9,0.5,4.2,0.7C130.5,82.4,128.7,80.6,126.9,78.9z M157,66.1c0,2.7,0,5.2,0,7.9
		c0.9-1.3,1.8-2.5,2.6-3.8c0.1-0.1,0-0.4-0.1-0.5C158.8,68.6,157.9,67.4,157,66.1z M125,66.1c-0.5,0.7-0.9,1.2-1.3,1.8
		c-0.5,0.7-1.3,1.4-1.3,2.1s0.8,1.4,1.2,2.1c0.4,0.6,0.9,1.2,1.4,1.8C125,71.3,125,68.8,125,66.1z M144.6,54c0,0,0-0.1,0.1-0.1
		c-1.2-0.8-2.3-1.6-3.5-2.4c-0.1-0.1-0.4,0-0.6,0.1c-0.8,0.6-1.7,1.1-2.5,1.7c-0.3,0.2-0.6,0.4-1,0.7C139.7,54,142.1,54,144.6,54z
		 M140.9,88.8c1.3-0.9,2.6-1.8,3.9-2.7c-2.6,0-5.1,0-7.8,0C138.4,87.1,139.6,87.9,140.9,88.8z M164.5,51c0,1,0.8,1.8,1.7,1.8
		c1,0,1.7-0.8,1.7-1.8c0-0.9-0.7-1.7-1.7-1.7C165.3,49.2,164.5,50,164.5,51z M140.6,35.9c-1,0-1.8,0.8-1.8,1.7c0,1,0.8,1.8,1.8,1.7
		c0.9,0,1.7-0.8,1.7-1.7S141.5,36,140.6,35.9z M115.4,85c-1,0-1.8,0.8-1.7,1.8c0,0.9,0.8,1.7,1.7,1.7c1,0,1.8-0.7,1.8-1.7
		C117.2,85.8,116.4,85,115.4,85z M162,82.3c0-1-0.7-1.8-1.7-1.8c-0.9,0-1.7,0.7-1.7,1.7s0.7,1.8,1.7,1.8C161.2,84,162,83.2,162,82.3
		z M123.1,57.5c0-1-0.8-1.7-1.8-1.7s-1.7,0.7-1.7,1.7s0.8,1.8,1.7,1.8C122.3,59.2,123.1,58.4,123.1,57.5z M146.7,102
		c1,0,1.7-0.8,1.7-1.7c0-0.9-0.8-1.7-1.7-1.7c-1,0-1.8,0.8-1.8,1.7C145,101.2,145.8,102,146.7,102z M160.3,96.8c1,0,1.7-0.8,1.7-1.8
		c0-0.9-0.8-1.7-1.7-1.7c-1,0-1.7,0.8-1.7,1.8C158.6,96.1,159.4,96.8,160.3,96.8z"/>
	<path class="st1" d="M114.2,48.9c-0.4-0.2-0.8-0.3-1.3-0.5c0.2-0.5,0.4-0.9,0.6-1.3c0.4,0.2,0.8,0.4,1.2,0.6
		C114.5,48.1,114.3,48.5,114.2,48.9z"/>
	<path class="st1" d="M155.2,42.5c-0.5,0.1-0.9,0.1-1.3,0.2c-0.1-0.5-0.2-0.9-0.2-1.3c0.5-0.1,0.9-0.1,1.4-0.2
		C155.1,41.6,155.1,42,155.2,42.5z"/>
	<path class="st1" d="M120.4,98.5c0.1-0.5,0.3-0.9,0.4-1.3c0.4,0.1,0.8,0.2,1.3,0.3c-0.1,0.5-0.2,0.9-0.3,1.3
		C121.3,98.7,120.9,98.6,120.4,98.5z"/>
	<path class="st1" d="M157.9,41c0,0.4,0,0.8,0,1.3c-0.4,0-0.9,0-1.3,0c0-0.4,0-0.8,0-1.3C157,41,157.4,41,157.9,41z"/>
	<path class="st1" d="M166.8,93.2c0.4,0.2,0.7,0.5,1.2,0.8c-0.3,0.4-0.6,0.8-0.9,1.2c-0.4-0.3-0.7-0.6-1-0.9
		C166.3,93.9,166.5,93.6,166.8,93.2z"/>
	<path class="st1" d="M112.3,57c-0.1-0.5-0.1-0.9-0.2-1.4c0.5,0,0.9-0.1,1.4-0.1c0.1,0.4,0.1,0.8,0.2,1.3
		C113.2,56.9,112.8,56.9,112.3,57z"/>
	<path class="st1" d="M112.5,49.8c0.5,0.1,0.9,0.2,1.3,0.3c-0.1,0.4-0.1,0.8-0.2,1.3c-0.4-0.1-0.9-0.1-1.4-0.2
		C112.3,50.8,112.4,50.3,112.5,49.8z"/>
	<path class="st1" d="M164.1,44.2c0.3-0.4,0.5-0.7,0.8-1.1c0.4,0.3,0.8,0.6,1.2,0.9c-0.3,0.4-0.6,0.7-0.9,1
		C164.8,44.7,164.5,44.5,164.1,44.2z"/>
	<path class="st1" d="M168.5,84.3c-0.1-0.5-0.1-0.8-0.2-1.3c0.4-0.1,0.9-0.2,1.3-0.3c0.1,0.5,0.1,0.9,0.2,1.4
		C169.4,84.2,169,84.2,168.5,84.3z"/>
	<path class="st1" d="M160.8,41.4c-0.1,0.5-0.2,0.9-0.3,1.3c-0.4-0.1-0.8-0.1-1.2-0.2c0-0.4,0.1-0.9,0.1-1.4
		C159.9,41.2,160.3,41.3,160.8,41.4z"/>
	<path class="st1" d="M169.7,89.9c-0.5-0.1-0.9-0.2-1.3-0.3c0.1-0.4,0.1-0.8,0.2-1.3c0.4,0,0.8,0.1,1.4,0.1
		C169.8,89,169.8,89.4,169.7,89.9z"/>
	<path class="st1" d="M115.2,44.7c0.4,0.3,0.6,0.6,1,1c-0.3,0.3-0.5,0.7-0.8,1c-0.4-0.3-0.7-0.5-1.1-0.8
		C114.6,45.4,114.9,45.1,115.2,44.7z"/>
	<path class="st1" d="M163.6,42.3c-0.2,0.5-0.4,0.8-0.6,1.2c-0.4-0.2-0.8-0.3-1.2-0.5c0.1-0.4,0.3-0.8,0.4-1.3
		C162.7,41.9,163.1,42.1,163.6,42.3z"/>
	<path class="st1" d="M112.1,54.1c0-0.5,0-0.9,0-1.3c0.4,0,0.8,0,1.3,0c0,0.5,0,0.9,0,1.3C112.9,54.1,112.5,54.1,112.1,54.1z"/>
	<path class="st1" d="M118.4,96.2c0.4,0.2,0.8,0.4,1.1,0.6c-0.2,0.4-0.3,0.8-0.5,1.3c-0.4-0.2-0.8-0.4-1.3-0.7
		C117.9,96.9,118.1,96.6,118.4,96.2z"/>
	<path class="st1" d="M170,87c-0.4,0-0.8,0-1.3,0c0-0.4,0-0.8,0-1.3c0.4,0,0.8,0,1.3,0C170,86.1,170,86.5,170,87z"/>
	<path class="st1" d="M168.7,92.7c-0.4-0.2-0.8-0.4-1.2-0.6c0.2-0.4,0.3-0.8,0.5-1.2c0.4,0.2,0.8,0.3,1.3,0.5
		C169.1,91.8,168.9,92.2,168.7,92.7z"/>
	<path class="st1" d="M124.6,97.7c0,0.5,0,0.9,0,1.3c-0.5,0-0.9,0-1.4,0c0-0.5,0.1-0.8,0.1-1.3C123.8,97.7,124.2,97.7,124.6,97.7z"
		/>
	<path class="st1" d="M115.5,95.7c0.3-0.4,0.6-0.7,0.9-1c0.3,0.3,0.6,0.5,0.9,0.8c-0.3,0.4-0.5,0.7-0.8,1.1
		C116.1,96.2,115.8,95.9,115.5,95.7z"/>
	<path class="st1" d="M150.8,69.1c0,1.9,0,3.8,0,5.8c0,0.9-0.3,1.5-1,2.1c-1.2,0.9-2.6,1.3-4.1,1.6c-3.6,0.6-7.1,0.6-10.6-0.5
		c-0.8-0.3-1.6-0.7-2.4-1.2c-0.6-0.4-0.9-1-0.9-1.8c0-4,0-7.9,0-11.9c0-1,0.5-1.6,1.2-2.1c1.2-0.8,2.6-1.2,4-1.5
		c3.5-0.6,6.9-0.5,10.3,0.5c0.4,0.1,0.9,0.3,1.3,0.5c1.4,0.6,2.2,1.6,2,3.2C150.7,65.6,150.8,67.4,150.8,69.1z M133.3,65.1
		c0,1.3,0,2.4,0,3.6c0,0.5,0.2,0.9,0.6,1.1c0.7,0.3,1.4,0.7,2.1,0.9c2.7,0.8,5.4,0.8,8.1,0.5c1.6-0.2,3.2-0.5,4.6-1.3
		c0.3-0.2,0.7-0.5,0.7-0.8c0.1-1.3,0-2.6,0-4C143.5,67.3,139.2,67.3,133.3,65.1z M149.4,71.3c-5.4,2.1-10.7,2.1-16.1,0
		c0,0.8,0,1.7,0,2.5c0,2,0.1,2.2,2.1,2.9c0.2,0.1,0.3,0.1,0.5,0.1c2.8,0.8,5.7,0.9,8.6,0.5c1.5-0.2,2.9-0.5,4.2-1.3
		c0.3-0.2,0.7-0.6,0.7-1C149.4,73.8,149.4,72.5,149.4,71.3z M141.4,65.4c1.5-0.2,3-0.3,4.5-0.6c1-0.2,2-0.6,2.9-1.1
		c0.8-0.4,0.8-1,0-1.5c-0.6-0.4-1.2-0.7-1.9-0.8c-3.4-1-6.9-1-10.3-0.2c-1,0.2-1.9,0.6-2.8,1.1c-0.7,0.4-0.7,0.9-0.1,1.4
		c0.3,0.3,0.7,0.5,1.1,0.6C137,65.1,139.2,65.3,141.4,65.4z"/>
	<path class="st1" d="M143.3,69.1c-0.3,0-0.6,0-0.9,0c0-0.5,0-0.9,0-1.3c0.3,0,0.6,0,0.9,0C143.3,68.2,143.3,68.7,143.3,69.1z"/>
	<path class="st1" d="M145.1,67.8c0.3,0,0.6,0,0.9,0c0,0.4,0,0.8,0,1.3c-0.3,0-0.6,0-0.9,0C145.1,68.7,145.1,68.3,145.1,67.8z"/>
	<path class="st1" d="M139.4,67.8c0.3,0,0.6,0,0.9,0c0,0.4,0,0.8,0,1.3c-0.3,0-0.6,0-0.9,0C139.4,68.7,139.4,68.3,139.4,67.8z"/>
	<path class="st1" d="M137.5,69.1c-0.3,0-0.6,0-0.9,0c0-0.4,0-0.8,0-1.3c0.3,0,0.6,0,0.9,0C137.5,68.2,137.5,68.6,137.5,69.1z"/>
	<path class="st1" d="M143.3,75.5c-0.3,0-0.6,0-0.9,0c0-0.4,0-0.8,0-1.3c0.3,0,0.6,0,0.9,0C143.3,74.6,143.3,75,143.3,75.5z"/>
	<path class="st1" d="M145.1,74.1c0.3,0,0.6,0,0.9,0c0,0.4,0,0.8,0,1.3c-0.3,0-0.6,0-0.9,0C145.1,75,145.1,74.6,145.1,74.1z"/>
	<path class="st1" d="M140.3,75.5c-0.3,0-0.6,0-0.9,0c0-0.4,0-0.8,0-1.3c0.3,0,0.6,0,0.9,0C140.3,74.6,140.3,75,140.3,75.5z"/>
	<path class="st1" d="M137.6,74.1c0,0.5,0,0.9,0,1.3c-0.3,0-0.6,0-0.9,0c0-0.4,0-0.8,0-1.3C136.9,74.1,137.2,74.1,137.6,74.1z"/>
</g>
</svg>
