<?xml version="1.0" encoding="utf-8"?>
<!-- Generator: Adobe Illustrator 24.0.3, SVG Export Plug-In . SVG Version: 6.00 Build 0)  -->
<svg version="1.1" id="Layer_1" xmlns="http://www.w3.org/2000/svg" xmlns:xlink="http://www.w3.org/1999/xlink" x="0px" y="0px"
	 viewBox="0 0 282 138" style="enable-background:new 0 0 282 138;" xml:space="preserve">
<style type="text/css">
	.st0{fill:#2667F8;}
	.st1{fill-rule:evenodd;clip-rule:evenodd;fill:#2B5468;}
	.st2{fill-rule:evenodd;clip-rule:evenodd;fill:#3995D3;}
	.st3{fill-rule:evenodd;clip-rule:evenodd;fill:#FFFFFF;}
	.st4{fill-rule:evenodd;clip-rule:evenodd;fill:#F3756C;}
	.st5{fill-rule:evenodd;clip-rule:evenodd;fill:#1D4354;}
</style>
<title>illo-sm-xl-data</title>
<rect class="st0" width="282" height="138"/>
<g>
	<path class="st1" d="M198.5,106.9H82.9c-0.5,0-0.9-0.4-0.9-0.9c0,0,0,0,0-0.1V42.5h117.4V106C199.4,106.5,199,106.9,198.5,106.9"/>
</g>
<g>
	<path class="st2" d="M199.4,42.7H82v-11c0-0.5,0.4-0.9,0.9-0.9h115.6c0.5,0,0.9,0.4,0.9,0.9c0,0,0,0,0,0V42.7z"/>
</g>
<path class="st3" d="M89.3,37c0,0.7-0.5,1.2-1.2,1.2c-0.7,0-1.2-0.5-1.2-1.2c0-0.7,0.5-1.2,1.2-1.2C88.8,35.8,89.3,36.3,89.3,37"/>
<path class="st3" d="M95.4,37c0,0.7-0.5,1.2-1.2,1.2c-0.7,0-1.2-0.5-1.2-1.2c0-0.7,0.5-1.2,1.2-1.2C94.9,35.8,95.4,36.3,95.4,37"/>
<path class="st3" d="M101.6,37c0,0.7-0.5,1.2-1.2,1.2c-0.7,0-1.2-0.5-1.2-1.2c0-0.7,0.5-1.2,1.2-1.2C101,35.8,101.5,36.3,101.6,37"
	/>
<path class="st3" d="M115,84.8c-0.3,0-0.6-0.3-0.6-0.7c0-0.1,0.1-0.2,0.1-0.3l18.4-19c0.2-0.2,0.5-0.3,0.8-0.1l16.6,10.4L166.6,59
	c0.2-0.2,0.6-0.2,0.9,0c0.2,0.2,0.2,0.6,0,0.9l-16.5,16.4c-0.2,0.2-0.5,0.2-0.8,0.1L133.5,66l-18.1,18.6
	C115.4,84.8,115.2,84.8,115,84.8"/>
<path class="st4" d="M162.6,60.1c0-2.1,1.7-3.8,3.7-3.8c2.1,0,3.8,1.7,3.8,3.7s-1.7,3.8-3.7,3.8c0,0,0,0,0,0
	C164.3,63.8,162.6,62.2,162.6,60.1C162.6,60.1,162.6,60.1,162.6,60.1"/>
<path class="st4" d="M146.1,75.1c0-2.1,1.7-3.7,3.8-3.7c2.1,0,3.7,1.7,3.7,3.8s-1.7,3.8-3.8,3.7c0,0,0,0,0,0
	C147.8,78.8,146.1,77.1,146.1,75.1C146.1,75.1,146.1,75.1,146.1,75.1"/>
<path class="st4" d="M129.7,65.7c0-2.1,1.7-3.7,3.8-3.7c2.1,0,3.7,1.7,3.7,3.8c0,2.1-1.7,3.8-3.8,3.7c0,0,0,0,0,0
	C131.4,69.5,129.7,67.8,129.7,65.7"/>
<path class="st4" d="M111.3,84.2c0-2.1,1.7-3.7,3.8-3.7c2.1,0,3.7,1.7,3.7,3.8c0,2.1-1.7,3.7-3.8,3.7
	C112.9,88,111.3,86.3,111.3,84.2C111.3,84.3,111.3,84.3,111.3,84.2"/>
<g>
	<path class="st5" d="M201.1,265.1c0,1.9-1.6,3.5-3.5,3.4c-1.9,0-3.5-1.6-3.4-3.5c0-1.9,1.6-3.4,3.5-3.4
		C199.6,261.6,201.1,263.1,201.1,265.1C201.1,265,201.1,265.1,201.1,265.1"/>
</g>
</svg>
