<?xml version="1.0" encoding="utf-8"?>
<!-- Generator: Adobe Illustrator 24.0.3, SVG Export Plug-In . SVG Version: 6.00 Build 0)  -->
<svg version="1.1" id="Layer_1" xmlns="http://www.w3.org/2000/svg" xmlns:xlink="http://www.w3.org/1999/xlink" x="0px" y="0px"
	 viewBox="0 0 282 138" style="enable-background:new 0 0 282 138;" xml:space="preserve">
<style type="text/css">
	.st0{fill:#353535;}
	.st1{fill-rule:evenodd;clip-rule:evenodd;fill:#1D4354;}
	.st2{fill:#FFFFFF;}
</style>
<rect class="st0" width="282" height="138"/>
<title>illo-sm-xl-cs</title>
<g>
	<path class="st1" d="M197.8,304.7c0,1.9-1.6,3.5-3.5,3.4c-1.9,0-3.5-1.6-3.4-3.5c0-1.9,1.6-3.4,3.5-3.4
		C196.2,301.2,197.8,302.8,197.8,304.7L197.8,304.7"/>
</g>
<path class="st2" d="M163.4,31.9c-9.1-1.4-18.9,3.4-22.1,12c-1.6-4.1-4.9-7.5-8.7-9.7c-6.4-3.6-12.7-3.6-19.6-0.7
	c-5.3,2.2-9.5,8.1-11.7,13.2c-2.8,6.4-1.4,14.3,0.4,20.9c0.3,1.2,2.2,0.7,1.9-0.5c-2.9-10.9-2.4-22.9,7.5-30.2
	c4.7-3.4,12.7-4.6,17.9-2.3c5.4,2.5,10.9,7.3,11.3,13.7c0.1,1.3,1.8,1.2,2,0c1-11.6,15.3-17.8,25.3-13.1c10.6,5,15.1,19.3,11.6,30.1
	c-2.2,6.8-11,5.1-16.7,5.2c-3.3,0-6.5,0.1-9.8,0c-0.4,0-2.3,0-2.2,0c-0.5-0.3-1.8-4.2-2.2-5c-0.4-1.1-1.8-0.8-1.9,0.3
	c-0.6,5.1-2,10-3,15c-1-8.4-1.4-16.8-2.8-25.2c-0.2-1-1.7-0.9-1.9,0c-1.3,5.8-2.7,11.6-4,17.5c-0.6-2.7-1.2-5.4-1.8-8.1
	c-0.2-0.9-1.7-1-1.9,0c-0.2,1.3-0.5,5-1.5,5.6c-0.6,0.4-3,0-3.8,0c-3.5,0-7.1,0-10.6-0.1c-3.9,0-10-0.8-9.8,5c0.1,3,2.9,6.1,4.7,8.4
	c2.6,3.3,5.7,6.1,9,8.6c6.8,5.3,14.3,9.4,21.6,13.8c0.3,0.2,0.7,0.2,1,0c13.2-7.2,23.9-16.6,33.3-28.3c0.8-1-0.6-2.4-1.4-1.4
	c-6.2,7.8-13.1,15.2-21.3,20.8c-2.6,1.8-8.4,7-11.6,6.6c-1.5-0.2-3.6-2.2-5-3c-2.1-1.2-4.1-2.4-6.1-3.7c-4.4-2.8-8.8-5.8-12.7-9.3
	c-2.3-2.1-14.1-13.3-6.3-15.7c2.9-0.9,7.7,0.1,10.7,0.1s6.1,0,9.1,0.1c0.4,0,0.8-0.3,0.9-0.7c0.2-0.7,0.4-1.5,0.7-2.2
	c0.6,2.7,1.2,5.4,1.8,8.1c0.2,0.9,1.7,0.9,1.9,0c1.3-5.5,2.6-11.1,3.8-16.6c1.1,8.7,1.5,17.4,2.9,26.1c0.2,1.2,1.8,0.7,1.9-0.3
	c0.7-5.9,2.4-11.6,3.5-17.4c0.7,1.5,1.6,2.6,3.4,2.9c4.4,0.7,9.6,0,14.1,0c4.1,0,9.6,0.9,13-1.9c3-2.4,3.6-6.7,3.9-10.2
	C183.1,48.2,176.5,33.9,163.4,31.9z"/>
</svg>
