<?xml version="1.0" encoding="utf-8"?>
<!-- Generator: Adobe Illustrator 24.0.3, SVG Export Plug-In . SVG Version: 6.00 Build 0)  -->
<svg version="1.1" id="Layer_1" xmlns="http://www.w3.org/2000/svg" xmlns:xlink="http://www.w3.org/1999/xlink" x="0px" y="0px"
	 viewBox="0 0 282 138" style="enable-background:new 0 0 282 138;" xml:space="preserve">
<style type="text/css">
	.st0{fill:#353535;}
	.st1{fill:#FFFFFF;}
	.st2{fill:none;stroke:#FFFFFF;stroke-linecap:round;stroke-linejoin:round;stroke-miterlimit:10;}
	.st3{fill:none;stroke:#FFFFFF;stroke-miterlimit:10;}
</style>
<title>illo-sm-xl-data</title>
<rect class="st0" width="282" height="138"/>
<g>
	<g>
		<path class="st1" d="M171,90.4h-60c-3.2,0-5.9-2.6-5.9-5.9V36.7c0-3.2,2.6-5.9,5.9-5.9h60c3.2,0,5.9,2.6,5.9,5.9v47.9
			C176.8,87.8,174.2,90.4,171,90.4z M111,33.2c-1.9,0-3.5,1.6-3.5,3.5v47.9c0,1.9,1.6,3.5,3.5,3.5h60c1.9,0,3.5-1.6,3.5-3.5V36.7
			c0-1.9-1.6-3.5-3.5-3.5H111z"/>
	</g>
</g>
<g>
	<g>
		<rect x="106.4" y="72.8" class="st1" width="69.3" height="2.4"/>
	</g>
</g>
<g>
	<g>
		<path class="st1" d="M143.7,82c0,1.5-1.2,2.7-2.7,2.7s-2.7-1.2-2.7-2.7s1.2-2.7,2.7-2.7S143.7,80.5,143.7,82z"/>
	</g>
</g>
<g>
	<g>
		<path class="st1" d="M150.5,99.5h-19V88h19V99.5z M133.9,97.1h14.2v-6.6h-14.2V97.1z"/>
	</g>
</g>
<g>
	<g>
		<path class="st1" d="M156.8,106.9h-31.7c-2.2,0-4-1.8-4-4v-1.8c0-2.2,1.8-4,4-4h31.7c2.2,0,4,1.8,4,4v1.8
			C160.8,105.1,159,106.9,156.8,106.9z M125.2,99.5c-0.9,0-1.6,0.7-1.6,1.6v1.8c0,0.9,0.7,1.6,1.6,1.6h31.7c0.9,0,1.6-0.7,1.6-1.6
			v-1.8c0-0.9-0.7-1.6-1.6-1.6H125.2z"/>
	</g>
</g>
<g>
	<g>
		<g>
			<g>
				<g>
					<path class="st2" d="M152.3,53.6l3.6-0.5l-0.6-4.2l-3.6,0.5c-0.1-0.4-0.3-0.7-0.4-1.1l3-2.1l-2.4-3.5l-3,2.1
						c-0.3-0.3-0.6-0.5-0.9-0.8l1.7-3.2l-3.8-2l-1.7,3.2c-0.5-0.2-1.1-0.3-1.6-0.4v-3.9h-4.3V42c-0.4,0.1-0.8,0.2-1.2,0.4l-1.9-3.1
						l-3.7,2.2l1.9,3.1c-0.3,0.3-0.5,0.5-0.8,0.8l-3.1-1.9l-2.2,3.6l3.1,1.9c-0.1,0.4-0.3,0.7-0.4,1.1l-3.6-0.3l-0.3,4.2l3.6,0.3
						c0,0.4,0.1,0.8,0.2,1.1l-3.3,1.4l1.7,3.9l3.3-1.4c0.2,0.3,0.4,0.6,0.7,0.9L130,63l3.3,2.7l2.3-2.8c0.3,0.2,0.7,0.4,1,0.5
						l-0.8,3.5l4.2,0.9l0.8-3.5c0.1,0,0.2,0,0.3,0c0.3,0,0.6,0,0.9,0l1,3.5l4.1-1.1l-1-3.5c0.3-0.2,0.7-0.4,1-0.6l2.5,2.7l3.1-2.9
						l-2.5-2.7c0.2-0.3,0.4-0.6,0.6-0.9l3.4,1.2l1.4-4l-3.4-1.2C152.2,54.4,152.3,54,152.3,53.6z M141,59c-3.3,0-6-2.7-6-6
						s2.7-6,6-6s6,2.7,6,6S144.3,59,141,59z"/>
				</g>
			</g>
		</g>
	</g>
	<g>
		<g>
			<g>
				<g>
					<path class="st3" d="M141,59.6c-3.7,0-6.6-3-6.6-6.6c0-3.7,3-6.6,6.6-6.6c3.7,0,6.6,3,6.6,6.6C147.6,56.7,144.6,59.6,141,59.6z
						 M141,47.6c-3,0-5.4,2.4-5.4,5.4s2.4,5.4,5.4,5.4s5.4-2.4,5.4-5.4S144,47.6,141,47.6z"/>
				</g>
			</g>
		</g>
	</g>
</g>
</svg>
