<?xml version="1.0" encoding="utf-8"?>
<!-- Generator: Adobe Illustrator 24.0.3, SVG Export Plug-In . SVG Version: 6.00 Build 0)  -->
<svg version="1.1" id="Layer_1" xmlns="http://www.w3.org/2000/svg" xmlns:xlink="http://www.w3.org/1999/xlink" x="0px" y="0px"
	 viewBox="0 0 282 138" style="enable-background:new 0 0 282 138;" xml:space="preserve">
<style type="text/css">
	.st0{fill:#353535;}
	.st1{fill:none;stroke:#FFFFFF;stroke-width:2;stroke-miterlimit:10;}
</style>
<rect class="st0" width="282" height="138"/>
<title>illo-sm-xl-design</title>
<g>
	<path class="st1" d="M152.5,107.3c-2.7-2.6-5.4-5.2-8-7.8c-0.9-0.9-0.9-2,0-2.9c2.3-2.4,4.7-4.8,7.1-7.1c0.9-0.9,2.1-1,3,0
		c0.9,0.9,0.8,2-0.1,2.9c-1.1,1.1-2.2,2.1-3.3,3.2c0.1,0.2,0.2,0.4,0.3,0.6c1.9-0.5,3.9-0.7,5.8-1.4c7.8-2.9,12.8-8.5,14.9-16.6
		c0.2-0.8,0.4-1.2,1.3-1.5c1.1-0.3,2.1-1.2,3.1-1.7c0.8,4-2.9,12.6-7.7,17.3c-4.9,4.8-10.7,7.4-18.1,7.9c1.4,1.3,2.4,2.1,3.3,3.1
		c1.7,1.7,1.7,2.6-0.1,4.1C153.4,107.3,153,107.3,152.5,107.3z"/>
	<path class="st1" d="M158.3,30.7c1.3,0.6,2.7,1.1,3.9,2c3,2.4,3.9,6.5,2.3,9.9c-1.6,3.4-5.4,5.4-9,4.6c-4-0.8-6.6-3.8-6.8-7.8
		c-0.2-3.9,2.1-7.2,5.8-8.4c0.4-0.1,0.7-0.3,1.1-0.4C156.5,30.7,157.4,30.7,158.3,30.7z"/>
	<path class="st1" d="M156.8,73c-4.1,0-8.3,0-12.4,0c-2.6,0-3.7-1.1-3.7-3.7c0-3.5,0-6.9,0-10.4c0-4.1,2.3-6.8,6.3-7.6
		c3.9-0.8,3.9-0.8,5.2,2.8c1.2,3.2,2.3,6.4,3.5,9.6c0.3,0.7,0.8,1.2,1.3,1.8c0.5-0.6,1.1-1.1,1.3-1.7c1.5-3.9,2.9-7.7,4.2-11.6
		c0.4-1.2,1-1.6,2.3-1.3c1.2,0.3,2.6,0.3,3.8,0.8c3.2,1.2,4.6,3.7,4.7,7c0.1,3.6,0.1,7.3,0,10.9c0,2.3-1.2,3.4-3.5,3.4
		C165.4,73.1,161.1,73,156.8,73z"/>
	<path class="st1" d="M134.4,76.2c-0.3,0.4-0.5,0.9-0.9,1.2c-0.5,0.4-1.2,0.7-1.7,1.1c-1,0.8-1,1.8,0,2.5c0.4,0.3,0.9,0.6,1.3,0.8
		c1.3,0.7,1.5,1.6,0.8,2.8c-1,1.6-1.9,3.3-2.9,5c-0.7,1.2-1.6,1.3-2.7,0.7c-0.4-0.3-0.9-0.5-1.3-0.7c-1.2-0.5-2.1,0-2.3,1.3
		c-0.1,0.5,0,1,0,1.5c0.1,1.5-0.7,2-2.1,2c-1.8,0-3.6,0-5.4,0c-1.5,0-2.2-0.6-2.1-2.1c0-0.4,0-0.9,0-1.4c-0.2-1.4-1.2-1.9-2.4-1.3
		c-0.5,0.2-1,0.5-1.5,0.8c-0.9,0.5-1.7,0.4-2.3-0.6c-1.1-1.8-2.1-3.6-3.1-5.4c-0.6-1-0.4-1.8,0.7-2.4c0.5-0.3,1-0.5,1.4-0.9
		c1.1-0.8,1.1-1.8,0-2.6c-0.4-0.3-0.9-0.5-1.3-0.8c-1.2-0.6-1.4-1.5-0.7-2.7c1-1.7,1.9-3.3,2.9-5c0.7-1.2,1.5-1.5,2.7-0.7
		c0.3,0.2,0.6,0.3,0.9,0.5c1.8,1,2.8,0.4,2.9-1.7c0.1-2.9,0.1-2.9,3-2.9c1.5,0,3.1,0,4.6,0c1.4,0,2.1,0.6,2,2.1c0,0.5-0.1,1,0,1.5
		c0.2,1.3,1.1,1.8,2.3,1.3c0.5-0.2,0.9-0.5,1.3-0.7c1.1-0.7,2-0.5,2.7,0.7c0.9,1.7,1.9,3.3,2.9,5C134.1,75.3,134.2,75.6,134.4,76.2z
		 M124.3,79.7c0-2.6-2-4.5-4.5-4.4c-2.5,0-4.4,2-4.4,4.6c0.1,2.5,2,4.3,4.5,4.3S124.3,82.2,124.3,79.7z"/>
	<path class="st1" d="M105.9,67.2c-0.1-11.1,11-21.7,25.5-23.8c-0.8-0.9-1.6-1.6-2.3-2.3c-0.4-0.4-0.9-0.9-1.3-1.3
		c-0.8-1-0.9-2,0-2.9c0.9-0.9,2-0.8,2.9,0.1c2.4,2.3,4.7,4.7,7.1,7.1c0.9,1,1,2,0,3c-2.3,2.4-4.7,4.7-7.1,7.1c-0.9,0.9-2,1-2.9,0.1
		c-1-0.9-0.9-2.1,0-3c1-1.1,2.1-2,3.2-3c-0.1-0.2-0.1-0.4-0.2-0.6c-1.7,0.4-3.4,0.6-5,1.1c-7.6,2.6-12.7,7.6-15.2,15.3
		c-0.3,0.9-0.6,1.3-1.6,1.6C107.9,65.8,106.9,66.6,105.9,67.2z"/>
	<path class="st1" d="M156.9,59.1c-1.1-1.5-1-3.1-0.8-4.8c0.1-0.8-0.2-1.6-0.5-2.4c-0.5-1.1-0.4-1.5,0.9-1.6c0.5,0,1,0,1.4,0
		c0.8,0.1,1.1,0.7,0.6,1.2c-1,1.1-0.6,2.4-0.6,3.6c0,1.3-0.3,2.6-0.4,4C157.2,59.2,157,59.1,156.9,59.1z"/>
</g>
</svg>
