<?xml version="1.0" encoding="utf-8"?>
<!-- Generator: Adobe Illustrator 24.0.3, SVG Export Plug-In . SVG Version: 6.00 Build 0)  -->
<svg version="1.1" id="Layer_1" xmlns="http://www.w3.org/2000/svg" xmlns:xlink="http://www.w3.org/1999/xlink" x="0px" y="0px"
	 viewBox="0 0 282 138" style="enable-background:new 0 0 282 138;" xml:space="preserve">
<style type="text/css">
	.st0{fill:#353535;}
	.st1{fill:none;stroke:#FFFFFF;stroke-width:2;stroke-miterlimit:10;}
	.st2{fill:none;stroke:#FFFFFF;stroke-width:2;stroke-linecap:round;stroke-linejoin:round;stroke-miterlimit:10;}
</style>
<rect class="st0" width="282" height="138"/>
<title>illo-sm-xl-engineering</title>
<path class="st1" d="M124.8,71l0.8,30.4c0.1,2.8-2,5.3-4.8,5.8h-0.1l-5.8-34.3l3.3-0.8L124.8,71z"/>
<path class="st1" d="M143.2,59.6c0.7,3.9-2,7.6-5.9,8.2l-2.4-14.1C138.8,53.1,142.5,55.7,143.2,59.6z"/>
<path class="st1" d="M129.8,46.4l5.1,30.1c-0.3-1.9-1.4-3.5-2.9-4.6s-3.3-1.5-5.3-1.2l-12.6,2.1c-4.4,0.7-8.7-2.2-9.4-6.7
	c-0.4-2.2,0.2-4.4,1.4-6.1c1.2-1.7,3.1-2.9,5.3-3.3l12.6-2.1C127.8,53.9,130.4,50.3,129.8,46.4z"/>
<line class="st1" x1="116.4" y1="55.8" x2="119" y2="71.5"/>
<path class="st1" d="M133.3,43.9l5.6,33.2c0.2,1.1-0.5,2.1-1.6,2.2c-1.1,0.2-2.1-0.5-2.2-1.6l-5.6-33.2c-0.2-1.1,0.5-2.1,1.6-2.2
	c0.5-0.1,1,0,1.5,0.3C132.9,42.9,133.2,43.4,133.3,43.9z"/>
<g>
	<g>
		<line class="st2" x1="156" y1="36.5" x2="161.4" y2="30.8"/>
		<line class="st2" x1="143.4" y1="49.9" x2="151.2" y2="41.6"/>
	</g>
	<g>
		<line class="st2" x1="152.5" y1="50.8" x2="146.2" y2="55.5"/>
		<line class="st2" x1="167.3" y1="39.9" x2="158.1" y2="46.7"/>
	</g>
	<g>
		<line class="st2" x1="162.7" y1="76.6" x2="169.7" y2="80.3"/>
		<line class="st2" x1="146.5" y1="68.1" x2="156.6" y2="73.4"/>
	</g>
	<g>
		<line class="st2" x1="154.8" y1="64.3" x2="147.3" y2="61.9"/>
		<line class="st2" x1="172.3" y1="69.7" x2="161.4" y2="66.3"/>
	</g>
	<line class="st2" x1="151.2" y1="58" x2="155.3" y2="57.3"/>
	<line class="st2" x1="159.8" y1="56.5" x2="168.5" y2="55.1"/>
	<line class="st2" x1="173.8" y1="54.2" x2="177.4" y2="53.6"/>
</g>
</svg>
