<?xml version="1.0" encoding="utf-8"?>
<!-- Generator: Adobe Illustrator 24.0.3, SVG Export Plug-In . SVG Version: 6.00 Build 0)  -->
<svg version="1.1" id="Layer_1" xmlns="http://www.w3.org/2000/svg" xmlns:xlink="http://www.w3.org/1999/xlink" x="0px" y="0px"
	 viewBox="0 0 282 138" style="enable-background:new 0 0 282 138;" xml:space="preserve">
<style type="text/css">
	.st0{fill:#2667F8;}
	.st1{fill-rule:evenodd;clip-rule:evenodd;fill:#2B5468;}
	.st2{fill-rule:evenodd;clip-rule:evenodd;fill:#F3756C;}
	.st3{fill-rule:evenodd;clip-rule:evenodd;fill:#FFFFFF;}
</style>
<title>illo-sm-xl-sales</title>
<rect class="st0" width="282" height="138"/>
<polygon class="st1" points="152.9,86.7 155.9,106 164.6,106 161.5,86.7 "/>
<polygon class="st1" points="119.1,86.7 116,106 124.7,106 127.7,86.7 "/>
<g>
	<path class="st1" d="M187.3,89.9h-94c-0.2,0-0.4-0.2-0.4-0.4V31.4c0-0.3,0.2-0.5,0.4-0.5h94c0.3,0,0.5,0.2,0.4,0.5v58.1
		C187.8,89.7,187.6,89.9,187.3,89.9"/>
</g>
<g>
	<path class="st2" d="M189.2,94.9H91.4c-0.2,0-0.4-0.2-0.4-0.4v-8.7c0-0.2,0.2-0.4,0.4-0.4h97.7c0.2,0,0.4,0.2,0.4,0.4v8.7
		C189.6,94.7,189.4,94.9,189.2,94.9"/>
</g>
<g>
	<polygon class="st3" points="122.7,71.6 129.7,71.6 129.7,48.1 122.7,48.1 	"/>
</g>
<g>
	<polygon class="st3" points="136.8,71.6 143.8,71.6 143.8,53.1 136.8,53.1 	"/>
</g>
<g>
	<polygon class="st3" points="150.9,71.6 157.9,71.6 157.9,57.5 150.9,57.5 	"/>
</g>
</svg>
