<?xml version="1.0" encoding="utf-8"?>
<!-- Generator: Adobe Illustrator 24.0.3, SVG Export Plug-In . SVG Version: 6.00 Build 0)  -->
<svg version="1.1" id="Layer_1" xmlns="http://www.w3.org/2000/svg" xmlns:xlink="http://www.w3.org/1999/xlink" x="0px" y="0px"
	 viewBox="0 0 282 138" style="enable-background:new 0 0 282 138;" xml:space="preserve">
<style type="text/css">
	.st0{fill:#353535;}
	.st1{fill:#FFFFFF;}
</style>
<rect class="st0" width="282" height="138"/>
<title>illo-sm-xl-design</title>
<g>
	<path class="st1" d="M132.9,77.1c-5.6,0-11,0-16.4,0c-1.9,0-2.1-0.2-2.1-2.1c0-10.2,0-20.4,0-30.6c0-1.8,0.2-2,2-2
		c10.2,0,20.5,0,30.7,0c1.7,0,2,0.3,2,2c0,5.4,0,10.9,0,16.5c0.5,0,0.9,0,1.4,0c5.1,0,10.2,0,15.3,0c1.5,0,1.8,0.3,1.8,1.8
		c0,10.4,0,20.7,0,31.1c0,1.5-0.3,1.8-1.8,1.8c-10.4,0-20.7,0-31.1,0c-1.5,0-1.8-0.3-1.8-1.8c0-5.1,0-10.1,0-15.2
		C132.9,78.2,132.9,77.7,132.9,77.1z M116.8,44.7c0,10.1,0,20,0,30.1c5.3,0,10.5,0,15.6,0c0.6,0,1.3-0.2,1.9-0.3
		c0.4,0.4,1,0.8,1.4,1.3c-0.6,1-0.9,14.7-0.4,17.6c10,0,19.9,0,29.9,0c0-10,0-20,0-30c-5.2,0-10.4,0-15.5,0c-0.7,0-1.4,0.2-2.1,0.3
		c-0.4-0.4-0.9-0.8-1.4-1.2c0.6-1,0.9-14.8,0.4-17.6C136.7,44.7,126.8,44.7,116.8,44.7z"/>
	<path class="st1" d="M134.1,51.7c0.8,0,1.5,0,2.2,0c0,4.2,0,8.3,0,12.5c-4.1,0-8.3,0-12.5,0c0-0.6,0-1.3,0-2.1c2.8,0,5.6,0,8.4,0
		c-3.6-3.5-7.1-7-10.6-10.5c0.8-0.8,1.4-1.2,2-1.8c3.4,3.4,6.8,6.9,10.6,10.7C134.1,57.3,134.1,54.6,134.1,51.7z"/>
	<path class="st1" d="M160.5,86.6c-0.7,0.6-1.2,1.1-1.7,1.5c-3.4-3.5-6.9-7-10.4-10.5c-0.1,0.1-0.3,0.2-0.4,0.2c0,2.8,0,5.6,0,8.4
		c-0.8,0-1.4,0-2.1,0c0-4.1,0-8.3,0-12.5c4.1,0,8.3,0,12.5,0c0,0.7,0,1.3,0,2.1c-2.8,0-5.6,0-8.8,0
		C153.3,79.6,156.8,83.1,160.5,86.6z"/>
	<path class="st1" d="M144.2,67.2c-0.5-0.5-1-1-1.5-1.6c0.7-0.6,1.3-1.2,2-1.9c0.5,0.5,1,1,1.5,1.5
		C145.5,65.9,144.9,66.6,144.2,67.2z"/>
	<path class="st1" d="M137.8,70.8c0.4,0.4,0.9,0.9,1.3,1.4c-0.6,0.6-1.2,1.2-2,1.9c-0.4-0.4-0.8-1-1.2-1.6
		C136.5,72.1,137.1,71.5,137.8,70.8z"/>
	<path class="st1" d="M141.3,67.3c0.4,0.5,0.9,1,1.4,1.6c-0.6,0.6-1.3,1.1-2,1.8c-0.4-0.5-0.9-1-1.4-1.6
		C139.9,68.6,140.6,68,141.3,67.3z"/>
</g>
</svg>
