<?xml version="1.0" encoding="utf-8"?>
<!-- Generator: Adobe Illustrator 24.0.3, SVG Export Plug-In . SVG Version: 6.00 Build 0)  -->
<svg version="1.1" id="Layer_1" xmlns="http://www.w3.org/2000/svg" xmlns:xlink="http://www.w3.org/1999/xlink" x="0px" y="0px"
	 viewBox="0 0 282 138" style="enable-background:new 0 0 282 138;" xml:space="preserve">
<style type="text/css">
	.st0{fill:#353535;}
	.st1{fill:#FFFFFF;}
</style>
<rect class="st0" width="282" height="138"/>
<title>illo-sm-xl-writing</title>
<path id="XMLID_443_" class="st1" d="M141,76.3c-8.3,0-15.1,6.8-15.1,15.1c0,4.7,2.2,9,5.6,11.8c0.1,0.1,0.1,0.1,0.2,0.2
	c2.6,2,5.8,3.2,9.3,3.2s6.7-1.2,9.3-3.2c0.1-0.1,0.1-0.1,0.2-0.2c3.4-2.8,5.6-7,5.6-11.8C156.1,83.1,149.3,76.3,141,76.3L141,76.3z
	 M141,103.5c-2.5,0-4.7-0.7-6.6-2c1-2.6,3.7-4.4,6.6-4.4c3,0,5.6,1.8,6.6,4.4C145.7,102.8,143.5,103.5,141,103.5L141,103.5z
	 M138.3,91.5c0-1.4,1.1-2.5,2.5-2.5s2.5,1.1,2.5,2.5s-1.1,2.5-2.5,2.5C139.4,93.9,138.3,92.8,138.3,91.5L138.3,91.5z M150.1,99.3
	c-1.1-2-2.8-3.6-4.9-4.5c0.7-0.9,1.1-2.1,1.1-3.4c0-3.1-2.5-5.6-5.6-5.6s-5.6,2.5-5.6,5.6c0,1.3,0.5,2.6,1.3,3.5
	c-1.9,0.9-3.5,2.5-4.5,4.3c-1.8-2.1-3-4.9-3-7.9c0-6.6,5.4-12,12-12s12,5.4,12,12C153,94.5,151.9,97.2,150.1,99.3L150.1,99.3z"/>
<path id="XMLID_437_" class="st1" d="M116.4,31.4c-8.3,0-15.1,6.8-15.1,15.1c0,4.7,2.2,9,5.6,11.8c0.1,0.1,0.1,0.1,0.2,0.2
	c2.6,2,5.8,3.2,9.3,3.2s6.7-1.2,9.3-3.2c0.1,0,0.1-0.1,0.2-0.2c3.4-2.8,5.6-7,5.6-11.8C131.5,38.2,124.7,31.4,116.4,31.4L116.4,31.4
	z M116.4,58.6c-2.5,0-4.7-0.7-6.6-2c1-2.6,3.7-4.4,6.6-4.4c3,0,5.6,1.8,6.6,4.4C121.1,57.8,118.8,58.6,116.4,58.6L116.4,58.6z
	 M113.6,46.5c0-1.4,1.1-2.5,2.5-2.5s2.5,1.1,2.5,2.5s-1.1,2.5-2.5,2.5C114.8,49,113.6,47.9,113.6,46.5L113.6,46.5z M125.5,54.4
	c-1.1-2-2.8-3.6-4.9-4.5c0.7-0.9,1.1-2.1,1.1-3.4c0-3.1-2.5-5.6-5.6-5.6s-5.6,2.5-5.6,5.6c0,1.3,0.5,2.6,1.3,3.5
	c-1.9,0.9-3.5,2.5-4.5,4.3c-1.8-2.1-3-4.9-3-7.9c0-6.6,5.4-12,12-12s12,5.4,12,12C128.4,49.5,127.3,52.3,125.5,54.4L125.5,54.4z"/>
<path id="XMLID_431_" class="st1" d="M165.6,31.4c-8.3,0-15.1,6.8-15.1,15.1c0,4.7,2.2,9,5.6,11.8c0.1,0.1,0.1,0.1,0.2,0.2
	c2.6,2,5.8,3.2,9.3,3.2s6.7-1.2,9.3-3.2c0.1,0,0.1-0.1,0.2-0.2c3.4-2.8,5.6-7,5.6-11.8C180.8,38.2,174,31.4,165.6,31.4L165.6,31.4z
	 M165.6,58.6c-2.5,0-4.7-0.7-6.6-2c1-2.6,3.7-4.4,6.6-4.4c3,0,5.6,1.8,6.6,4.4C170.4,57.8,168.1,58.6,165.6,58.6L165.6,58.6z
	 M162.9,46.5c0-1.4,1.1-2.5,2.5-2.5s2.5,1.1,2.5,2.5s-1.1,2.5-2.5,2.5S162.9,47.9,162.9,46.5L162.9,46.5z M174.7,54.4
	c-1.1-2-2.8-3.6-4.9-4.5c0.7-0.9,1.1-2.1,1.1-3.4c0-3.1-2.5-5.6-5.6-5.6s-5.6,2.5-5.6,5.6c0,1.3,0.5,2.6,1.3,3.5
	c-1.9,0.9-3.5,2.5-4.5,4.3c-1.8-2.1-3-4.9-3-7.9c0-6.6,5.4-12,12-12s12,5.4,12,12C177.6,49.5,176.5,52.3,174.7,54.4L174.7,54.4z"/>
<g>
	<path id="XMLID_413_" class="st1" d="M161.1,84.6c-0.6-0.7-1.5-0.7-2.2-0.2l0,0c-0.6,0.6-0.7,1.5-0.2,2.2c0.3,0.4,0.7,0.5,1.2,0.5
		c0.4,0,0.7-0.1,1-0.4l0,0C161.5,86.2,161.6,85.3,161.1,84.6L161.1,84.6z"/>
	<path id="XMLID_410_" class="st1" d="M168.4,73c-0.8-0.3-1.7,0.1-2,0.9l0,0c-0.3,0.8,0.1,1.7,0.9,2c0.2,0.1,0.4,0.1,0.6,0.1
		c0.6,0,1.2-0.4,1.4-1C169.5,74.2,169.2,73.3,168.4,73L168.4,73z"/>
	<path id="XMLID_407_" class="st1" d="M164.1,81.1c-0.7-0.6-1.6-0.5-2.2,0.2l0,0c-0.5,0.7-0.4,1.6,0.2,2.2c0.3,0.2,0.6,0.4,1,0.4
		s0.9-0.2,1.2-0.6C164.8,82.6,164.8,81.7,164.1,81.1L164.1,81.1z"/>
	<path id="XMLID_404_" class="st1" d="M169.5,68.5c-0.8-0.2-1.7,0.3-1.8,1.2l0,0c-0.2,0.8,0.3,1.7,1.2,1.9c0.1,0,0.2,0,0.3,0
		c0.7,0,1.3-0.5,1.5-1.2l0,0C170.8,69.5,170.3,68.7,169.5,68.5L169.5,68.5z"/>
	<path id="XMLID_401_" class="st1" d="M166.6,77.2c-0.7-0.4-1.7-0.2-2.1,0.5l0,0c-0.4,0.7-0.2,1.7,0.6,2.1c0.2,0.1,0.5,0.2,0.8,0.2
		c0.5,0,1-0.3,1.3-0.8C167.5,78.6,167.3,77.7,166.6,77.2L166.6,77.2z"/>
	<path id="XMLID_398_" class="st1" d="M169.9,63.9c-0.9,0-1.6,0.6-1.6,1.5l0,0c0,0.9,0.6,1.6,1.5,1.6h0.1c0.8,0,1.5-0.6,1.5-1.5
		C171.4,64.7,170.7,63.9,169.9,63.9L169.9,63.9z"/>
</g>
<g>
	<path id="XMLID_395_" class="st1" d="M150.7,34.2L150.7,34.2c-0.8-0.3-1.7,0.2-2,1s0.2,1.7,1,2l0,0c0.2,0.1,0.3,0.1,0.5,0.1
		c0.7,0,1.3-0.4,1.5-1.1C151.9,35.3,151.5,34.5,150.7,34.2L150.7,34.2z"/>
	<path id="XMLID_392_" class="st1" d="M145.9,33.1L145.9,33.1c-0.9-0.1-1.7,0.5-1.8,1.3s0.5,1.6,1.3,1.8c0.1,0,0.2,0,0.3,0
		c0.7,0,1.4-0.5,1.5-1.3C147.3,34,146.7,33.2,145.9,33.1L145.9,33.1z"/>
	<path id="XMLID_389_" class="st1" d="M141,32.7L141,32.7c-0.9,0-1.6,0.7-1.6,1.6c0,0.8,0.7,1.5,1.5,1.5l0,0c0.9,0,1.6-0.7,1.6-1.6
		C142.5,33.4,141.8,32.7,141,32.7L141,32.7z"/>
	<path id="XMLID_386_" class="st1" d="M133.3,35.2c-0.2-0.8-1.1-1.3-1.9-1l0,0c-0.8,0.3-1.3,1.1-1,1.9c0.2,0.7,0.8,1.1,1.5,1.1
		c0.2,0,0.3,0,0.5-0.1C133,36.9,133.5,36.1,133.3,35.2L133.3,35.2z"/>
	<path id="XMLID_383_" class="st1" d="M137.9,34.4c-0.1-0.8-0.9-1.4-1.8-1.3l0.2,1.5l-0.2-1.5c-0.8,0.1-1.4,0.9-1.3,1.8
		c0.1,0.8,0.8,1.3,1.5,1.3c0.1,0,0.2,0,0.2,0l0,0C137.4,36.1,138,35.3,137.9,34.4L137.9,34.4z"/>
</g>
<g>
	<path id="XMLID_428_" class="st1" d="M123.1,84.4L123.1,84.4c-0.7-0.6-1.7-0.5-2.2,0.2c-0.6,0.7-0.5,1.6,0.2,2.2l0,0
		c0.3,0.2,0.6,0.4,1,0.4s0.9-0.2,1.2-0.5C123.9,86,123.8,85,123.1,84.4L123.1,84.4z"/>
	<path id="XMLID_425_" class="st1" d="M120.1,81.3L120.1,81.3c-0.6-0.7-1.5-0.8-2.2-0.2c-0.7,0.5-0.7,1.5-0.2,2.2l0,0
		c0.3,0.4,0.7,0.6,1.2,0.6c0.3,0,0.7-0.1,1-0.4C120.6,83,120.7,82,120.1,81.3L120.1,81.3z"/>
	<path id="XMLID_422_" class="st1" d="M117.6,77.8C117.6,77.8,117.6,77.7,117.6,77.8c-0.5-0.8-1.4-1-2.2-0.6c-0.7,0.4-1,1.4-0.5,2.1
		l0,0c0.3,0.5,0.8,0.8,1.3,0.8c0.3,0,0.5-0.1,0.8-0.2C117.8,79.5,118,78.5,117.6,77.8L117.6,77.8z"/>
	<path id="XMLID_419_" class="st1" d="M114.4,69.7c-0.2-0.8-1-1.4-1.8-1.2c-0.8,0.2-1.4,1-1.2,1.8l0,0c0.2,0.7,0.8,1.2,1.5,1.2
		c0.1,0,0.2,0,0.3,0C114,71.3,114.6,70.5,114.4,69.7L114.4,69.7z"/>
	<path id="XMLID_416_" class="st1" d="M115.7,73.8L115.7,73.8c-0.3-0.8-1.2-1.2-2-0.9c-0.8,0.3-1.2,1.2-0.9,2l0,0
		c0.2,0.6,0.8,1,1.4,1c0.2,0,0.4,0,0.6-0.1C115.6,75.5,116,74.6,115.7,73.8L115.7,73.8z"/>
	<path id="XMLID_380_" class="st1" d="M113.7,65c-0.2-0.8-1-1.4-1.8-1.2s-1.4,1-1.2,1.8l0,0c0.2,0.7,0.8,1.2,1.5,1.2
		c0.1,0,0.2,0,0.3,0C113.4,66.7,113.9,65.8,113.7,65L113.7,65z"/>
</g>
</svg>
