<?xml version="1.0" encoding="utf-8"?>
<!-- Generator: Adobe Illustrator 24.0.3, SVG Export Plug-In . SVG Version: 6.00 Build 0)  -->
<svg version="1.1" id="Layer_1" xmlns="http://www.w3.org/2000/svg" xmlns:xlink="http://www.w3.org/1999/xlink" x="0px" y="0px"
	 viewBox="0 0 282 138" style="enable-background:new 0 0 282 138;" xml:space="preserve">
<style type="text/css">
	.st0{fill:#353535;}
	.st1{fill:#FFFFFF;}
</style>
<rect class="st0" width="282" height="138"/>
<title>illo-sm-xl-design</title>
<g>
	<g>
		<path class="st1" d="M141.3,65.7l-0.1-0.8c0-0.4-0.1-0.7-0.1-1.1l0,0l0,0c-0.4,0-0.9-0.1-1.3-0.2c-0.1,0-0.2,0-0.3,0l-0.7,1.8
			L135,64l0.7-1.9l-1.4-1l-1.5,1.4l-2.7-3l1.6-1.4l-0.7-1.4l-2.1,0.5l-0.1-0.3c0-0.1-0.1-0.2-0.1-0.3c-0.1-0.2-0.1-0.4-0.2-0.6
			c-0.1-0.6-0.3-1.1-0.4-1.7l-0.2-1l2.1-0.5v-1.4l-2.2-0.5l0.9-3.9l0.3,0.1c0.2,0,0.4,0.1,0.5,0.1c0.4,0.1,0.9,0.2,1.3,0.3l0,0l0,0
			c0.2-0.4,0.3-0.7,0.5-1.1c0-0.1,0.1-0.2,0.1-0.3l-1.6-1.4l2.7-3l1.6,1.4l1.3-1l-0.7-1.9l3.8-1.4l0.7,1.8h0.2
			c0.5-0.1,0.9-0.1,1.3-0.2l0,0c0-0.4,0.1-0.7,0.1-1.1l0.1-0.7l4,0.4l-0.2,1.8l0.2,0.1c0.5,0.2,0.9,0.3,1.4,0.5l0,0
			c0.2-0.3,0.4-0.5,0.6-0.8l0.4-0.6l3.3,2.2l-0.9,1.4L151,45l1.4-0.7l1.9,3.6l-0.6,0.3c-0.2,0.1-0.5,0.2-0.7,0.4c0,0,0,0-0.1,0l0,0
			c0.1,0.3,0.2,0.6,0.3,0.9c0.1,0.2,0.1,0.5,0.2,0.7l0,0c0.3,0,0.5,0,0.8,0c0.1,0,0.2,0,0.4,0h0.3v4h-1.4l-0.1,0.3
			c-0.1,0.5-0.3,1-0.4,1.5l0,0c0.2,0.1,0.5,0.2,0.7,0.4c0.1,0.1,0.2,0.1,0.3,0.2l0.3,0.1l-1.8,3.6l-1.4-0.7l-1.3,1.5L151,62
			l-3.3,2.3l-1-1.4l-1.6,0.6l0.2,1.7L141.3,65.7z M139.1,62.9h0.3c0.2,0,0.4,0,0.5,0.1c0.4,0.1,0.9,0.1,1.3,0.2
			c0.5,0,0.6,0.4,0.6,0.6c0,0.3,0.1,0.7,0.1,1v0.1l2.7-0.4l-0.2-1.6l2.5-0.9l0.9,1.2l2.2-1.6l-0.8-1.2l2-2.2l1.3,0.6l1.2-2.4l0,0
			c-0.3-0.1-0.5-0.3-0.8-0.4c-0.2-0.1-0.4-0.4-0.3-0.7c0.1-0.5,0.2-1,0.4-1.5l0.2-0.8h1.3v-2.7l0,0c-0.3,0-0.6,0-0.9,0
			c-0.2,0-0.5-0.2-0.6-0.5c-0.1-0.2-0.1-0.5-0.2-0.7c-0.1-0.3-0.1-0.6-0.2-0.9c-0.2-0.6,0.2-0.8,0.4-0.9c0.2-0.1,0.5-0.2,0.7-0.4
			l0,0l-1.3-2.4l-1.3,0.6l-2-2.2l0.8-1.2l-2.3-1.5v0.1c-0.2,0.3-0.4,0.6-0.6,0.9c-0.1,0.2-0.4,0.3-0.7,0.3c-0.5-0.2-1-0.3-1.5-0.5
			l-0.7-0.2l0.1-1.6l-2.7-0.3V39c0,0.4-0.1,0.8-0.1,1.1c0,0.2-0.2,0.5-0.5,0.6c-0.5,0.1-1,0.2-1.4,0.2l-0.7,0.1l-0.7-1.7l-2.6,1
			l0.7,1.8l-2.1,1.6l-1.5-1.3l-1.8,2.1l1.5,1.3l-0.1,0.2c-0.1,0.2-0.2,0.3-0.2,0.5c-0.2,0.4-0.4,0.7-0.5,1.1
			c-0.1,0.2-0.3,0.5-0.8,0.4c-0.4-0.1-0.8-0.2-1.2-0.3c-0.1,0-0.2,0-0.2,0l-0.6,2.7l2,0.5v2.4l-2,0.5l0.1,0.4
			c0.1,0.6,0.3,1.1,0.4,1.7c0,0.2,0.1,0.4,0.2,0.6l2-0.5l1.2,2.3l-1.5,1.3l1.8,2l1.4-1.3l2.2,1.6l-0.6,1.7l2.6,0.9L139.1,62.9z
			 M142,57.9c-3.3,0-6-2.7-6-6l0,0c0.1-3.4,2.6-5.9,6-6c1.6,0,3.1,0.6,4.2,1.7c1.2,1.1,1.8,2.6,1.8,4.2c0,1.6-0.6,3.1-1.8,4.3
			C145.1,57.2,143.6,57.9,142,57.9L142,57.9z M136.6,51.9c0,3,2.4,5.3,5.4,5.3l0,0c1.4,0,2.7-0.6,3.7-1.6s1.6-2.4,1.6-3.8
			c0-1.4-0.6-2.8-1.6-3.8s-2.4-1.5-3.8-1.5C138.9,46.6,136.7,48.8,136.6,51.9z"/>
	</g>
	<g>
		<path class="st1" d="M165.7,99.9l-0.2-1.2l-0.8-0.1l-0.4,1.1l-2.5-0.9l0.1-0.3c0-0.1,0.1-0.2,0.1-0.3c0.1-0.2,0.1-0.4,0.2-0.6l0,0
			l0,0c-0.2-0.1-0.4-0.3-0.6-0.4c0,0,0,0-0.1,0l-1,0.8l-1.8-2l1-0.9l-0.3-0.7l-1.3,0.3l-0.7-2.6l1.3-0.4l0,0c0-0.2,0-0.4,0-0.6l0,0
			c-0.2-0.1-0.5-0.1-0.7-0.2l-0.6-0.1l0.6-2.6l0.6,0.1c0.2,0.1,0.5,0.1,0.7,0.2l0,0c0.1-0.2,0.2-0.4,0.3-0.6c0,0,0,0,0-0.1l-1-0.9
			l1.8-2.1l1,0.9l0,0c0.2-0.1,0.4-0.3,0.6-0.4l0,0c-0.1-0.2-0.1-0.4-0.2-0.6l-0.2-0.6l2.5-1l0.5,1.1l0.7-0.1l0.2-1.2l2.7,0.3
			l-0.1,1.1h0.1c0.3,0.1,0.5,0.2,0.7,0.2l0,0c0.1-0.1,0.2-0.2,0.3-0.4c0-0.1,0.1-0.1,0.1-0.2l0.2-0.3l2.3,1.5l-0.2,0.3
			c0,0.1-0.1,0.1-0.1,0.2c-0.1,0.1-0.2,0.3-0.2,0.4c0.2,0.2,0.5,0.4,0.7,0.5l0.2,0.1l0.7-0.4l1.3,2.4l-0.8,0.5l0.2,0.8h0.9v2.7h-0.9
			l-0.2,0.9l0.8,0.5l-0.3,0.6c-0.1,0.2-0.2,0.4-0.3,0.6s-0.2,0.4-0.3,0.7l-0.3,0.6l-0.9-0.4l-0.7,0.8l0.6,0.8l-2.2,1.5l-0.6-0.9
			l-0.8,0.3l0.1,1.1L165.7,99.9z M164.3,97.9l1.8,0.2l0.1,1l1.4-0.2l-0.1-0.9l0.2-0.1l1.5-0.5l0.5,0.7l1.2-0.8l-0.5-0.7l1.4-1.5
			l0.7,0.3l0,0c0.1-0.2,0.2-0.4,0.3-0.7c0.1-0.2,0.2-0.4,0.3-0.6l0,0l-0.7-0.4l0.4-1.9h0.8v-1.4h-0.8l-0.5-1.8l0.7-0.4l-0.7-1.3
			l-1.9,1l0.9-1.1c-0.3-0.2-0.5-0.4-0.8-0.6c-0.2-0.2-0.2-0.5-0.1-0.7c0.1-0.1,0.2-0.3,0.2-0.4l-1.2-0.8c-0.1,0.1-0.2,0.3-0.3,0.4
			s-0.4,0.3-0.6,0.2c-0.3-0.1-0.5-0.2-0.8-0.3l-0.5-0.2l0.1-1l-1.4-0.1l-0.1,1l-1.7,0.3l-0.4-1l-1.3,0.5c0.1,0.2,0.2,0.4,0.2,0.7
			c0.1,0.2,0,0.5-0.2,0.7s-0.5,0.3-0.7,0.5l-0.5,0.3l-0.9-0.8l-0.9,1.1l0.9,0.8l-0.1,0.2c0,0.1-0.1,0.2-0.1,0.3
			c-0.1,0.2-0.2,0.4-0.3,0.6c-0.1,0.3-0.4,0.5-0.8,0.4c-0.2-0.1-0.4-0.1-0.7-0.2l-0.3,1.4c0.3,0.1,0.5,0.1,0.7,0.2s0.4,0.3,0.5,0.5
			c0,0.3,0,0.5,0,0.8c0,0.1,0,0.2,0,0.3v0.2l-1.2,0.3l0.3,1.4l1.2-0.3l0.8,1.6l-0.9,0.8l0.9,1.1l0.9-0.8l0.2,0.1
			c0.1,0.1,0.2,0.1,0.3,0.2c0.2,0.1,0.4,0.3,0.6,0.4c0.4,0.2,0.5,0.5,0.3,0.9c-0.1,0.2-0.1,0.3-0.2,0.5l1.3,0.5L164.3,97.9z
			 M162.2,97.6L162.2,97.6L162.2,97.6z M159.3,88.4L159.3,88.4L159.3,88.4z M171.1,85.8L171.1,85.8L171.1,85.8z M166.2,95.1
			c-1,0-2-0.4-2.7-1.1s-1.1-1.7-1.1-2.7l0,0c0-1,0.4-2,1.1-2.7c0.7-0.7,1.7-1.1,2.7-1.1l0,0c2.1,0,3.8,1.7,3.8,3.8
			c0,1-0.4,2-1.1,2.7C168.2,94.7,167.2,95.1,166.2,95.1L166.2,95.1z M163,91.2c0,0.9,0.3,1.7,0.9,2.2c0.6,0.6,1.4,0.9,2.2,0.9l0,0
			c0.8,0,1.6-0.3,2.2-0.9s0.9-1.4,0.9-2.2c0-1.7-1.4-3.1-3.1-3.2l0,0c-0.8,0-1.6,0.3-2.2,0.9C163.4,89.6,163,90.4,163,91.2L163,91.2
			z"/>
	</g>
	<g>
		<path class="st1" d="M117.8,82.4c-0.8,0-1.6-0.3-2.4-0.9c-0.7-0.6-1.4-1.2-1.7-2.2c-0.3-1.1-0.1-2.2,0.6-3.1
			c0.9-1.1,1.9-2.2,3-3.5c1.1-1.2,2.5-1.5,4.1-0.9c0.1-0.1,0.2-0.2,0.2-0.2s-0.1-0.2-0.2-0.4v-0.1c-0.6-1.3-0.5-2.6,0.4-3.7
			s1.9-2.2,3-3.5c1.3-1.5,3.3-1.6,4.8-0.3l0.2,0.2c0.3,0.3,0.6,0.5,0.9,0.8c1.1,1.3,1.1,3.1,0,4.4c-0.9,1.1-1.9,2.3-3,3.5
			c-1.1,1.2-2.6,1.5-4,0.8l0,0c0,0,0,0,0,0.1s-0.1,0.1-0.1,0.1l-0.1,0.1l0,0c0.9,1.4,0.8,2.9-0.2,4.2c-0.9,1.1-1.9,2.2-2.8,3.3
			C119.7,82,118.7,82.4,117.8,82.4z M119.9,72.2c-0.8,0-1.5,0.3-2,1c-1.1,1.3-2.1,2.4-3,3.5c-0.6,0.7-0.8,1.5-0.5,2.5
			c0.2,0.8,0.8,1.3,1.5,1.9c1.4,1.1,3,1,4.1-0.3c0.9-1.1,1.9-2.2,2.8-3.3c0.9-1,1-2.3,0.2-3.4c-0.3-0.5,0-0.8,0.1-0.9
			c0,0,0-0.1,0.1-0.1c0.1-0.1,0.4-0.5,0.9-0.2c1.2,0.6,2.4,0.3,3.3-0.7c1.1-1.2,2-2.4,3-3.5c0.9-1,0.9-2.5,0-3.5
			c-0.2-0.3-0.5-0.5-0.8-0.8l-0.2-0.2c-1.2-1-2.9-0.9-3.9,0.3c-1.1,1.3-2.1,2.4-3,3.5c-0.7,0.9-0.8,1.9-0.3,3v0.1
			c0.3,0.7,0.3,0.9-0.2,1.4l-0.1,0.1l-0.2,0.1l-0.2-0.1C120.9,72.3,120.4,72.2,119.9,72.2z M117.8,80.4c-0.8,0-1.3-0.6-1.7-1.1
			c-0.1-0.1-0.1-0.1-0.2-0.2c-0.4-0.5-0.4-1.1,0.2-1.8c0.5-0.5,0.9-1.1,1.4-1.6s0.9-1.1,1.4-1.6c0.4-0.4,0.8-0.6,1.3-0.5l0.5,0.1
			l-0.2,0.4c-0.5,0.9-0.3,1.1-0.1,1.3c0.2,0.2,0.5,0.3,1.2-0.4l0.4-0.4l0.2,0.5c0.2,0.5,0.1,1-0.3,1.4c-0.7,0.8-1.3,1.6-2,2.3
			l-0.8,0.9c0,0.1-0.1,0.1-0.2,0.2c-0.1,0-0.1,0.1-0.2,0.1c-0.2,0.1-0.4,0.3-0.7,0.3C117.9,80.4,117.8,80.4,117.8,80.4z M119.5,74.4
			L119.5,74.4c-0.6,0.6-1,1.2-1.5,1.7s-0.9,1.1-1.4,1.6c-0.5,0.6-0.3,0.9-0.3,1c0.1,0.1,0.1,0.1,0.2,0.2c0.4,0.5,0.7,0.9,1.3,0.8
			c0.1,0,0.2-0.1,0.3-0.2c0.1,0,0.1-0.1,0.2-0.1l0,0c0,0,0-0.1,0.1-0.1l0.7-0.9c0.7-0.8,1.3-1.6,2-2.3c0-0.1,0.1-0.1,0.1-0.2
			c-0.4,0.2-0.9,0.3-1.4-0.1C119.3,75.5,119.3,74.9,119.5,74.4z M118.4,79.4L118.4,79.4L118.4,79.4z M125.3,71.7c-0.1,0-0.2,0-0.3,0
			l-0.5-0.1l0.4-0.6c0.1-0.1,0.1-0.1,0.2-0.2c0.1-0.2,0.3-0.3,0.4-0.5c0.3-0.3,0.6-0.6,0.8-1c0.2-0.3,0.2-0.7-0.1-1
			c-0.3-0.2-0.7-0.2-0.9,0.1c-0.3,0.4-0.7,0.8-1,1.2c-0.2,0.2-0.3,0.4-0.5,0.5l-0.4,0.5l-0.2-0.6c-0.1-0.5,0-1,0.3-1.3l0.1-0.2
			c0.9-1.1,1.8-2.1,2.7-3.2c0.6-0.7,1.3-0.7,2-0.2c0.2,0.2,0.5,0.4,0.7,0.6c0.6,0.5,0.7,1.4,0.2,1.9c-1.1,1.3-2.2,2.5-3,3.5
			C126,71.5,125.7,71.7,125.3,71.7z M125.7,67.6c0.3,0,0.6,0.1,0.8,0.3c0.4,0.4,0.6,0.9,0.4,1.5c0.6-0.6,1.2-1.3,1.8-2.1
			c0.3-0.3,0.2-0.7-0.1-1c-0.2-0.2-0.4-0.4-0.7-0.6c-0.4-0.3-0.8-0.3-1.1,0.1c-0.6,0.6-1.1,1.3-1.7,1.9
			C125.4,67.6,125.6,67.6,125.7,67.6z"/>
	</g>
	<g>
		<path class="st1" d="M165.9,80.9c-1.1,0-2-0.5-2.7-1.4c-0.8-1.2-1.7-2.5-2.6-4c-0.7-1.2-0.6-2.7,0.3-3.8l0.1-0.1l-0.2-0.3
			c-0.8,0.2-1.5,0.2-2.2-0.1c-0.7-0.3-1.2-0.7-1.6-1.3l-0.3-0.4c-0.7-1.1-1.4-2.2-2.2-3.4c-1-1.6-0.6-3.6,1-4.6l0.1-0.1
			c0.5-0.3,1.1-0.7,1.7-0.9c1.3-0.4,2.8,0.2,3.6,1.4c0.9,1.4,1.7,2.6,2.4,3.7c0.8,1.3,0.7,2.9-0.3,4.1l0,0c0.1,0.1,0.1,0.2,0.2,0.2
			c0,0,0.2,0,0.4-0.1c1.3-0.3,2.7,0.3,3.4,1.4c0.9,1.4,1.7,2.6,2.5,3.8c1,1.5,0.6,3.5-0.9,4.5l-0.2,0.1c-0.6,0.4-1.3,0.9-2.1,1
			C166.3,80.8,166.1,80.9,165.9,80.9z M161.2,70.5l0.7,1.1l-0.2,0.3c-0.1,0.1-0.1,0.1-0.1,0.2c-0.8,0.9-0.9,2.1-0.3,3.1
			c0.9,1.5,1.8,2.8,2.6,4c0.6,0.8,1.4,1.2,2.5,1.1c0.7-0.1,1.2-0.5,1.8-0.9l0.2-0.1c1.2-0.8,1.5-2.4,0.8-3.6
			c-0.8-1.2-1.6-2.5-2.5-3.8c-0.6-0.9-1.7-1.4-2.7-1.1c-0.8,0.2-0.9,0.1-1.3-0.6c0-0.1-0.1-0.1-0.1-0.2l-0.1-0.2l0.2-0.2l0.1-0.1
			c0.8-1,0.9-2.2,0.2-3.3c-0.7-1.2-1.5-2.4-2.4-3.7c-0.6-1-1.8-1.4-2.9-1.1c-0.5,0.2-1,0.5-1.5,0.8l-0.1,0.1
			c-1.3,0.8-1.7,2.4-0.8,3.7c0.7,1.1,1.4,2.2,2.2,3.3l0.3,0.4c0.3,0.5,0.7,0.8,1.3,1s1.3,0.2,2,0L161.2,70.5z M165.9,78.9
			c-0.4,0-0.8-0.2-1-0.6c-0.8-1.2-1.6-2.4-2.3-3.6l-0.2-0.3c-0.3-0.4-0.3-0.8,0-1.2l0.3-0.5l0.3,0.5c0.1,0.2,0.3,0.4,0.4,0.6
			c0.3,0.4,0.5,0.8,0.8,1.2c0.1,0.2,0.3,0.3,0.5,0.3s0.4-0.1,0.5-0.2c0.2-0.2,0.2-0.6,0-0.9c-0.2-0.4-0.5-0.8-0.8-1.2l-0.7-1h0.6
			c0.5,0,0.8,0.2,1.1,0.5c0.7,1.1,1.6,2.4,2.5,3.8c0.4,0.6,0.2,1.3-0.3,1.7c-0.3,0.2-0.6,0.4-1,0.6
			C166.4,78.8,166.2,78.9,165.9,78.9z M164,75.8c0.5,0.7,0.9,1.4,1.4,2.1c0.2,0.3,0.5,0.4,0.8,0.2c0.3-0.2,0.6-0.4,0.9-0.6
			c0.3-0.2,0.3-0.6,0.2-0.8c-0.5-0.7-0.9-1.4-1.3-2.1c0,0.4-0.1,0.7-0.4,1c-0.3,0.3-0.7,0.4-1.1,0.4C164.4,75.9,164.2,75.9,164,75.8
			z M160.4,69.4h-0.5c-0.5,0-0.8-0.2-1.1-0.6l-0.1-0.2c-0.7-1.2-1.5-2.3-2.3-3.5c-0.4-0.7-0.3-1.4,0.4-1.9c0.3-0.2,0.6-0.4,0.8-0.5
			c0.7-0.4,1.4-0.2,1.8,0.4c0.7,1.1,1.4,2.2,2.1,3.3l0.2,0.3c0.3,0.4,0.3,0.8,0.2,1.2l-0.1,0.3l-0.3-0.2c-0.1-0.1-0.2-0.1-0.3-0.2
			c-0.2-0.1-0.4-0.3-0.6-0.3c0,0-0.2,0-0.4,0.1s-0.5,0.3,0,1.2L160.4,69.4z M158.3,63.1c-0.1,0-0.2,0-0.4,0.1s-0.5,0.3-0.8,0.5
			c-0.4,0.3-0.4,0.6-0.2,1c0.7,1.2,1.5,2.4,2.3,3.5l0.1,0.2c-0.1-0.5,0-0.9,0.5-1.2c0.2-0.1,0.6-0.3,0.9-0.2
			c0.2,0.1,0.3,0.1,0.5,0.2c0,0,0,0,0-0.1l-0.2-0.3c-0.7-1.1-1.4-2.2-2.1-3.3C158.7,63.2,158.5,63.1,158.3,63.1z"/>
	</g>
	<g>
		<path class="st1" d="M114.6,98.4l-0.2-1l-0.6-0.1l-0.4,0.9l-2.2-0.8l0.3-1L111,96l-0.8,0.7l-1.6-1.8l0.8-0.8l-0.2-0.5l-1.1,0.3
			l-0.6-2.3l1.1-0.3c0-0.1,0-0.3,0-0.4c0,0,0,0,0-0.1c-0.1,0-0.3-0.1-0.5-0.1c-0.1,0-0.2,0-0.3-0.1l-0.3-0.1l0.5-2.3l0.6,0.1
			c0.2,0,0.4,0.1,0.5,0.1l0,0l0,0l0,0c0.1-0.2,0.2-0.4,0.2-0.5s-0.2-0.2-0.4-0.4l-0.1-0.1l-0.3-0.3l1.5-1.8l0.8,0.7l0,0
			c0.2-0.1,0.3-0.2,0.5-0.3l0,0c0-0.1-0.1-0.3-0.2-0.5c0-0.1-0.1-0.2-0.1-0.2l-0.1-0.3l2.2-0.9l0.4,1l0.5-0.1l0.1-1l2.3,0.2
			l-0.1,0.9l0.6,0.2l0.5-0.8l2,1.3l-0.5,0.7l0.6,0.5l0.7-0.3l1.1,2.1l-0.7,0.4l0,0c0,0.2,0.1,0.4,0.2,0.6c0.1,0,0.2,0,0.3,0
			c0.1,0,0.1,0,0.2,0h0.3v2.4h-0.7L121,93l0.7,0.4l-1.1,2.1l-0.7-0.4l-0.5,0.6l0.4,0.7l-1.9,1.3l-0.5-0.7c0,0,0,0-0.1,0
			c-0.2,0.1-0.4,0.1-0.5,0.2l0,0v0.1c0,0.2,0.1,0.4,0,0.6l-0.1,0.2L114.6,98.4z M113.4,96.6l1.5,0.2l0.1,0.8l1.1-0.1l0,0
			c-0.1-0.2-0.2-0.6,0.3-0.9c0.2-0.1,0.5-0.2,0.7-0.3c0.1,0,0.2-0.1,0.3-0.1l0.2-0.1l0.4,0.6l0.9-0.6l-0.4-0.6l1.2-1.3l0.6,0.3
			l0.5-1l-0.6-0.3l0.4-1.6h0.6v-1.1c-0.1,0-0.2,0-0.3,0c-0.2,0-0.4-0.2-0.5-0.4c-0.1-0.2-0.1-0.5-0.2-0.7l-0.1-0.5l0.6-0.3l-0.5-1
			l-0.5,0.2l-1.4-1.1l0.4-0.7l-0.9-0.6l-0.4,0.6l-1.5-0.5l0.1-0.8l-1.1-0.1l-0.1,0.9l-1.5,0.2l-0.3-0.8l-1,0.4
			c0.1,0.2,0.1,0.3,0.2,0.5s0,0.5-0.2,0.7s-0.4,0.3-0.6,0.4c-0.1,0-0.1,0.1-0.2,0.1l-0.2,0.1l-0.7-0.6l-0.7,0.8
			c0.6,0.6,0.7,0.8,0.3,1.6l0,0c-0.2,0.4-0.4,0.5-0.8,0.4c-0.1,0-0.3-0.1-0.5-0.1l-0.2,1c0.2,0,0.4,0.1,0.6,0.2s0.4,0.3,0.4,0.6
			c0,0.2,0,0.4,0,0.6c0,0.1,0,0.1,0,0.2V92l-1,0.3l0.3,1l1-0.2l0.7,1.4l-0.7,0.7l0.7,0.8l0.7-0.6l1.3,1l-0.3,0.9l1,0.4L113.4,96.6z
			 M115,94.4c-0.8,0-1.6-0.3-2.2-0.9s-1-1.4-1-2.2c0-0.9,0.3-1.7,0.9-2.4c0.6-0.6,1.4-1,2.3-1c1.7-0.1,3.2,1.4,3.3,3.1
			c0,0.9-0.3,1.7-0.9,2.3c-0.6,0.6-1.4,1-2.3,1l0,0C115.1,94.4,115,94.4,115,94.4z M115,88.6L115,88.6c-0.8,0-1.4,0.3-1.9,0.8
			s-0.7,1.2-0.7,1.9c0,0.7,0.3,1.3,0.8,1.8s1.1,0.7,1.8,0.7l0,0c0.7,0,1.4-0.3,1.9-0.8s0.7-1.2,0.7-1.9
			C117.6,89.7,116.4,88.6,115,88.6z"/>
	</g>
</g>
<g>
	<path class="st1" d="M130.2,91c0.6-1,1.5-1.5,2.6-1.5c1.4-0.1,3-0.1,4.8-0.1c1.4,0,2.6,0.9,3.1,2.3v0.1h0.3
		c0.2-0.8,0.6-1.4,1.2-1.9c0.6-0.4,1.2-0.7,2-0.7h0.5c1.3,0,2.7,0,4-0.1c1.9,0,3.4,1.4,3.4,3.3v0.1c0,0.6,0,1.3-0.2,1.9
		c-0.4,1.4-1.6,2.3-3.1,2.3c-1.6,0-3.1,0.1-4.5,0.1c-1.6,0-2.8-0.9-3.3-2.4l0,0c-0.1,0-0.2,0-0.3,0c0,0-0.1,0.2-0.2,0.4
		c-0.5,1.2-1.7,2.1-3,2.1c-1.6,0-3.1,0.1-4.6,0.1c-1.8,0-3.2-1.4-3.3-3.2v-0.2c0-0.7-0.1-1.5,0.3-2.3C130,91.3,130.1,91.1,130.2,91z
		 M141.5,92.5h-1.3l-0.1-0.4c0-0.1,0-0.1-0.1-0.2c-0.4-1.1-1.3-1.9-2.5-1.9c-1.8,0-3.3,0-4.8,0.1c-1,0-1.8,0.6-2.2,1.6
		c-0.3,0.6-0.3,1.3-0.2,2v0.2c0.1,1.5,1.2,2.6,2.7,2.6c1.4,0,2.9,0,4.6-0.1c1.1,0,2.1-0.7,2.4-1.7c0.3-0.7,0.4-0.8,1.2-0.8
		c0.1,0,0.1,0,0.2,0h0.2l0.1,0.3v0.1c0.4,1.3,1.4,2,2.7,2c1.4,0,2.8,0,4.4-0.1c1.2,0,2.2-0.8,2.5-1.8c0.1-0.5,0.1-1.1,0.1-1.7v-0.1
		c0-1.6-1.2-2.7-2.7-2.7c-1.3,0-2.7,0-4,0.1h-0.5c-0.6,0-1.1,0.2-1.6,0.5c-0.6,0.4-0.9,1-1.1,1.7L141.5,92.5z M131.9,92.1
		c0.2-0.3,0.6-0.6,1-0.6c1.4,0,2.9-0.1,4.3-0.1h0.3c0.5,0,0.8,0.2,1.1,0.6l0.3,0.5h-0.5c-0.2,0-0.5,0-0.7,0c-0.5,0-1,0-1.5,0
		c-0.2,0-0.4,0.1-0.5,0.3c-0.1,0.2-0.2,0.4-0.1,0.6c0.1,0.3,0.3,0.5,0.7,0.5c0.5,0,0.9,0,1.4,0h1.2l-0.3,0.5c-0.2,0.4-0.6,0.6-1,0.6
		c-1.3,0-2.9,0.1-4.6,0.1c-0.7,0-1.2-0.5-1.3-1.2c0-0.4,0-0.8,0-1.2C131.7,92.5,131.8,92.2,131.9,92.1z M135.5,92.1
		c-0.8,0-1.7,0-2.6,0c-0.3,0-0.6,0.3-0.6,0.6c0,0.4,0,0.7,0,1.1c0,0.3,0.3,0.6,0.6,0.6c0.9,0,1.7,0,2.5,0c-0.3-0.2-0.5-0.5-0.6-0.8
		c-0.1-0.4,0-0.8,0.2-1.1C135.2,92.3,135.3,92.2,135.5,92.1z M142.9,92.3l0.3-0.4c0.3-0.4,0.6-0.6,1.1-0.6h0.2c1.4,0,2.8,0,4.2-0.1
		c0.8,0,1.3,0.5,1.4,1.3c0,0.4,0,0.7,0,1c0,0.8-0.6,1.3-1.3,1.3c-1.3,0-2.6,0-3.9,0.1h-0.4c-0.5,0-0.9-0.1-1.1-0.5l-0.2-0.3l0.3-0.2
		c0.1-0.1,0.2-0.1,0.3-0.2c0.2-0.1,0.5-0.2,0.6-0.4c0,0,0.1-0.2,0.1-0.4c0-0.2,0-0.5-1-0.7L142.9,92.3z M149.3,93.9
		c0.1-0.1,0.1-0.2,0.1-0.4c0-0.3,0-0.6,0-0.9c0-0.4-0.3-0.7-0.7-0.7c-1.4,0-2.8,0-4.2,0.1h-0.2c0.4,0.2,0.8,0.5,0.8,1.1
		c0,0.2,0,0.7-0.3,0.9c-0.1,0.1-0.3,0.2-0.5,0.3h0.1h0.4c1.3,0,2.6,0,3.9-0.1C149,94.2,149.2,94.1,149.3,93.9z"/>
</g>
</svg>
