<?xml version="1.0" encoding="utf-8"?>
<!-- Generator: Adobe Illustrator 24.0.3, SVG Export Plug-In . SVG Version: 6.00 Build 0)  -->
<svg version="1.1" id="Layer_1" xmlns="http://www.w3.org/2000/svg" xmlns:xlink="http://www.w3.org/1999/xlink" x="0px" y="0px"
	 viewBox="0 0 282 138" style="enable-background:new 0 0 282 138;" xml:space="preserve">
<style type="text/css">
	.st0{fill:#353535;}
	.st1{fill:#FFFFFF;}
</style>
<rect class="st0" width="282" height="138"/>
<title>illo-sm-xl-design</title>
<g>
	<path class="st1" d="M114.4,63.4c0.1-1,0.3-2,0.4-3.1C115,59,115.5,58,117,58c1.4,0,2,1,2.2,2.3c0.1,1,0.3,2.1,0.7,3.2
		c0.8-1.9,1.6-3.8,2.3-5.8c0.5-1.4,1.1-1.9,2.6-1.2c1.3,0.6,2.7,1.1,4.1,1.6c2.3,0.8,3.4,2.4,3.4,4.9c0,0.8,0,1.6,0,2.5
		c0.7-0.2,1.1-0.3,1.5-0.4c1-0.5,1.6-0.1,2,0.9c0.8,2,1.6,4.1,2.8,6.1c0.2-1.2,0.1-2.4,0.6-3.4c0.3-0.8,1.2-1.7,2-1.9
		c1.1-0.2,1.9,0.7,2.1,1.9c0.2,1.1,0.3,2.3,0.8,3.5c0.6-1.5,1.2-3,1.8-4.4C147,65,147,65,150,65.5c0-0.9,0-1.8,0-2.7
		c0-2.1,1-3.5,2.9-4.3c1.7-0.6,3.3-1.2,5-1.9c1-0.5,1.6-0.2,2,0.9c0.8,2.1,1.7,4.1,2.6,6.1c0,0,0.1,0,0.3,0.1
		c0.1-1.1,0.3-2.1,0.4-3.2c0.1-1.2,0.7-2.1,2-2.2c1.4-0.1,2.1,0.9,2.2,2.2c0.1,1,0.3,2,0.8,3.2c0.8-1.9,1.6-3.8,2.3-5.8
		c0.5-1.3,1.1-1.7,2.5-1.1c1.5,0.7,3.1,1.2,4.6,1.8c1.9,0.8,2.9,2.2,2.9,4.3c0,5.8,0,11.5,0,17.3c0,1.5-0.6,1.7-1.9,1.7
		c-6.8,0-13.6,0-20.4,0c-0.5,0-1,0-1.7,0c0,2.3-0.1,4.5,0,6.7c0.1,1.5-0.4,2.1-2,2.1c-8.8-0.1-17.7-0.1-26.5,0c-1.7,0-2.1-0.6-2-2.2
		c0.1-2.4,0-4.8,0-7.4c-0.8,0-1.4,0-2.1,0c-6.6,0-13.2,0-19.9,0c-1.6,0-2.1-0.5-2.1-2.1c0.1-5.2,0-10.4,0-15.6c0-2.8,0.8-3.9,3.4-5
		c1.4-0.5,2.8-1,4.1-1.6c1.2-0.6,1.9-0.3,2.4,1c0.7,2,1.6,3.9,2.4,5.9C114.2,63.5,114.3,63.5,114.4,63.4z M166,80
		c4.2,0,8.3,0,12.6,0c0-5.9,0.1-11.7-0.1-17.5c0-0.8-0.9-1.9-1.7-2.3c-1.5-0.8-3.1-1.3-4.9-1.9c-1.5,3.7-2.7,7.3-4.4,10.7
		C165.8,72.5,165.7,76.1,166,80z M127.5,88.6c4.3,0,8.4,0,12.6,0c0-2.4,0.6-4.9-0.1-7c-1.6-5-3.8-9.8-5.8-14.8
		c-1.8,0.7-3.6,1.3-5.2,2.1c-0.6,0.3-1.3,1.3-1.4,2C127.5,76.8,127.5,82.6,127.5,88.6z M154.5,88.6c0-6,0.1-11.8-0.1-17.6
		c0-0.7-0.7-1.8-1.4-2.1c-1.6-0.8-3.3-1.4-5.1-2.1c-1.7,4.2-3.1,8.2-4.9,12.1c-1.5,3.2-1,6.4-1.1,9.8
		C146.1,88.6,150.2,88.6,154.5,88.6z M116.1,79.1c0-3.2,0.3-6.1-1.1-9c-1.3-2.5-2.2-5.2-3.2-7.8c-0.6-1.4-1.1-2.8-1.7-4.2
		c-1.6,0.6-3,1.2-4.5,1.7c-1.6,0.5-2.2,1.6-2.2,3.2c0,3.6,0,7.2,0,10.9c0,1.7,0,3.4,0,5.2C107.7,79.1,111.8,79.1,116.1,79.1z
		 M158.2,58.2c-1.6,0.6-2.9,1.1-4.2,1.6c-0.2,0.1-0.6,0.1-0.7,0.3c-0.6,0.9-1.4,1.7-1.8,2.7c-0.3,0.6,0,1.5-0.1,2.2
		c-0.1,1.1,0.3,1.6,1.3,2c2.7,1,3.4,2.2,3.4,5.1c0,2.6,0,5.2,0,7.9c2.8,0,5.3,0,7.8,0c0-2.5,0.6-5-0.1-7.2
		C162.4,67.9,160.2,63.2,158.2,58.2z M123.9,58.1c-1.9,4.6-3.9,9-5.4,13.6c-0.8,2.3-0.6,4.8-0.9,7.5c2.5,0,4.4,0,6.4,0
		c0.5,0,1.1-0.1,1.8-0.1c0-2.3,0.1-4.6,0-6.8c-0.1-2.7,0.9-4.6,3.6-5.5c0.5-0.2,1.1-1.1,1.1-1.7c0.2-4.3,0.2-4.4-3.8-5.9
		C125.8,58.9,124.9,58.6,123.9,58.1z M117,70.4c1.4-2.7,1.3-8.5-0.3-10.5C116.6,63.3,114.6,66.7,117,70.4z M165,70.4
		c2.2-3.7,0.5-7.1,0-10.5C164.6,63.4,162.7,66.8,165,70.4z M141,79.1c2.3-3.6,0.6-7-0.1-10.5C140.5,72,138.6,75.5,141,79.1z"/>
	<path class="st1" d="M157.6,49.2c0-4.1,3.3-7.5,7.4-7.5c4.1,0,7.5,3.3,7.5,7.5c0,4.1-3.4,7.5-7.5,7.5
		C160.9,56.5,157.7,53.2,157.6,49.2z M165,54.8c3.2,0,5.8-2.6,5.8-5.8s-2.6-5.7-5.7-5.7c-3.2,0-5.9,2.6-5.8,5.8
		C159.3,52.3,161.9,54.8,165,54.8z"/>
	<path class="st1" d="M141.2,50.3c4.1,0.1,7.4,3.5,7.3,7.6c-0.1,4.1-3.6,7.3-7.7,7.2c-4-0.1-7.3-3.5-7.2-7.5
		C133.6,53.5,137,50.2,141.2,50.3z M146.8,57.8c0-3.2-2.4-5.8-5.6-5.9c-3.2-0.1-5.9,2.5-5.9,5.7s2.6,5.9,5.8,5.9
		C144.1,63.5,146.7,61,146.8,57.8z"/>
	<path class="st1" d="M117,56.5c-4.1,0-7.5-3.3-7.5-7.4s3.3-7.5,7.5-7.5c4,0,7.3,3.3,7.4,7.3C124.4,53.1,121.2,56.4,117,56.5z
		 M122.8,49c0-3.1-2.6-5.7-5.7-5.7c-3.2,0-5.9,2.6-5.8,5.8c0,3.2,2.7,5.8,5.9,5.7C120.2,54.8,122.8,52.1,122.8,49z"/>
	<path class="st1" d="M161.7,96.4h-59.1c-0.4,0-0.8-0.3-0.8-0.8v-0.2c0-0.4,0.3-0.8,0.8-0.8h59.1c0.4,0,0.8,0.3,0.8,0.8v0.2
		C162.5,96,162.1,96.4,161.7,96.4z"/>
	<path class="st1" d="M171.6,96.4h-5.2c-0.4,0-0.8-0.3-0.8-0.8v-0.2c0-0.4,0.3-0.8,0.8-0.8h5.2c0.4,0,0.8,0.3,0.8,0.8v0.2
		C172.3,96.1,172,96.4,171.6,96.4z"/>
	<path class="st1" d="M179.4,96.4h-3.6c-0.4,0-0.8-0.3-0.8-0.8v-0.2c0-0.4,0.3-0.8,0.8-0.8h3.6c0.4,0,0.8,0.3,0.8,0.8v0.2
		C180.2,96,179.8,96.4,179.4,96.4z"/>
</g>
</svg>
