<?xml version="1.0" encoding="utf-8"?>
<!-- Generator: Adobe Illustrator 24.0.3, SVG Export Plug-In . SVG Version: 6.00 Build 0)  -->
<svg version="1.1" id="Layer_1" xmlns="http://www.w3.org/2000/svg" xmlns:xlink="http://www.w3.org/1999/xlink" x="0px" y="0px"
	 viewBox="0 0 282 138" style="enable-background:new 0 0 282 138;" xml:space="preserve">
<style type="text/css">
	.st0{fill:#2667F8;}
	.st1{fill-rule:evenodd;clip-rule:evenodd;fill:#2B5468;}
	.st2{fill-rule:evenodd;clip-rule:evenodd;fill:#FFCC0D;}
	.st3{fill-rule:evenodd;clip-rule:evenodd;fill:#436E7C;}
	.st4{fill-rule:evenodd;clip-rule:evenodd;fill:#F3756C;}
	.st5{fill-rule:evenodd;clip-rule:evenodd;fill:#1D4354;}
</style>
<title>illo-sm-xl-cs</title>
<rect class="st0" width="282" height="138"/>
<g>
	<path class="st1" d="M172,72.7V62c0-17.1-13.9-31-31-31s-31,13.9-31,31v8.6l4.3,3.5V62c-0.3-14.8,11.5-27,26.2-27.3
		c14.8-0.3,27,11.5,27.3,26.2c0,0.3,0,0.7,0,1v9.6L172,72.7z"/>
</g>
<g>
	<path class="st1" d="M113.1,96.6h-2.7c-4.2,0-6.4-5.8-6.4-13s2.4-13,6.4-13h2.7"/>
</g>
<path class="st2" d="M138.6,106c-0.8,0-1.5-0.7-1.5-1.5s0.7-1.5,1.5-1.5h23.2c4.5,0,6.7-1.9,6.7-5.7v-0.9c0-0.8,0.7-1.5,1.5-1.5
	s1.5,0.7,1.5,1.5l0,0v0.9c0,5.4-3.6,8.7-9.7,8.7L138.6,106L138.6,106z"/>
<path class="st3" d="M115.3,70.6H112v26h3.3c1.3,0,2.3-1,2.3-2.3l0,0V72.9C117.6,71.7,116.6,70.6,115.3,70.6
	C115.3,70.6,115.3,70.6,115.3,70.6"/>
<path class="st1" d="M169,70.6h2.8c4.2,0,6.4,5.8,6.4,13s-2.4,13-6.4,13H169"/>
<path class="st3" d="M166.8,96.6h3.3v-26h-3.3c-1.3,0-2.3,1-2.3,2.3v21.4C164.5,95.6,165.6,96.6,166.8,96.6"/>
<path class="st4" d="M144,107.4h-7.8c-0.3,0-0.5-0.2-0.5-0.5v-5.4c0-0.3,0.2-0.5,0.5-0.5h7.8c0.3,0,0.5,0.2,0.5,0.5v5.4
	C144.5,107.3,144.3,107.5,144,107.4"/>
<g>
	<path class="st5" d="M197.8,304.7c0,1.9-1.6,3.5-3.5,3.4c-1.9,0-3.5-1.6-3.4-3.5c0-1.9,1.6-3.4,3.5-3.4
		C196.2,301.2,197.8,302.8,197.8,304.7C197.8,304.7,197.8,304.7,197.8,304.7"/>
</g>
</svg>
