<?xml version="1.0" encoding="utf-8"?>
<!-- Generator: Adobe Illustrator 24.0.3, SVG Export Plug-In . SVG Version: 6.00 Build 0)  -->
<svg version="1.1" id="Layer_1" xmlns="http://www.w3.org/2000/svg" xmlns:xlink="http://www.w3.org/1999/xlink" x="0px" y="0px"
	 viewBox="0 0 282 138" style="enable-background:new 0 0 282 138;" xml:space="preserve">
<style type="text/css">
	.st0{fill-rule:evenodd;clip-rule:evenodd;fill:#2667F8;}
	.st1{fill-rule:evenodd;clip-rule:evenodd;fill:#2B5468;}
	.st2{fill-rule:evenodd;clip-rule:evenodd;fill:#FFCC0D;}
	.st3{fill-rule:evenodd;clip-rule:evenodd;fill:#F3756C;}
	.st4{fill-rule:evenodd;clip-rule:evenodd;fill:#FFFFFF;}
</style>
<rect class="st0" width="282" height="138"/>
<title>illo-sm-xl-design</title>
<g>
	<g>
		<path class="st1" d="M168.6,57.7c-0.1-15.3-12.4-27.6-27.7-27.5c-15.3,0.1-27.6,12.4-27.5,27.7c0.1,10.2,5.8,19.7,14.8,24.4
			c0.7,0.5,1.2,1.2,1.2,2l1.9,7.7c0.2,1,1.1,1.9,2.2,1.9h14.8c1.1,0,2-0.8,2.2-1.8l1.9-7.7c0.1-0.8,0.5-1.6,1.2-2
			C162.8,77.5,168.6,68,168.6,57.7"/>
	</g>
	<g>
		<polygon class="st2" points="132.3,101.7 149.8,101.7 149.8,97.6 132.3,97.6 		"/>
	</g>
	<g>
		<polygon class="st3" points="132.3,107.8 149.8,107.8 149.8,103.7 132.3,103.7 		"/>
	</g>
	<g>
		<path class="st4" d="M142.2,62.4c-3.3,0.7-6.5-1.4-7.1-4.7s1.4-6.5,4.7-7.1c3.3-0.7,6.5,1.4,7.1,4.7c0.1,0.8,0.1,1.6,0,2.4
			C146.4,60,144.6,62,142.2,62.4z M156.1,52.7c-0.1-0.5-0.5-1-1.1-1h-0.1l-2.1,0.3l-0.3-0.2c-0.3-0.8-0.7-1.5-1.1-2.1
			c-0.1-0.1-0.1-0.3,0-0.5l1.2-1.4c0.4-0.4,0.5-1.1,0.1-1.6c0,0,0,0-0.1-0.1l-3.6-3c-0.4-0.3-1-0.3-1.4,0.1c0,0,0,0.1-0.1,0.1
			l-1.2,1.5c-0.1,0.1-0.3,0.2-0.5,0.1c-0.8-0.3-1.5-0.5-2.3-0.7c-0.2-0.1-0.3-0.2-0.3-0.4l-0.1-1.9c0-0.5-0.4-1-1-1
			c-0.1,0-0.1,0-0.1,0l-4.6,0.4c-0.5,0-1,0.5-1,1.1v0.1l0.1,1.9c0,0.2-0.1,0.3-0.3,0.4c-0.8,0.3-1.4,0.7-2.1,1.1
			c-0.1,0.1-0.3,0.1-0.5,0l-1.4-1.2c-0.4-0.4-1.1-0.5-1.5-0.1l-0.1,0.1l-3,3.6c-0.3,0.4-0.3,1,0.1,1.4c0,0,0.1,0,0.1,0.1l1.5,1.2
			c0.1,0.1,0.2,0.3,0.1,0.5c-0.3,0.8-0.5,1.6-0.8,2.4l-0.1,0.1l-2.3,0.3c-0.6,0-1.1,0.5-1.1,1.1v0.1l0.5,4.7c0.1,0.5,0.5,1,1.1,1
			h0.1l2-0.2c0.2,0,0.3,0.1,0.4,0.3c0.3,0.8,0.7,1.4,1.2,2.1c0.1,0.1,0.1,0.3,0,0.5l-1.2,1.5c-0.3,0.4-0.3,1,0.1,1.4
			c0,0,0.1,0,0.1,0.1l3.5,3c0.4,0.3,1,0.3,1.4-0.1c0,0,0-0.1,0.1-0.1l1.2-1.5c0.1-0.1,0.3-0.2,0.5-0.1c0.8,0.3,1.5,0.5,2.3,0.7
			c0.2,0.1,0.3,0.2,0.3,0.4l0.3,2c0,0.5,0.5,1,1,1h0.1l4.6-0.4c0.5-0.1,1-0.5,1-1.2l-0.2-1.9c0-0.2,0.1-0.3,0.3-0.4
			c0.8-0.3,1.4-0.7,2.1-1.1c0.1-0.1,0.3-0.1,0.5,0l1.4,1.2c0.4,0.4,1.1,0.5,1.5,0.1l0.1-0.1l3-3.6c0.3-0.4,0.3-1-0.1-1.4
			c0,0-0.1,0-0.1-0.1l-1.5-1.2c-0.1-0.1-0.2-0.3-0.1-0.5c0.3-0.8,0.5-1.6,0.7-2.3l0.1-0.1l2.3-0.3c0.5-0.1,1-0.5,1-1.1v-0.1
			L156.1,52.7z"/>
	</g>
</g>
</svg>
