<?xml version="1.0" encoding="utf-8"?>
<!-- Generator: Adobe Illustrator 24.0.3, SVG Export Plug-In . SVG Version: 6.00 Build 0)  -->
<svg version="1.1" id="Layer_1" xmlns="http://www.w3.org/2000/svg" xmlns:xlink="http://www.w3.org/1999/xlink" x="0px" y="0px"
	 viewBox="0 0 282 138" style="enable-background:new 0 0 282 138;" xml:space="preserve">
<style type="text/css">
	.st0{fill-rule:evenodd;clip-rule:evenodd;fill:#2667F8;}
	.st1{fill-rule:evenodd;clip-rule:evenodd;fill:#2B5468;}
	.st2{fill-rule:evenodd;clip-rule:evenodd;fill:#3995D3;}
	.st3{fill-rule:evenodd;clip-rule:evenodd;fill:#FFFFFF;}
	.st4{fill-rule:evenodd;clip-rule:evenodd;fill:#FFCC0D;}
	.st5{fill-rule:evenodd;clip-rule:evenodd;fill:#F3756C;}
	.st6{fill-rule:evenodd;clip-rule:evenodd;fill:#1D4354;}
</style>
<rect class="st0" width="282" height="138"/>
<title>illo-sm-xl-dev</title>
<g>
	<path class="st1" d="M191.5,101.5H84.9c-0.5,0-0.8-0.3-0.8-0.8l0,0V42.4h108.4v58.4C192.4,101.2,192,101.5,191.5,101.5
		C191.6,101.5,191.5,101.5,191.5,101.5"/>
	<g>
		<path class="st2" d="M192.4,42.5H84.1v-10c0-0.5,0.3-0.8,0.8-0.8l0,0h106.6c0.5,0,0.8,0.3,0.8,0.8l0,0L192.4,42.5L192.4,42.5z"/>
	</g>
	<path class="st3" d="M90.8,37.2c0,0.6-0.5,1.1-1.1,1.1c-0.6,0-1.1-0.5-1.1-1.1c0-0.6,0.5-1.1,1.1-1.1l0,0
		C90.4,36.1,90.8,36.6,90.8,37.2L90.8,37.2"/>
	<path class="st3" d="M96.5,37.2c0,0.6-0.5,1.1-1.1,1.1c-0.6,0-1.1-0.5-1.1-1.1c0-0.6,0.5-1.1,1.1-1.1l0,0
		C96,36.1,96.5,36.6,96.5,37.2L96.5,37.2"/>
	<path class="st3" d="M102.1,37.2c0,0.6-0.5,1.1-1.1,1.1c-0.6,0-1.1-0.5-1.1-1.1c0-0.6,0.5-1.1,1.1-1.1l0,0
		C101.6,36.1,102.1,36.6,102.1,37.2"/>
	<path class="st4" d="M107.3,72.3h-6.1c-0.3,0.1-0.7-0.2-0.7-0.6c-0.1-0.3,0.2-0.7,0.6-0.7c0.1,0,0.1,0,0.1,0h6.1
		c0.3-0.1,0.7,0.2,0.7,0.6c0.1,0.3-0.2,0.7-0.6,0.7C107.4,72.4,107.3,72.4,107.3,72.3"/>
	<path class="st4" d="M155.8,72.3h-6.2c-0.3,0.1-0.7-0.2-0.7-0.6c-0.1-0.3,0.2-0.7,0.6-0.7c0.1,0,0.1,0,0.1,0h6.1
		c0.3,0.1,0.6,0.3,0.6,0.7C156.3,72.1,156.1,72.3,155.8,72.3"/>
	<path class="st4" d="M114.4,78.1h-13.2c-0.3,0-0.6-0.3-0.6-0.6l0,0c0-0.3,0.3-0.6,0.6-0.6h13.2c0.3,0,0.6,0.3,0.6,0.6
		S114.7,78.1,114.4,78.1"/>
	<path class="st5" d="M146.5,78.1h-28.8c-0.3,0-0.6-0.3-0.6-0.6l0,0c0-0.3,0.3-0.6,0.6-0.6h28.7c0.3,0,0.6,0.3,0.6,0.6
		C147.2,77.8,146.9,78.1,146.5,78.1L146.5,78.1"/>
	<path class="st5" d="M146.5,72.3h-29.7c-0.3,0.1-0.7-0.2-0.7-0.6c-0.1-0.3,0.2-0.7,0.6-0.7c0.1,0,0.1,0,0.1,0h29.7
		c0.3,0.1,0.6,0.3,0.6,0.7C147,72.1,146.8,72.3,146.5,72.3"/>
	<path class="st4" d="M114.1,72.3h-3.9c-0.3,0.1-0.7-0.2-0.7-0.6c-0.1-0.3,0.2-0.7,0.6-0.7c0.1,0,0.1,0,0.1,0h3.9
		c0.3-0.1,0.7,0.2,0.7,0.6c0.1,0.3-0.2,0.7-0.6,0.7C114.1,72.4,114.1,72.4,114.1,72.3"/>
	<path class="st4" d="M107.3,83.8h-6.1c-0.3,0-0.6-0.3-0.6-0.6s0.3-0.6,0.6-0.6l0,0h6.1c0.3,0,0.6,0.3,0.6,0.6
		S107.6,83.8,107.3,83.8L107.3,83.8"/>
	<path class="st4" d="M114.1,83.8h-3.9c-0.3,0-0.6-0.3-0.6-0.6s0.3-0.6,0.6-0.6h3.9c0.3,0,0.6,0.3,0.6,0.6S114.4,83.8,114.1,83.8
		L114.1,83.8"/>
	<path class="st5" d="M96.4,72.3H94c-0.3,0.1-0.7-0.2-0.7-0.6c-0.1-0.3,0.2-0.7,0.6-0.7c0.1,0,0.1,0,0.1,0h2.4
		c0.3-0.1,0.7,0.2,0.7,0.6c0.1,0.3-0.2,0.7-0.6,0.7C96.5,72.4,96.5,72.4,96.4,72.3"/>
	<path class="st4" d="M96.4,78.1H94c-0.3,0-0.6-0.3-0.6-0.6s0.3-0.6,0.6-0.6h2.4c0.3,0,0.6,0.3,0.6,0.6S96.7,78.1,96.4,78.1
		L96.4,78.1"/>
	<path class="st5" d="M96.4,83.8H94c-0.3,0-0.6-0.3-0.6-0.6s0.3-0.6,0.6-0.6l0,0h2.4c0.3,0,0.6,0.3,0.6,0.6S96.7,83.8,96.4,83.8"/>
	<path class="st5" d="M98.3,62.3c-0.1,0-0.3-0.1-0.4-0.2L93.8,58c-0.1-0.1-0.2-0.3-0.2-0.4s0.1-0.3,0.2-0.4l4.2-4.2
		c0.2-0.3,0.6-0.3,0.9-0.1c0.3,0.2,0.3,0.6,0.1,0.9c0,0.1-0.1,0.1-0.1,0.1l-3.7,3.7l3.7,3.7c0.3,0.2,0.3,0.6,0,0.9l0,0
		C98.7,62.3,98.5,62.3,98.3,62.3"/>
	<path class="st5" d="M111.2,62.3c-0.1,0-0.3-0.1-0.4-0.2c-0.3-0.2-0.3-0.6,0-0.9l0,0l3.7-3.7l-3.7-3.7c-0.2-0.3-0.2-0.7,0.1-0.9
		c0.2-0.2,0.6-0.2,0.8,0l4.2,4.2c0.1,0.1,0.2,0.3,0.2,0.4c0,0.1-0.1,0.3-0.2,0.4l-4.2,4.2C111.6,62.3,111.4,62.3,111.2,62.3"/>
	<path class="st5" d="M102.4,62.1c-0.1,0-0.2,0-0.3-0.1c-0.3-0.2-0.4-0.6-0.2-0.9l4.6-7.7c0.2-0.3,0.6-0.4,0.9-0.2
		c0.3,0.2,0.4,0.6,0.2,0.9l-4.6,7.7C102.8,61.9,102.6,62.1,102.4,62.1"/>
	<g>
		<path class="st2" d="M197.9,108.6h-32c-0.6,0-1-0.4-1-1c0,0,0,0,0-0.1V47.7c0-0.6,0.4-1,1-1h0.1h32c0.6,0,1,0.5,1,1l0,0v59.8
			C199,108.1,198.5,108.6,197.9,108.6"/>
	</g>
	<g>
		<polygon class="st1" points="168.5,100.5 195.3,100.5 195.3,54.8 168.5,54.8 		"/>
	</g>
	<g>
		<path class="st6" d="M184.2,104.6c0,1.3-1.1,2.4-2.4,2.4c-1.3,0-2.4-1.1-2.4-2.4c0-1.3,1.1-2.4,2.4-2.4
			C183.2,102.3,184.2,103.3,184.2,104.6L184.2,104.6"/>
	</g>
	<g>
		<path class="st6" d="M184.7,51.2H179c-0.3,0-0.6-0.3-0.6-0.6c0-0.3,0.3-0.6,0.6-0.6h5.8c0.3,0,0.6,0.3,0.6,0.6
			C185.4,51,185.1,51.2,184.7,51.2"/>
	</g>
</g>
</svg>
