<?xml version="1.0" encoding="utf-8"?>
<!-- Generator: Adobe Illustrator 24.0.3, SVG Export Plug-In . SVG Version: 6.00 Build 0)  -->
<svg version="1.1" id="Layer_1" xmlns="http://www.w3.org/2000/svg" xmlns:xlink="http://www.w3.org/1999/xlink" x="0px" y="0px"
	 viewBox="0 0 282 138" style="enable-background:new 0 0 282 138;" xml:space="preserve">
<style type="text/css">
	.st0{fill:#2667F8;}
	.st1{fill-rule:evenodd;clip-rule:evenodd;fill:#2B5468;}
	.st2{fill-rule:evenodd;clip-rule:evenodd;fill:#F3756C;}
	.st3{fill-rule:evenodd;clip-rule:evenodd;fill:#FFCC0D;}
	.st4{fill-rule:evenodd;clip-rule:evenodd;fill:#3995D3;}
</style>
<title>illo-sm-xl-engineering</title>
<rect class="st0" width="282" height="138"/>
<polygon class="st1" points="120.1,104.9 133.2,104.9 133.2,33.8 120.1,33.8 "/>
<polygon class="st2" points="128.9,52.3 133.2,52.3 133.2,50.9 128.9,50.9 "/>
<polygon class="st2" points="128.9,43.6 133.2,43.6 133.2,42.2 128.9,42.2 "/>
<polygon class="st2" points="128.9,61.1 133.2,61.1 133.2,59.7 128.9,59.7 "/>
<polygon class="st2" points="128.9,69.9 133.2,69.9 133.2,68.5 128.9,68.5 "/>
<polygon class="st2" points="128.9,78.6 133.2,78.6 133.2,77.2 128.9,77.2 "/>
<polygon class="st2" points="128.9,87.4 133.2,87.4 133.2,86 128.9,86 "/>
<polygon class="st2" points="128.9,96.2 133.2,96.2 133.2,94.8 128.9,94.8 "/>
<path class="st1" d="M120.7,92C108.2,92,98,81.9,98,69.4s10.1-22.6,22.6-22.6c0,0,0,0,0,0v9.8c-7.1,0-12.8,5.7-12.8,12.8
	s5.7,12.8,12.8,12.8c0,0,0,0,0,0V92z"/>
<path class="st2" d="M120.7,66.1c1.8,0,3.3,1.5,3.3,3.3s-1.5,3.3-3.3,3.3s-3.3-1.5-3.3-3.3l0,0C117.3,67.5,118.8,66.1,120.7,66.1"/>
<g>
	<polygon class="st2" points="146.4,107.9 144.7,107.5 146.1,102.1 147.8,102.5 	"/>
</g>
<g>
	<polygon class="st2" points="178.6,107.9 180.2,107.5 178.9,102.1 177.2,102.5 	"/>
</g>
<g>
	<polygon class="st3" points="144.4,84.4 180.7,84.4 180.7,82.9 144.4,82.9 	"/>
</g>
<g>
	<path class="st1" d="M146.8,103.2l-0.3-0.1c-1.5-0.4-2.4-1.9-2-3.4l11.2-44.7l5.7,1.4l-11.2,44.7
		C149.9,102.7,148.4,103.5,146.8,103.2"/>
</g>
<g>
	<path class="st1" d="M178.1,103.2l0.3-0.1c1.5-0.4,2.4-1.9,2-3.4l-11.2-44.7l-5.7,1.4l11.2,44.7
		C175.1,102.7,176.6,103.6,178.1,103.2"/>
</g>
<g>
	<polygon class="st2" points="160.5,86.7 164.6,86.7 164.6,80.5 160.5,80.5 	"/>
</g>
<g>
	<path class="st2" d="M182.5,83.7c0,1-0.8,1.8-1.8,1.8c-1,0-1.8-0.8-1.8-1.8c0-1,0.8-1.8,1.8-1.8l0,0
		C181.7,81.9,182.5,82.7,182.5,83.7"/>
</g>
<g>
	<path class="st2" d="M146.2,83.7c0,1-0.8,1.8-1.8,1.8c-1,0-1.8-0.8-1.8-1.8c0-1,0.8-1.8,1.8-1.8l0,0
		C145.4,81.9,146.2,82.7,146.2,83.7"/>
</g>
<g>
	<polygon class="st2" points="159.9,46.3 165.1,46.3 165.1,30.9 159.9,30.9 	"/>
</g>
<g>
	<path class="st1" d="M172.3,49.2c0,5.4-4.4,9.8-9.8,9.8c-5.4,0-9.8-4.4-9.8-9.8s4.4-9.8,9.8-9.8c0,0,0,0,0,0
		C167.9,39.4,172.3,43.7,172.3,49.2C172.3,49.2,172.3,49.2,172.3,49.2"/>
</g>
<g>
	<path class="st4" d="M167,49.2c0,2.5-2,4.6-4.5,4.6s-4.6-2-4.6-4.5c0-2.5,2-4.6,4.5-4.6c0,0,0,0,0,0C165,44.6,167,46.7,167,49.2"/>
</g>
</svg>
