<svg id="Layer_1" data-name="Layer 1" xmlns="http://www.w3.org/2000/svg" viewBox="0 0 59.91 79"><defs><style>.cls-1{fill:#139ff0;fill-opacity:0.2;}.cls-1,.cls-3{fill-rule:evenodd;}.cls-2{fill:none;}.cls-2,.cls-3{stroke:#139ff0;stroke-width:1.5px;}.cls-3,.cls-4{fill:#fff;}</style></defs><title>feature-jobs-867da4c0</title><path id="a" class="cls-1" d="M26.2,25.72A13.55,13.55,0,0,1,19,13.42C19,6,21.46,0,31,0S43,6,43,13.42a13.64,13.64,0,0,1-6.68,12c0,2.42.44,4,1.17,4.68,1.18,1.12,6,1.71,9.23,2.67Q50,33.76,51,38v8H11V38.26q.9-4.18,4.16-5.2c3.27-1,10-1.64,10.51-2.93A13.79,13.79,0,0,0,26.2,25.72Z" transform="translate(-0.94)"/><path class="cls-2" d="M11.75,38.34v6.91h38.5V38c-.62-2.49-1.86-4-3.74-4.52-.82-.24-1.7-.45-3.11-.77l-1.32-.29c-3-.67-4.36-1.08-5.1-1.78-.93-.88-1.36-2.6-1.41-5.22V25l.39-.22a12.89,12.89,0,0,0,6.3-11.37C42.25,5,39.06.75,31,.75S19.75,5,19.75,13.42A12.79,12.79,0,0,0,26.53,25l.43.21v.48a14.12,14.12,0,0,1-.59,4.69c-.45,1.07-1.73,1.43-6.53,2.36l-.13,0a42,42,0,0,0-4.31,1C13.51,34.36,12.3,35.85,11.75,38.34Z" transform="translate(-0.94)"/><path class="cls-3" d="M4.69,41H57.1a3,3,0,0,1,3,3,2.69,2.69,0,0,1,0,.4L55.94,75H5.64L1.72,44.38A3,3,0,0,1,4.31,41Z" transform="translate(-0.94)"/><rect id="b" class="cls-4" x="3.06" y="74" width="54" height="5" rx="2"/><path class="cls-2" d="M6.5,74.75h49a1.75,1.75,0,0,1,1.75,1.75h0a1.75,1.75,0,0,1-1.75,1.75H6.5A1.75,1.75,0,0,1,4.75,76.5h0A1.75,1.75,0,0,1,6.5,74.75Z" transform="translate(-0.94)"/></svg>