<?xml version="1.0" encoding="utf-8"?>
<!-- Generator: Adobe Illustrator 24.0.3, SVG Export Plug-In . SVG Version: 6.00 Build 0)  -->
<svg version="1.1" id="Layer_1" xmlns="http://www.w3.org/2000/svg" xmlns:xlink="http://www.w3.org/1999/xlink" x="0px" y="0px"
	 viewBox="0 0 282 138" style="enable-background:new 0 0 282 138;" xml:space="preserve">
<style type="text/css">
	.st0{fill:#353535;}
	.st1{fill:#FFFFFF;}
</style>
<rect class="st0" width="282" height="138"/>
<title>illo-sm-xl-design</title>
<g id="XMLID_208_">
	<path class="st1" d="M105.1,106.6h71.8c2.9,0,5.3-2.4,5.3-5.3V44.6c0-2.9-2.4-5.3-5.3-5.3h-26.2c-0.9-4.5-4.9-7.9-9.7-7.9
		s-8.8,3.4-9.7,7.9h-26.2c-2.9,0-5.3,2.4-5.3,5.3v56.7C99.8,104.2,102.2,106.6,105.1,106.6z M141,35.4c2.6,0,4.8,1.6,5.6,3.9h-11.2
		C136.2,37,138.4,35.4,141,35.4z M103.7,44.6c0-0.7,0.6-1.4,1.4-1.4h71.8c0.7,0,1.4,0.6,1.4,1.4v56.7c0,0.7-0.6,1.4-1.4,1.4h-5.2
		V74.3c0-1.1-0.9-2-2-2s-2,0.9-2,2v28.4h-6.1V80.4c0-1.1-0.9-2-2-2s-2,0.9-2,2v22.3H152V86.9c0-1.1-0.9-2-2-2s-2,0.9-2,2v15.8h-5
		V81.8c0-1.1-0.9-2-2-2s-2,0.9-2,2v20.8h-5.8v-11c0-1.1-0.9-2-2-2s-2,0.9-2,2v11h-4.6V92.5c0-1.1-0.9-2-2-2s-2,0.9-2,2v10.2h-5.3
		v-7.8c0-1.1-0.9-2-2-2s-2,0.9-2,2v7.8h-6.2c-0.7,0-1.4-0.6-1.4-1.4V44.6z"/>
	<path id="XMLID_218_" class="st1" d="M171.7,52.7C171.7,52.6,171.7,52.6,171.7,52.7c0-0.1,0-0.2,0-0.2v-0.1v-0.1v-0.1v-0.1V52v-0.1
		c0,0,0,0,0-0.1c0,0,0-0.1-0.1-0.1c0,0,0-0.1-0.1-0.1c0,0,0-0.1-0.1-0.1l-0.1-0.1l0,0l0,0l-0.1-0.1c0,0,0,0-0.1-0.1
		c0,0-0.1,0-0.1-0.1c0,0-0.1,0-0.1-0.1h-0.1h-0.1h-0.1h-0.1h-0.1h-0.1h-0.1h-0.1H170c-0.1,0-0.1,0-0.2,0l0,0h-8.6c-1.1,0-2,0.9-2,2
		s0.9,2,2,2h3.8l-16.5,16.5L144,67c-0.4-0.4-0.9-0.6-1.4-0.6s-1,0.2-1.4,0.6l-14.4,14.4l-4.3-4.3c-0.8-0.8-2-0.8-2.8,0l-7.3,7.3
		c-0.8,0.8-0.8,2,0,2.8c0.4,0.4,0.9,0.6,1.4,0.6s1-0.2,1.4-0.6l5.9-5.9l4.3,4.3c0.8,0.8,2,0.8,2.8,0l14.4-14.4l4.3,4.3
		c0.4,0.4,0.9,0.6,1.4,0.6s1-0.2,1.4-0.6l17.9-17.9v3.8c0,1.1,0.9,2,2,2s2-0.9,2-2v-8.6C171.7,52.8,171.7,52.7,171.7,52.7
		L171.7,52.7z"/>
	<path id="XMLID_219_" class="st1" d="M171.7,52.7"/>
	<path id="XMLID_215_" class="st1" d="M115.9,52.8c0,1.1-0.9,2-2,2s-2-0.9-2-2s0.9-2,2-2C115,50.9,115.9,51.7,115.9,52.8L115.9,52.8
		z"/>
	<path id="XMLID_212_" class="st1" d="M115.9,61c0,1.1-0.9,2-2,2s-2-0.9-2-2s0.9-2,2-2S115.9,59.9,115.9,61L115.9,61z"/>
	<path id="XMLID_209_" class="st1" d="M115.9,69.1c0,1.1-0.9,2-2,2s-2-0.9-2-2s0.9-2,2-2S115.9,68,115.9,69.1L115.9,69.1z"/>
</g>
</svg>
