<?xml version="1.0" encoding="utf-8"?>
<!-- Generator: Adobe Illustrator 24.0.3, SVG Export Plug-In . SVG Version: 6.00 Build 0)  -->
<svg version="1.1" id="Layer_1" xmlns="http://www.w3.org/2000/svg" xmlns:xlink="http://www.w3.org/1999/xlink" x="0px" y="0px"
	 viewBox="0 0 282 138" style="enable-background:new 0 0 282 138;" xml:space="preserve">
<style type="text/css">
	.st0{fill:#353535;}
	.st1{fill:#FFFFFF;}
</style>
<rect class="st0" width="282" height="138"/>
<title>illo-sm-xl-sales</title>
<g>
	<path class="st1" d="M138,91c-1.6,0.2-3.3,0.3-5,0.4l5.7-7.1l-5.2-12l4.3-6c0.4-0.2,0.8-0.4,1.2-0.6l1.2,1.1
		c0.9,0.7,1.7,1.4,2.4,2.1l4.6-2.8c-1.1-1.1-2.3-2.2-3.6-3.3l-0.2-0.2c3.5-3.4,5.7-8.1,5.7-13.4c0-10.2-8.2-18.4-18.3-18.4
		s-18.3,8.2-18.3,18.4c0,5.3,2.2,10,5.8,13.4l-0.1,0.1c-6.3,5.3-9.6,8.8-10.8,23.8c0,1.8,0.7,4.3,4.3,6.4c4.2,2.4,11.7,3.7,19.1,3.7
		c2.4,0,4.7-0.1,7-0.4L138,91z M114.4,88.4c-0.5-0.3-1.7-1.1-1.7-1.6c1-13.3,3.7-15.5,8.9-20l1.2-1c0.4,0.2,0.7,0.4,1.1,0.5l4.3,6
		l-5.2,12l5.7,7.1C123,91.2,117.5,90.2,114.4,88.4z M130.9,62.4c-7.2,0-13.1-5.9-13.1-13.1s5.9-13.1,13.1-13.1S144,42.1,144,49.3
		C143.9,56.5,138.1,62.4,130.9,62.4z"/>
	<path class="st1" d="M130.9,40.1c-0.7,0-1.3,0.6-1.3,1.3s0.6,1.3,1.3,1.3c3.6,0,6.5,2.9,6.5,6.5c0,0.7,0.6,1.3,1.3,1.3
		s1.3-0.6,1.3-1.3C140,44.2,136,40.1,130.9,40.1z"/>
	<path class="st1" d="M159.1,66.1c-9.1,0-16.4,7.4-16.4,16.4c0,3.7,1.2,7.1,3.3,9.9c-0.1,0.1-0.2,0.1-0.3,0.2l-9.4,9.4
		c-0.9,0.9-0.9,2.4,0,3.3c0.5,0.5,1.1,0.7,1.7,0.7c0.6,0,1.2-0.2,1.7-0.7l9.4-9.4c0.1-0.1,0.1-0.2,0.2-0.3c2.8,2.1,6.2,3.3,9.9,3.3
		c9.1,0,16.4-7.4,16.4-16.4C175.5,73.5,168.2,66.1,159.1,66.1z M159.1,94.3c-6.5,0-11.7-5.3-11.7-11.7s5.3-11.7,11.7-11.7
		s11.7,5.3,11.7,11.7S165.5,94.3,159.1,94.3z"/>
</g>
</svg>
