<?xml version="1.0" encoding="utf-8"?>
<!-- Generator: Adobe Illustrator 24.0.3, SVG Export Plug-In . SVG Version: 6.00 Build 0)  -->
<svg version="1.1" id="Layer_1" xmlns="http://www.w3.org/2000/svg" xmlns:xlink="http://www.w3.org/1999/xlink" x="0px" y="0px"
	 viewBox="0 0 282 138" style="enable-background:new 0 0 282 138;" xml:space="preserve">
<style type="text/css">
	.st0{fill:#353535;}
	.st1{fill:#FFFFFF;}
</style>
<rect class="st0" width="282" height="138"/>
<title>illo-sm-xl-admin</title>
<g id="XMLID_10985_">
	<g id="XMLID_10993_">
		<path class="st1" d="M129.2,73.4c-0.2,0-0.3,0-0.4-0.1l-15.2-8.8c-0.4-0.2-0.6-0.8-0.3-1.2l13.9-24c0.1-0.2,0.3-0.3,0.5-0.4
			c0.2-0.1,0.5,0,0.7,0.1l15.2,8.8c0.4,0.2,0.6,0.8,0.3,1.2L130,73c-0.1,0.2-0.3,0.3-0.5,0.4C129.3,73.4,129.2,73.4,129.2,73.4z
			 M115.2,63.4l13.7,7.9l13-22.5l-13.7-7.9L115.2,63.4z"/>
	</g>
	<g id="XMLID_10992_">
		<path class="st1" d="M130.1,81.3c-0.2,0-0.3,0-0.4-0.1l-23.4-13.5c-0.4-0.2-0.6-0.8-0.3-1.2l3.2-5.5c0.1-0.2,0.3-0.3,0.5-0.4
			c0.2-0.1,0.5,0,0.7,0.1l23.4,13.5c0.4,0.2,0.6,0.8,0.3,1.2l-3.2,5.5c-0.1,0.2-0.3,0.3-0.5,0.4C130.2,81.3,130.2,81.3,130.1,81.3z
			 M107.8,66.6l21.9,12.7l2.3-4l-21.9-12.7L107.8,66.6z"/>
	</g>
	<g id="XMLID_10991_">
		<path class="st1" d="M147.1,51.7c-0.1,0-0.3,0-0.4-0.1l-23.4-13.5c-0.4-0.2-0.6-0.8-0.3-1.2l3.2-5.5c0.1-0.2,0.3-0.3,0.5-0.4
			s0.5,0,0.7,0.1l23.4,13.5c0.4,0.2,0.6,0.8,0.3,1.2l-3.2,5.5c-0.1,0.2-0.3,0.3-0.5,0.4C147.3,51.7,147.2,51.7,147.1,51.7z
			 M124.9,37l21.9,12.7l2.3-4L127.2,33L124.9,37z"/>
	</g>
	<g id="XMLID_10990_">
		<path class="st1" d="M138.2,70.4c-0.2,0-0.3,0-0.4-0.1l-5.5-3.2c-0.4-0.2-0.6-0.8-0.3-1.2l6.8-11.8c0.1-0.2,0.3-0.3,0.5-0.4
			c0.2-0.1,0.5,0,0.7,0.1l5.5,3.2c0.4,0.2,0.6,0.8,0.3,1.2L139,70c-0.1,0.2-0.3,0.3-0.5,0.4C138.4,70.4,138.3,70.4,138.2,70.4z
			 M133.9,66.1l4,2.3l5.9-10.3l-4-2.3L133.9,66.1z"/>
	</g>
	<g id="XMLID_10989_">
		<path class="st1" d="M184.8,97.7L184.8,97.7c-1.6,0-3.1-0.5-4.4-1.3L139.1,68c-0.4-0.3-0.5-0.8-0.3-1.1l4.2-7.2
			c0.2-0.4,0.7-0.5,1.1-0.3L189.3,81c2,0.9,3.4,2.7,4.1,4.9c0.7,2.4,0.5,5.1-0.8,7.3C191,95.9,187.9,97.7,184.8,97.7z M140.7,67.1
			l40.7,27.8c1,0.7,2.2,1,3.4,1c2.5,0,5-1.4,6.3-3.7c1-1.7,1.3-3.9,0.7-5.9c-0.5-1.7-1.7-3.1-3.2-3.8l-44.4-21.4L140.7,67.1z"/>
	</g>
	<g id="XMLID_10988_">
		<path class="st1" d="M175.6,92.9c-0.2,0-0.3-0.1-0.5-0.2l-8.4-5.8c-0.4-0.3-0.5-0.8-0.3-1.1l6.7-11.7c0.2-0.4,0.7-0.5,1.1-0.3
			l9.2,4.4c0.2,0.1,0.4,0.3,0.5,0.5s0,0.5-0.1,0.7l-7.5,13C176.2,92.6,176,92.8,175.6,92.9C175.7,92.8,175.7,92.9,175.6,92.9z
			 M168.3,86l7,4.8l6.6-11.4l-7.6-3.7L168.3,86z"/>
	</g>
	<g id="XMLID_10987_">
		<path class="st1" d="M138.2,97.1H95.9c-0.5,0-0.9-0.4-0.9-0.9V85.4c0-0.5,0.4-0.9,0.9-0.9h42.2c0.5,0,0.9,0.4,0.9,0.9v10.8
			C139,96.7,138.7,97.1,138.2,97.1z M96.8,95.3h40.5v-9.1H96.8V95.3z"/>
	</g>
	<g id="XMLID_10986_">
		<path class="st1" d="M145,107.9H89c-0.5,0-0.9-0.4-0.9-0.9V96.2c0-0.5,0.4-0.9,0.9-0.9h56c0.5,0,0.9,0.4,0.9,0.9V107
			C145.9,107.5,145.5,107.9,145,107.9z M89.9,106.2h54.2v-9.1H89.9V106.2z"/>
	</g>
</g>
</svg>
