<?xml version="1.0" encoding="utf-8"?>
<!-- Generator: Adobe Illustrator 24.0.3, SVG Export Plug-In . SVG Version: 6.00 Build 0)  -->
<svg version="1.1" id="Layer_1" xmlns="http://www.w3.org/2000/svg" xmlns:xlink="http://www.w3.org/1999/xlink" x="0px" y="0px"
	 viewBox="0 0 282 138" style="enable-background:new 0 0 282 138;" xml:space="preserve">
<style type="text/css">
	.st0{fill:#353535;}
	.st1{fill:#FFFFFF;}
</style>
<rect class="st0" width="282" height="138"/>
<title>illo-sm-xl-dev</title>
<g id="XMLID_153_">
	<path id="XMLID_175_" class="st1" d="M116.8,92c0,0.8-0.7,1.5-1.5,1.5s-1.5-0.7-1.5-1.5s0.7-1.5,1.5-1.5
		C116.1,90.5,116.8,91.2,116.8,92L116.8,92z"/>
	<path id="XMLID_165_" class="st1" d="M175.3,73.8c0,0.8-0.7,1.5-1.5,1.5s-1.5-0.7-1.5-1.5s0.7-1.5,1.5-1.5S175.3,73,175.3,73.8
		L175.3,73.8z"/>
	<g id="XMLID_154_">
		<path id="XMLID_162_" class="st1" d="M156.1,62.3h-2.3c-0.7,0-1.3-0.6-1.3-1.3v-1.4c0-0.7,0.6-1.3,1.3-1.3h2.6
			c0.6,0,1.1,0.5,1.1,1.1c0,0.8,0.7,1.5,1.5,1.5s1.5-0.7,1.5-1.5c0-2.3-1.8-4.1-4-4.1V54c0-0.8-0.7-1.5-1.5-1.5s-1.5,0.7-1.5,1.5
			v1.3c-2.3,0.2-4,2.1-4,4.4V61c0,2.4,2,4.4,4.4,4.4h2.3c0.7,0,1.3,0.6,1.3,1.3v1.4c0,0.7-0.6,1.3-1.3,1.3h-2.6
			c-0.6,0-1.1-0.5-1.1-1.1c0-0.8-0.7-1.5-1.5-1.5s-1.5,0.7-1.5,1.5c0,2.3,1.8,4.1,4,4.1v1.3c0,0.8,0.7,1.5,1.5,1.5s1.5-0.7,1.5-1.5
			v-1.3c2.3-0.2,4-2.1,4-4.4v-1.4C160.5,64.3,158.5,62.3,156.1,62.3L156.1,62.3z"/>
		<path id="XMLID_156_" class="st1" d="M178.2,81.7c-0.6-1.4-1.8-2.5-3.2-3.1c-1.5-0.6-3-0.5-4.5,0.1l0,0l-9.6,4.4
			c-0.8,0.4-1.1,1.3-0.7,2c0.4,0.8,1.3,1.1,2,0.7l9.6-4.4c0.7-0.3,1.4-0.3,2.1,0c0.7,0.3,1.2,0.8,1.5,1.5s0.3,1.4,0,2.1
			s-0.8,1.2-1.5,1.5l-19.7,8.7c-3.1,1.4-6.6,1.3-9.7-0.2l-7.2-3.6c-3.9-1.9-8.3-2-12.3-0.3h-0.1L119.6,79l7.4-3.3
			c3.5-1.6,7.5-1.7,11.1-0.4l14.5,5.3c1.3,0.5,2,1.9,1.5,3.2c-0.5,1.3-1.9,2-3.2,1.6l-11.2-3.8c-0.8-0.3-1.7,0.2-1.9,1
			c-0.3,0.8,0.2,1.7,1,1.9l11.2,3.8c0.6,0.2,1.2,0.3,1.8,0.3c2.3,0,4.5-1.5,5.3-3.8c1-2.9-0.5-6-3.4-7.1l-14.5-5.3
			c-1-0.4-2-0.6-3-0.8v-8.4c0-8.3,6.8-15.1,15.1-15.1h5.6c8.3,0,15.1,6.8,15.1,15.1v4c0,0.8,0.7,1.5,1.5,1.5s1.5-0.7,1.5-1.5v-4
			c0-8.8-6.3-16.2-14.7-17.8V41l3.9-6.6c0.2-0.4,0.3-0.8,0.1-1.2c-0.1-0.4-0.4-0.7-0.8-0.9L159,30c-0.4-0.2-0.8-0.2-1.1,0l-3.5,1.3
			l-3.1-1.2c-0.4-0.1-0.8-0.1-1.1,0l-5,1.9c-0.4,0.2-0.7,0.5-0.9,0.9c-0.2,0.4-0.1,0.9,0.1,1.3l3.8,6.9v4.6
			c-8.4,1.6-14.8,9-14.8,17.8v8.1c-2.5,0-5,0.5-7.4,1.5l-7.5,3.3c-0.4-0.6-1-1.1-1.8-1.4c-0.9-0.4-2-0.3-2.9,0.1l-9.7,4.2
			c-0.6,0.2-0.9,0.8-0.9,1.4v25.9c0,0.5,0.3,1,0.7,1.3c0.2,0.2,0.5,0.2,0.8,0.2c0.2,0,0.5-0.1,0.7-0.2l18.8-9.5
			c0.9-0.4,1.6-1.1,2-2.1c0.3-0.8,0.3-1.6,0.1-2.3l0.1-0.1c3.1-1.4,6.6-1.3,9.7,0.2l7.2,3.6c3.9,1.9,8.3,2,12.3,0.3l19.7-8.7
			c1.4-0.6,2.5-1.8,3.1-3.2C178.9,84.7,178.9,83.1,178.2,81.7L178.2,81.7z M157.6,45.2h-6.3v-3.1h6.3V45.2z M147.9,34.1l2.8-1.1
			l3.1,1.2c0.3,0.1,0.7,0.1,1.1,0l3.5-1.2l2.6,1.2l-2.8,4.7h-7.6L147.9,34.1z M123,95.7C122.9,95.7,122.9,95.7,123,95.7l-16.7,8.4
			v-6.2l4.3-2.1c0.8-0.4,1.1-1.3,0.7-2c-0.4-0.8-1.3-1.1-2-0.7l-2.9,1.4V81.6l8.8-3.8c0.2-0.1,0.5-0.1,0.6,0c0.1,0,0.3,0.1,0.4,0.4
			l0.3,0.8l0,0l0,0l7,15.8C123.5,95.1,123.3,95.5,123,95.7L123,95.7z"/>
	</g>
</g>
</svg>
