<?xml version="1.0" encoding="utf-8"?>
<!-- Generator: Adobe Illustrator 24.0.3, SVG Export Plug-In . SVG Version: 6.00 Build 0)  -->
<svg version="1.1" id="Layer_1" xmlns="http://www.w3.org/2000/svg" xmlns:xlink="http://www.w3.org/1999/xlink" x="0px" y="0px"
	 viewBox="0 0 282 138" style="enable-background:new 0 0 282 138;" xml:space="preserve">
<style type="text/css">
	.st0{fill:#353535;}
	.st1{fill:#FFFFFF;}
</style>
<rect x="0.5" y="0.5" class="st0" width="282" height="138"/>
<title>illo-sm-xl-design</title>
<g>
	<path class="st1" d="M131.3,92.4c0-1.1,0-2.1,0-3.2c0-2.2-0.6-4.3-1.6-6.2c-1.1-2.1-2.2-4.1-3.4-6c-1.8-3-3-6.2-3.3-9.7
		c-0.5-5.1,0.8-9.7,4.3-13.6c4.3-4.8,9.8-6.7,16.2-6c3.9,0.4,7.2,2.1,10.1,4.8c1.9,1.8,3.4,3.9,4.4,6.3c0.5,1.2,0.7,2.4,0.7,3.6
		c0,0.8,0,1.6,0,2.4c0,0.3,0.1,0.6,0.2,0.8c1.4,3.1,2.7,6.2,4.1,9.3c0,0.1,0.1,0.2,0.2,0.4c-0.4,0-0.7,0-1,0c-0.8,0-1.6,0.1-2.4,0.1
		c-0.4,0-0.4,0.1-0.4,0.5c0.1,1.7,0.2,3.5,0.2,5.2s-1.5,3.1-3.2,3c-1.4-0.1-2.8,0-4.3,0c-0.3,0-0.3,0.2-0.3,0.4c0,2.2,0,4.3,0,6.5
		c0,0.5,0,1,0,1.5C145,92.4,138.2,92.4,131.3,92.4z M161,74c-0.1-0.2-0.1-0.3-0.2-0.4c-1.1-2.5-2.2-4.9-3.3-7.4
		c-0.2-0.4-0.3-0.8-0.3-1.3c0-0.8,0-1.6,0-2.4c0-0.9-0.1-1.8-0.5-2.7c-1.6-4.1-4.4-7.1-8.2-9c-4-2.1-8.3-2.3-12.6-1
		c-3.1,0.9-5.6,2.6-7.8,5.1c-2.3,2.7-3.7,5.8-3.9,9.3c-0.2,2.8,0.3,5.5,1.2,8.2c0.7,2,1.8,3.8,2.9,5.6c1.3,2.1,2.5,4.3,3.3,6.6
		c0.7,2,0.9,4.1,0.9,6.2c0,0.3,0.1,0.4,0.4,0.4c5.6,0,11.3,0,16.9,0c0.3,0,0.4-0.1,0.4-0.4c0-2.5,0-5,0-7.5c0-0.1,0-0.3,0-0.5
		c0.1,0,0.2,0,0.3,0c1.9,0,3.8,0,5.6,0c1.1,0,1.8-0.7,1.8-1.7c0-1.7-0.1-3.3-0.2-5c0-0.6,0-1.3,0-1.9C159,74,160,74,161,74z"/>
	<path class="st1" d="M141.7,94.8c2.7,0,5.4,0,8.1,0c0.3,0,0.4,0.1,0.4,0.4c0,1,0,1-1,1c-5.2,0-10.3,0-15.5,0c-0.5,0-0.5,0-0.5-0.5
		c0-0.9,0-0.9,0.9-0.9C136.6,94.8,139.1,94.8,141.7,94.8z"/>
	<path class="st1" d="M147.3,98.2c0,0.5,0,0.9,0,1.4c-3.8,0-7.5,0-11.3,0c0-0.5,0-0.9,0-1.4C139.8,98.2,143.5,98.2,147.3,98.2z"/>
	<path class="st1" d="M168.5,65.3c0,0.4,0,0.9,0,1.4c-2.1,0-4.1,0-6.2,0c0-0.5,0-0.9,0-1.4C164.4,65.3,166.5,65.3,168.5,65.3z"/>
	<path class="st1" d="M119.6,66.7c-2.1,0-4.1,0-6.2,0c0-0.5,0-0.9,0-1.4c2.1,0,4.1,0,6.2,0C119.6,65.8,119.6,66.2,119.6,66.7z"/>
	<path class="st1" d="M140.3,44.7c0-2.1,0-4.2,0-6.2c0.5,0,0.9,0,1.4,0c0,0.1,0,0.3,0,0.4c0,1.8,0,3.6,0,5.4c0,0.3-0.1,0.4-0.4,0.4
		C141,44.7,140.7,44.7,140.3,44.7z"/>
	<path class="st1" d="M164.5,51.6c0.3,0.4,0.5,0.8,0.7,1.2c-1.8,1-3.6,2.1-5.4,3.1c-0.2-0.4-0.5-0.8-0.7-1.2
		C160.9,53.7,162.7,52.6,164.5,51.6z"/>
	<path class="st1" d="M122.2,76.1c0.2,0.4,0.5,0.8,0.7,1.2c-1.8,1-3.6,2.1-5.4,3.1c-0.2-0.4-0.5-0.8-0.7-1.2
		C118.6,78.1,120.3,77.1,122.2,76.1z"/>
	<path class="st1" d="M155.4,42.5c-1,1.8-2.1,3.6-3.1,5.4c-0.4-0.2-0.8-0.5-1.2-0.7c1-1.8,2.1-3.6,3.1-5.4
		C154.6,42,155,42.2,155.4,42.5z"/>
	<path class="st1" d="M130.9,47.2c-0.4,0.2-0.8,0.5-1.2,0.7c-1-1.8-2.1-3.6-3.1-5.4c0.4-0.2,0.8-0.5,1.2-0.7
		C128.9,43.6,129.9,45.4,130.9,47.2z"/>
	<path class="st1" d="M122.9,54.7c-0.3,0.4-0.5,0.8-0.7,1.2c-1.8-1-3.6-2.1-5.4-3.1c0.2-0.4,0.5-0.8,0.7-1.2
		C119.3,52.6,121.1,53.7,122.9,54.7z"/>
	<path class="st1" d="M136,54.2c0.2-0.8,0.6-1.4,1.3-1.8c1.7-0.8,3.5,0.4,3.5,2.2c0,3.8,0,7.7,0,11.5c0,3,0,5.9,0,8.9
		c0,0.5,0,1,0,1.5c0,1.1-0.6,2-1.6,2.3c-1.1,0.3-2.2,0-2.8-0.9c-0.2-0.3-0.3-0.3-0.6-0.2c-1.9,0.7-3.9-0.6-4.1-2.6
		c0-0.2-0.1-0.4-0.3-0.4c-2.2-1.3-3-3.5-2.2-5.9c0,0,0-0.1,0-0.2c-0.7-0.3-1.2-0.8-1.6-1.5c-0.9-1.5-0.5-3.5,0.9-4.5
		c0.2-0.1,0.2-0.2,0.1-0.5c-1.1-2.5,0.5-5.2,3.2-5.5c0.4,0,0.6-0.2,0.7-0.6c0.3-1.4,1.6-2.2,3.1-2C135.8,54.2,135.9,54.2,136,54.2z
		 M139.3,70.2c0-0.1,0.1-0.1,0.1-0.1c0-1.9,0-3.9,0-5.8c0-0.2-0.1-0.2-0.3-0.2c-0.7,0.1-1.1,0.4-1.4,1c0,0.1-0.2,0.2-0.3,0.2
		c-0.4-0.1-0.8-0.2-1.2-0.3c0.5-1.6,1.5-2.4,3.1-2.4c0-1.5,0-2.9,0-4.4c-0.3,0.2-0.5,0.4-0.8,0.6c-0.4-0.2-0.8-0.4-1.2-0.7
		c0.4-0.7,0.9-1.1,1.7-1.2c0.1,0,0.3-0.2,0.3-0.3c0-0.7,0-1.4,0-2.1c0-0.5-0.5-0.9-1-0.9s-1,0.3-1,0.8c0,0.3,0.1,0.6,0.1,1
		c-0.3,0.2-0.6,0.5-1,0.8c-0.5-0.6-0.9-0.7-1.5-0.6c-0.7,0.1-1.1,0.6-1.2,1.6c0,0.1,0,0.3-0.1,0.4c-0.4,0.3-0.7,0.8-1.3,0.7
		c-1.1-0.1-1.9,0.4-2.4,1.4c-0.5,0.9-0.4,1.8,0.3,2.7c0.2,0.3,0.6,0.6,0.9,0.9c-0.2,0.4-0.4,0.8-0.6,1.2c-0.3-0.2-0.5-0.3-0.7-0.5
		c-0.2-0.1-0.3-0.1-0.4,0c-1.2,0.8-1.2,2.6,0.1,3.4c0.3,0.2,0.5,0.2,0.7-0.1c0.4-0.5,1-0.8,1.6-1c0.2,0.5,0.3,0.9,0.5,1.3
		c-0.1,0.1-0.2,0.1-0.3,0.1c-1.2,0.6-1.9,1.9-1.8,3.3c0.1,1.3,1.1,2.5,2.3,2.9c0.3,0.1,0.8,0.1,0.9,0.3c0.2,0.3,0,0.7,0,1.1v0.1
		c-0.1,0-0.3,0-0.4,0.1c0.2,0.6,0.7,1.1,1.3,1.2c1.1,0.1,1.7-0.5,2.1-1.5c0.5,0.1,0.9,0.1,1.4,0.2c-0.2,0.4-0.3,0.8-0.5,1.2
		c-0.1,0.3-0.1,0.4,0,0.7c0.3,0.4,0.7,0.6,1.1,0.5c0.4-0.1,0.7-0.5,0.7-1c0-1.1,0-2.2,0-3.3c0-0.9-0.8-2-1.7-2.3
		c-0.2-0.1-0.4-0.1-0.6-0.1c0-0.5,0-0.9,0-1.4C138,69.4,138.7,69.7,139.3,70.2z"/>
	<path class="st1" d="M146.5,54.1c0.6,0.1,1.2,0.1,1.8,0.3c1,0.3,1.5,1.1,1.6,2.1c0,0.2,0.1,0.3,0.4,0.3c1.7,0.1,2.9,1,3.6,2.6
		c0.4,1,0.3,2-0.1,3c-0.1,0.2-0.1,0.4,0.1,0.5c2,1.6,1.8,4.5-0.5,5.8c-0.3,0.1-0.2,0.3-0.1,0.5c0.4,1.4,0.3,2.8-0.5,4
		c-0.4,0.7-1,1.3-1.8,1.6c-0.2,0.1-0.3,0.2-0.3,0.5c-0.3,2-2.2,3.2-4.2,2.6c-0.3-0.1-0.4,0-0.5,0.2c-0.6,0.9-1.7,1.2-2.7,1
		c-1.1-0.3-1.7-1.2-1.7-2.3c0-7.3,0-14.6,0-21.9c0-1.2,0.9-2.3,2-2.5C144.9,52,145.9,52.7,146.5,54.1
		C146.4,54.1,146.4,54.1,146.5,54.1C146.4,54.1,146.4,54.1,146.5,54.1z M151.1,63.1c0.8-0.5,1.3-1.1,1.4-1.9c0.3-1.7-1-3.1-2.8-3
		c-0.1,0-0.4,0.1-0.4,0c-0.4-0.4-0.9-0.6-0.9-1.2c0-1-1-1.7-1.9-1.3c-0.3,0.1-0.5,0.3-0.7,0.5c-0.3-0.3-0.7-0.6-1-0.8
		c0.1-0.2,0.2-0.4,0.2-0.6c0.1-0.6-0.3-1.1-0.9-1.2c-0.5-0.1-1.1,0.4-1.1,1s0,1.3,0,1.9c0,0.3,0.1,0.4,0.4,0.5
		c0.7,0.1,1.2,0.5,1.6,1.2c-0.4,0.2-0.8,0.5-1.2,0.7c-0.3-0.2-0.5-0.4-0.8-0.6c0,0.2,0,0.3,0,0.4c0,1.2,0,2.4,0,3.5
		c0,0.4,0.1,0.5,0.5,0.5c0.1,0,0.1,0,0.2,0c1.2,0.1,2.4,1.2,2.4,2.4c-0.3,0.1-0.6,0.1-0.9,0.3c-0.3,0.1-0.4,0-0.6-0.3
		c-0.3-0.7-0.9-1-1.6-0.9c0,2,0,4,0,6.1c0.7-0.5,1.4-0.8,2.3-0.8c0,0.5,0,0.9,0,1.4c-0.1,0-0.2,0-0.3,0.1c-1,0.2-1.9,1.3-2,2.3
		c0,1.1,0,2.2,0,3.4c0,0.4,0.2,0.7,0.5,0.9c0.4,0.2,0.9,0.2,1.2-0.1c0.3-0.3,0.3-0.6,0.1-1c-0.2-0.3-0.2-0.6-0.4-1
		c0.5-0.1,1-0.1,1.4-0.2c0.4,1,1,1.5,1.9,1.5c0.7-0.1,1.3-0.6,1.4-1.2c-0.1,0-0.3,0-0.4,0c0-0.4,0-0.7,0-1.1c0-0.2,0.1-0.3,0.3-0.3
		c1.5-0.1,2.8-1.3,3-2.8c0.2-1.1-0.1-2.1-0.9-2.8c-0.3-0.3-0.7-0.5-1.1-0.8c0.1-0.4,0.3-0.8,0.5-1.2c0.1,0,0.2,0,0.2,0.1
		c0.5,0.4,1,0.8,1.5,1.1c0.1,0.1,0.3,0.1,0.3,0.1c0.3-0.2,0.7-0.4,0.9-0.7c0.7-1.1,0.5-2.1-0.5-2.9c-0.2-0.1-0.3-0.1-0.5,0
		c-0.2,0.2-0.5,0.3-0.7,0.4C151.5,63.9,151.3,63.5,151.1,63.1z"/>
	<path class="st1" d="M136.9,60.1c-0.1,0.4-0.2,0.8-0.3,1.2c0,0.1-0.2,0.1-0.2,0.1c-1.1-0.1-1.9,0.2-2.4,1.2
		c-0.4-0.2-0.8-0.4-1.2-0.6C133.3,60.6,135.4,59.6,136.9,60.1z"/>
	<path class="st1" d="M135.4,70.9c-0.2,0.4-0.4,0.7-0.6,1c0,0.1-0.2,0.1-0.3,0.1c-1.1-0.5-1.8-2.3-1.3-3.5c0.4,0.1,0.9,0.3,1.3,0.4
		C134.3,69.8,134.7,70.5,135.4,70.9z"/>
	<path class="st1" d="M145.8,61.4c-0.1-0.5-0.2-0.9-0.3-1.3c1.5-0.6,3.6,0.4,4.1,1.9c-0.4,0.2-0.7,0.3-1.1,0.5c-0.1,0-0.2,0-0.2-0.1
		C147.7,61.5,146.8,61.3,145.8,61.4z"/>
	<path class="st1" d="M147.7,72.1c-0.3-0.4-0.5-0.8-0.7-1.1c0.2-0.3,0.5-0.5,0.7-0.8s0.3-0.6,0.2-1c0-0.1,0-0.3,0.1-0.3
		c0.4-0.1,0.8-0.2,1.1-0.3C149.6,69.9,148.8,71.6,147.7,72.1z"/>
</g>
</svg>
