<?xml version="1.0" encoding="utf-8"?>
<!-- Generator: Adobe Illustrator 24.0.3, SVG Export Plug-In . SVG Version: 6.00 Build 0)  -->
<svg version="1.1" id="Layer_1" xmlns="http://www.w3.org/2000/svg" xmlns:xlink="http://www.w3.org/1999/xlink" x="0px" y="0px"
	 viewBox="0 0 282 138" style="enable-background:new 0 0 282 138;" xml:space="preserve">
<style type="text/css">
	.st0{fill:#2667F8;}
	.st1{fill-rule:evenodd;clip-rule:evenodd;fill:#2B5468;}
	.st2{fill-rule:evenodd;clip-rule:evenodd;fill:#FFFFFF;}
	.st3{fill-rule:evenodd;clip-rule:evenodd;fill:#F3756C;}
	.st4{fill-rule:evenodd;clip-rule:evenodd;fill:#E0E0E0;}
	.st5{fill-rule:evenodd;clip-rule:evenodd;fill:#FFCC0D;}
	.st6{fill-rule:evenodd;clip-rule:evenodd;fill:#1D4354;}
</style>
<title>illo-sm-xl-writing</title>
<rect class="st0" width="282" height="138"/>
<polygon class="st1" points="109,107.3 171,107.3 171,30 109,30 "/>
<polygon class="st2" points="115.9,48.4 142.6,48.4 142.6,42.2 115.9,42.2 "/>
<path class="st2" d="M142.4,70.9h-21.7c-0.3,0-0.6-0.2-0.7-0.5s0.2-0.6,0.5-0.7c0.1,0,0.1,0,0.2,0h21.7c0.3,0,0.6,0.3,0.5,0.7
	C142.9,70.7,142.7,70.9,142.4,70.9"/>
<path class="st2" d="M117.5,70.3c0,0.5-0.4,0.9-0.9,0.9s-0.9-0.4-0.9-0.9s0.4-0.9,0.9-0.9l0,0C117,69.4,117.5,69.8,117.5,70.3"/>
<path class="st2" d="M142.4,64.7h-21.7c-0.3,0-0.6-0.3-0.6-0.6l0,0c0-0.3,0.3-0.6,0.6-0.6l0,0h21.7c0.3,0,0.6,0.3,0.6,0.6l0,0
	C143,64.4,142.7,64.7,142.4,64.7L142.4,64.7"/>
<path class="st2" d="M117.5,64.1c0,0.5-0.4,0.9-0.9,0.9s-0.9-0.4-0.9-0.9s0.4-0.9,0.9-0.9l0,0C117,63.2,117.5,63.6,117.5,64.1"/>
<path class="st2" d="M142.4,58.4h-21.7c-0.3,0-0.6-0.3-0.6-0.6s0.3-0.6,0.6-0.6h21.7c0.3,0,0.6,0.3,0.6,0.6
	C143,58.2,142.7,58.4,142.4,58.4"/>
<path class="st2" d="M117.5,57.8c0,0.5-0.4,0.9-0.9,0.9s-0.9-0.4-0.9-0.9s0.4-0.9,0.9-0.9S117.5,57.3,117.5,57.8L117.5,57.8"/>
<path class="st2" d="M142.4,77.2h-21.7c-0.3,0-0.6-0.2-0.7-0.5s0.2-0.6,0.5-0.7c0.1,0,0.1,0,0.2,0h21.7c0.3,0,0.6,0.3,0.5,0.7
	C142.9,76.9,142.7,77.2,142.4,77.2"/>
<path class="st2" d="M117.5,76.6c0,0.5-0.4,0.9-0.9,0.9s-0.9-0.4-0.9-0.9s0.4-0.9,0.9-0.9S117.5,76.1,117.5,76.6L117.5,76.6"/>
<path class="st2" d="M148.4,83.4h-27.7c-0.3,0-0.6-0.3-0.6-0.6s0.3-0.6,0.6-0.6l0,0h27.7c0.3,0,0.6,0.3,0.6,0.6
	C149,83.2,148.7,83.4,148.4,83.4L148.4,83.4"/>
<path class="st2" d="M117.5,82.8c0,0.5-0.4,0.9-0.9,0.9s-0.9-0.4-0.9-0.9s0.4-0.9,0.9-0.9S117.5,82.3,117.5,82.8L117.5,82.8"/>
<path class="st2" d="M131.6,89.7h-10.9c-0.3,0-0.6-0.3-0.6-0.6s0.3-0.6,0.6-0.6l0,0h10.9c0.3,0,0.6,0.3,0.6,0.6
	C132.2,89.4,131.9,89.7,131.6,89.7L131.6,89.7"/>
<path class="st2" d="M117.5,89.1c0,0.5-0.4,0.9-0.9,0.9s-0.9-0.4-0.9-0.9s0.4-0.9,0.9-0.9S117.5,88.6,117.5,89.1L117.5,89.1"/>
<polygon class="st3" points="152.1,75.1 156.9,79.2 173.9,60.2 168.5,55.6 "/>
<polygon class="st4" points="149.5,81.4 151,82.8 156.9,79.2 152.1,75.1 "/>
<polygon class="st3" points="190.2,40.7 185.4,36.5 168.4,55.6 173.9,60.2 "/>
<path class="st5" d="M185.4,36.5c1.2-1.3,3.2-1.5,4.5-0.3s1.5,3.2,0.3,4.5L185.4,36.5z"/>
<g>
	<path class="st5" d="M178.9,58c0,0,7.9-3.4,13.3-15.6l-1.2-1.1l-2.1,2.5c0,0-2.4,7.4-11.2,13.1L178.9,58z"/>
</g>
<g>
	<polygon class="st5" points="187.1,42.3 190,44.8 192.1,42.4 189.2,39.8 	"/>
</g>
<polygon class="st6" points="168.3,55.7 173.7,60.4 174.1,59.9 168.7,55.2 "/>
<path class="st3" d="M151,82.8l-1.5-1.3l-0.5,1.3c-0.1,0.3,0.1,0.6,0.4,0.7c0.1,0,0.3,0,0.4,0L151,82.8z"/>
</svg>
