<svg xmlns="http://www.w3.org/2000/svg" xmlns:xlink="http://www.w3.org/1999/xlink" width="469.37" height="526.475" viewBox="0 0 469.37 526.475">
  <defs>
    <radialGradient id="radial-gradient" cx="0.121" cy="0.279" r="0.978" gradientTransform="matrix(0, 1, 0.529, 0, -0.041, 0.145)" gradientUnits="objectBoundingBox">
      <stop offset="0" stop-color="#434345"/>
      <stop offset="1" stop-color="#000b28"/>
    </radialGradient>
    <radialGradient id="radial-gradient-2" cx="-0.56" cy="-0.201" r="1.591" gradientTransform="matrix(-1.992, 0, 0, 1, -2.727, 0)" gradientUnits="objectBoundingBox">
      <stop offset="0.11" stop-color="#fff"/>
      <stop offset="0.23" stop-color="#f9fbfe"/>
      <stop offset="0.39" stop-color="#e6f0fd"/>
      <stop offset="0.58" stop-color="#c9defa"/>
      <stop offset="0.79" stop-color="#a0c6f7"/>
      <stop offset="0.93" stop-color="#81b3f4"/>
    </radialGradient>
    <radialGradient id="radial-gradient-3" cx="1.218" cy="-0.384" r="1.675" gradientTransform="matrix(-1.731, -0.218, -0.388, 0.976, 3.202, 0.871)" gradientUnits="objectBoundingBox">
      <stop offset="0" stop-color="#beb1f2"/>
      <stop offset="0.84" stop-color="#5956d0" stop-opacity="0.988"/>
    </radialGradient>
    <radialGradient id="radial-gradient-4" cx="5.581" cy="-1.61" r="4.254" gradientTransform="translate(-27.685) scale(1.506 1)" gradientUnits="objectBoundingBox">
      <stop offset="0" stop-color="#868686"/>
      <stop offset="1" stop-color="#1d1d1b"/>
    </radialGradient>
    <radialGradient id="radial-gradient-5" cx="-402.212" cy="-342.868" r="1720.632" gradientTransform="matrix(-0.461, 0.152, 0.056, 0.778, -9455.943, -6803.214)" gradientUnits="objectBoundingBox">
      <stop offset="0.03" stop-color="#ffffcb"/>
      <stop offset="0.45" stop-color="#ffcccb"/>
      <stop offset="0.58" stop-color="#ffc5c4"/>
      <stop offset="0.77" stop-color="#ffb2b2"/>
      <stop offset="0.99" stop-color="#ff9494"/>
      <stop offset="1" stop-color="#ff9292"/>
    </radialGradient>
    <radialGradient id="radial-gradient-6" cx="-564.746" cy="-587.04" r="1456.637" gradientTransform="matrix(-0.538, 0.16, 0.087, 0.987, -7913.25, -2766.278)" xlink:href="#radial-gradient-5"/>
    <radialGradient id="radial-gradient-7" cx="-0.5" cy="1.043" r="0.978" gradientTransform="matrix(-1.786, 0, 0, 1, -2.179, 0)" gradientUnits="objectBoundingBox">
      <stop offset="0.03" stop-color="#ffbfa6"/>
      <stop offset="0.21" stop-color="#ffb8a2"/>
      <stop offset="0.46" stop-color="#ffa598"/>
      <stop offset="0.76" stop-color="#ff8788"/>
      <stop offset="1" stop-color="#ff6978"/>
    </radialGradient>
    <radialGradient id="radial-gradient-8" cx="-1.073" cy="1.085" r="1.192" gradientTransform="matrix(-3.139, 0, 0, 1, -7.807, 0)" gradientUnits="objectBoundingBox">
      <stop offset="0.23" stop-color="#ffbfa6"/>
      <stop offset="0.45" stop-color="#feb8a3"/>
      <stop offset="0.6" stop-color="#fcb0a0"/>
      <stop offset="1" stop-color="#ff9292"/>
    </radialGradient>
    <radialGradient id="radial-gradient-9" cx="-1.009" cy="1.043" r="0.893" gradientTransform="matrix(-2.615, 0, 0, 1, -6.088, 0)" gradientUnits="objectBoundingBox">
      <stop offset="0.03" stop-color="#ffbfa6"/>
      <stop offset="0.23" stop-color="#ffb8a4"/>
      <stop offset="0.51" stop-color="#ffa59f"/>
      <stop offset="0.84" stop-color="#ff8797"/>
      <stop offset="1" stop-color="#ff7592"/>
    </radialGradient>
    <radialGradient id="radial-gradient-10" cx="-711.513" cy="129.648" r="2418.861" gradientTransform="matrix(-0.811, 0.102, 0.066, 0.783, -10816.572, -11947.657)" xlink:href="#radial-gradient-5"/>
    <radialGradient id="radial-gradient-11" cx="-1208.303" cy="-232.398" r="1872.577" gradientTransform="matrix(-1.1, 0.11, 0.122, 0.994, 4434.695, -6202.425)" xlink:href="#radial-gradient-5"/>
    <radialGradient id="radial-gradient-12" cx="-0.52" cy="0.879" r="1.821" gradientTransform="matrix(-0.827, 0, 0, 1, 6.93, 0)" gradientUnits="objectBoundingBox">
      <stop offset="0.31" stop-color="#ffe1cf"/>
      <stop offset="1" stop-color="#ff9ba2"/>
    </radialGradient>
    <radialGradient id="radial-gradient-13" cx="323.823" cy="0.023" r="1.78" gradientTransform="matrix(-3.074, 0, 0, 1, 1990.043, 0)" xlink:href="#radial-gradient-12"/>
    <radialGradient id="radial-gradient-14" cx="-0.063" cy="0.401" r="0.757" gradientTransform="matrix(-1.242, 0, 0, 1, -0.279, 0)" gradientUnits="objectBoundingBox">
      <stop offset="0" stop-color="#ffbfa6"/>
      <stop offset="0.03" stop-color="#ffbfa6"/>
      <stop offset="0.19" stop-color="#ffb8a2"/>
      <stop offset="0.42" stop-color="#ffa598"/>
      <stop offset="0.7" stop-color="#ff8788"/>
      <stop offset="0.91" stop-color="#ff6978"/>
      <stop offset="1" stop-color="#ffa3ac"/>
    </radialGradient>
    <radialGradient id="radial-gradient-15" cx="-0.085" cy="0.401" r="0.755" gradientTransform="matrix(-1.563, 0, 0, 1, -0.547, 0)" xlink:href="#radial-gradient-8"/>
    <radialGradient id="radial-gradient-16" cx="0.534" cy="0.462" r="0.543" gradientTransform="translate(-4.985) scale(3.062 1)" xlink:href="#radial-gradient-8"/>
    <radialGradient id="radial-gradient-17" cx="-0.688" cy="0.988" r="0.913" gradientTransform="matrix(-4.373, 0, 0, 1, -7.705, 0)" gradientUnits="objectBoundingBox">
      <stop offset="0.26" stop-color="#fff"/>
      <stop offset="1" stop-color="#ff5459"/>
    </radialGradient>
    <radialGradient id="radial-gradient-18" cx="0.522" cy="0.432" r="1.088" gradientTransform="translate(-1.5 3.974) scale(0.611 0.61)" gradientUnits="objectBoundingBox">
      <stop offset="0" stop-color="#ff5459"/>
      <stop offset="1" stop-color="#fff"/>
    </radialGradient>
    <radialGradient id="radial-gradient-19" cx="-5.625" cy="10.163" r="1.088" gradientTransform="matrix(-0.611, 0, 0, 1, -6.682, 0)" xlink:href="#radial-gradient-18"/>
    <radialGradient id="radial-gradient-20" cx="0.106" cy="-0.543" r="1.232" gradientTransform="matrix(-3.506, 0, 0, 1, -0.509, 0)" xlink:href="#radial-gradient-8"/>
    <radialGradient id="radial-gradient-21" cx="0.681" cy="1.303" r="2.323" gradientTransform="matrix(-0.547, 0, 0, 1, 0.972, 0)" xlink:href="#radial-gradient-8"/>
    <radialGradient id="radial-gradient-22" cx="-0.358" cy="-0.367" r="1.993" gradientTransform="matrix(-0.817, 0, 0, 1, -0.65, 0)" xlink:href="#radial-gradient-4"/>
    <radialGradient id="radial-gradient-23" cx="-0.649" cy="-0.597" r="2.345" gradientTransform="matrix(-0.87, 0, 0, 1, -1.214, 0)" xlink:href="#radial-gradient-4"/>
    <radialGradient id="radial-gradient-24" cx="0.321" cy="-0.058" r="0.997" gradientTransform="matrix(-1.424, 0, 0, 1, 0.702, 0)" xlink:href="#radial-gradient-2"/>
    <radialGradient id="radial-gradient-25" cx="0.335" cy="-0.299" r="1.225" gradientTransform="matrix(-1.201, 0, 0, 1, 0.737, 0)" xlink:href="#radial-gradient-3"/>
    <radialGradient id="radial-gradient-26" cx="0.335" cy="-0.299" r="1.222" gradientTransform="matrix(-1.247, 0, 0, 1, 0.752, 0)" xlink:href="#radial-gradient-3"/>
    <radialGradient id="radial-gradient-27" cx="0.504" cy="-0.128" r="1.476" gradientTransform="matrix(-2.055, 0, 0, 1, 1.542, 0)" xlink:href="#radial-gradient-2"/>
    <radialGradient id="radial-gradient-28" cx="-0.35" cy="-2.954" r="16.214" gradientTransform="matrix(-0.892, 0, 0, 1, -0.57, 0)" gradientUnits="objectBoundingBox">
      <stop offset="0.11" stop-color="#fff"/>
      <stop offset="0.24" stop-color="#f9fbfe"/>
      <stop offset="0.42" stop-color="#e6f0fd"/>
      <stop offset="0.62" stop-color="#c9defa"/>
      <stop offset="0.85" stop-color="#a0c6f7"/>
      <stop offset="1" stop-color="#81b3f4"/>
    </radialGradient>
    <radialGradient id="radial-gradient-29" cx="-0.345" cy="-0.153" r="4.249" gradientTransform="matrix(-0.919, 0, 0, 1, -0.594, 0)" xlink:href="#radial-gradient-2"/>
    <radialGradient id="radial-gradient-30" cx="-1.189" cy="-4.23" r="21.206" gradientTransform="matrix(-0.597, 0, 0, 1, -1.219, 0)" xlink:href="#radial-gradient-28"/>
    <radialGradient id="radial-gradient-31" cx="707.237" cy="239.241" r="350.243" gradientTransform="matrix(2.085, 0.589, -1.519, 0.808, -5528.816, -2085.783)" gradientUnits="objectBoundingBox">
      <stop offset="0" stop-color="#acc3ff"/>
      <stop offset="1" stop-color="#456bcc"/>
    </radialGradient>
    <radialGradient id="radial-gradient-32" cx="1.35" cy="-0.275" r="1.587" gradientTransform="translate(-57.307) scale(2.565 1)" xlink:href="#radial-gradient-2"/>
    <radialGradient id="radial-gradient-33" cx="1.697" cy="-0.47" r="1.82" gradientTransform="translate(-111.971) scale(3.492 1)" xlink:href="#radial-gradient-3"/>
    <radialGradient id="radial-gradient-34" cx="0.473" cy="-0.237" r="0.722" gradientTransform="translate(-0.015) scale(1.032 1)" gradientUnits="objectBoundingBox">
      <stop offset="0" stop-color="#fff"/>
      <stop offset="0.14" stop-color="#fff8f8"/>
      <stop offset="0.34" stop-color="#ffe5e5"/>
      <stop offset="0.57" stop-color="#ffc7c7"/>
      <stop offset="0.83" stop-color="#ff9c9c"/>
      <stop offset="0.89" stop-color="#ff9191"/>
    </radialGradient>
    <radialGradient id="radial-gradient-35" cx="1.156" cy="-0.096" r="1.073" gradientTransform="translate(0.101) scale(0.799 1)" xlink:href="#radial-gradient-34"/>
    <radialGradient id="radial-gradient-36" cx="-0.109" cy="1.066" r="1.129" gradientTransform="matrix(0.555, -0.778, 0.687, 0.628, 32.368, -98.657)" xlink:href="#radial-gradient-34"/>
    <radialGradient id="radial-gradient-37" cx="-0.743" cy="0.743" r="1.237" gradientTransform="matrix(1.653, -0.31, 0.54, 0.951, 96.674, -44.88)" xlink:href="#radial-gradient-34"/>
    <radialGradient id="radial-gradient-38" cx="-0.307" cy="0.661" r="1.025" gradientTransform="matrix(1.654, -0.31, 0.54, 0.951, 96.363, -45.091)" xlink:href="#radial-gradient-34"/>
    <radialGradient id="radial-gradient-39" cx="-1.276" cy="0.395" r="1.146" gradientTransform="matrix(2.318, -0.008, 0.019, 1, 176.08, -0.951)" xlink:href="#radial-gradient-34"/>
    <radialGradient id="radial-gradient-40" cx="-1.235" cy="0.393" r="0.951" gradientTransform="matrix(3.027, -0.008, 0.024, 1, 353.532, -1.176)" xlink:href="#radial-gradient-34"/>
    <radialGradient id="radial-gradient-41" cx="0.269" cy="-1.628" r="3.234" gradientTransform="translate(0.008) scale(0.984 1)" xlink:href="#radial-gradient-2"/>
    <radialGradient id="radial-gradient-42" cx="-0.455" cy="-0.095" r="3.374" gradientTransform="translate(-0.114) scale(1.228 1)" xlink:href="#radial-gradient-2"/>
    <radialGradient id="radial-gradient-43" cx="0.992" cy="-1.112" r="1.884" gradientTransform="translate(0.148) scale(0.851 1)" xlink:href="#radial-gradient-3"/>
    <radialGradient id="radial-gradient-44" cx="0.473" cy="-0.237" r="0.721" gradientTransform="translate(-0.437) scale(1.032 1)" xlink:href="#radial-gradient-34"/>
    <radialGradient id="radial-gradient-45" cx="1.185" cy="-0.912" r="2.241" gradientTransform="matrix(-0.984, 0, 0, 1, 2.34, 0)" xlink:href="#radial-gradient-2"/>
    <radialGradient id="radial-gradient-46" cx="-0.455" cy="-0.095" r="3.374" gradientTransform="translate(6.304) scale(1.228 1)" xlink:href="#radial-gradient-2"/>
    <radialGradient id="radial-gradient-47" cx="0.992" cy="-1.112" r="1.884" gradientTransform="translate(-2.522) scale(0.853 1)" xlink:href="#radial-gradient-3"/>
    <radialGradient id="radial-gradient-48" cx="0.335" cy="-0.299" r="1.221" gradientTransform="matrix(-1.288, 0, 0, 1, 0.766, 0)" xlink:href="#radial-gradient-3"/>
    <radialGradient id="radial-gradient-49" cx="0.336" cy="-0.299" r="1.256" gradientTransform="matrix(-0.805, 0, 0, 1, 0.606, 0)" xlink:href="#radial-gradient-3"/>
    <radialGradient id="radial-gradient-50" cx="0.335" cy="-0.299" r="1.234" gradientTransform="matrix(-1.041, 0, 0, 1, 0.683, 0)" xlink:href="#radial-gradient-3"/>
    <radialGradient id="radial-gradient-51" cx="1.156" cy="-0.096" r="1.076" gradientTransform="translate(0.627) scale(0.734 1)" xlink:href="#radial-gradient-34"/>
    <radialGradient id="radial-gradient-52" cx="1.157" cy="-0.528" r="1.511" gradientTransform="translate(1.093) scale(0.441 1)" xlink:href="#radial-gradient-34"/>
    <radialGradient id="radial-gradient-53" cx="0.245" cy="1.052" r="1.765" gradientTransform="matrix(0.232, -0.912, 0.515, 0.411, 151.085, -134.292)" xlink:href="#radial-gradient-34"/>
    <radialGradient id="radial-gradient-54" cx="0.331" cy="0.715" r="1.509" gradientTransform="matrix(0.232, -0.912, 0.515, 0.411, 150.74, -133.966)" xlink:href="#radial-gradient-34"/>
    <radialGradient id="radial-gradient-55" cx="-0.097" cy="1.93" r="2.402" gradientTransform="matrix(0.086, -0.976, 0.383, 0.219, 131.39, -179.339)" xlink:href="#radial-gradient-34"/>
    <radialGradient id="radial-gradient-56" cx="-0.054" cy="1.514" r="2.161" gradientTransform="matrix(0.082, -0.976, 0.364, 0.219, 130.856, -184.798)" xlink:href="#radial-gradient-34"/>
    <radialGradient id="radial-gradient-57" cx="0.059" cy="2.487" r="2.512" gradientTransform="matrix(0.063, -0.986, 0.368, 0.169, 128.246, -189.625)" xlink:href="#radial-gradient-34"/>
    <radialGradient id="radial-gradient-58" cx="0.092" cy="2.206" r="2.407" gradientTransform="matrix(0.056, -0.986, 0.328, 0.169, 127.435, -203.836)" xlink:href="#radial-gradient-34"/>
    <radialGradient id="radial-gradient-59" cx="0.06" cy="2.489" r="2.512" gradientTransform="matrix(0.063, -0.986, 0.368, 0.169, 128.044, -189.292)" xlink:href="#radial-gradient-34"/>
    <radialGradient id="radial-gradient-60" cx="0.093" cy="2.209" r="2.408" gradientTransform="matrix(0.056, -0.986, 0.328, 0.169, 127.232, -203.542)" xlink:href="#radial-gradient-34"/>
    <radialGradient id="radial-gradient-61" cx="0.5" cy="0.5" r="4.857" gradientTransform="matrix(-0.073, 0, 0, 1, 0.537, 0)" xlink:href="#radial-gradient-8"/>
  </defs>
  <g id="Person" transform="translate(-27.696)">
    <path id="Path_11416" data-name="Path 11416" d="M560.9,790.19l12.222,82.479-179.792.21,2.321-23.36,4.828-50.712Z" transform="translate(-142.118 -346.403)" fill="url(#radial-gradient)"/>
    <path id="Path_11417" data-name="Path 11417" d="M676.6,418.92c-29.412,5.323-66.646,126.605-66.646,126.605s-5.108,71.44,26.092,60.664c22.178-7.658,68.25-113.357,68.25-113.357S699.023,414.888,676.6,418.92Z" transform="translate(-422.16 -217.26)" fill="url(#radial-gradient-2)"/>
    <path id="Path_11418" data-name="Path 11418" d="M657.142,540.933c7.671-13.45,15.394-26.868,23.046-40.332,3.666-6.445,7.378-12.863,10.939-19.367,1.539-2.811,3.046-5.649,4.625-8.434a373.411,373.411,0,0,1,5.218,45.8s-44.552,96.6-66.757,104.257c-8.656,2.987-14.52-.359-18.473-6.745.509-1.063,1.024-2.127,1.533-3.183C630.528,588.916,643.548,564.775,657.142,540.933Z" transform="translate(-422.816 -236.047)" opacity="0.3" fill="url(#radial-gradient-3)"/>
    <path id="Path_11419" data-name="Path 11419" d="M474.2,187.53l6.445,40.417-19.328,36.32-31.637-1.761Z" transform="translate(-81.123 -136.859)" fill="url(#radial-gradient-4)"/>
    <path id="Path_11420" data-name="Path 11420" d="M476.05,268.791c.065,0,.124-.065.2-.091C476.174,268.726,476.115,268.765,476.05,268.791Z" transform="translate(-106.972 -165.082)" opacity="0.5" fill="url(#radial-gradient-5)"/>
    <path id="Path_11421" data-name="Path 11421" d="M483.55,270.047a1,1,0,0,1,.215-.117A1,1,0,0,0,483.55,270.047Z" transform="translate(-119.384 -165.51)" opacity="0.5" fill="url(#radial-gradient-6)"/>
    <path id="Path_11422" data-name="Path 11422" d="M445.57,340.259c45.779-26.033,31.069-56.483,31.069-56.483l47.253-25s-17.73,76.45.946,78.883c40.058,28.114-53.945,106.6-78.159,97.226S445.57,340.259,445.57,340.259Z" transform="translate(-139.002 -161.633)" fill="url(#radial-gradient-7)"/>
    <path id="Path_11423" data-name="Path 11423" d="M539.411,413.14c-2.994,5.871-7.6,6.98-10.7,12.8-2.9,5.453-5.838,10.9-8.76,16.353-14.54-20.032,4.455-90.161,4.455-90.161,45.779-26.033,31.069-56.483,31.069-56.483l5.134-2.714C570.546,365.47,525.3,359.142,539.411,413.14Z" transform="translate(-217.84 -173.51)" opacity="0.46" fill="url(#radial-gradient-8)"/>
    <path id="Path_11424" data-name="Path 11424" d="M460.3,305.355l42.191-45.785s-9.745,44.128-4.273,75.5c0,0,10.111,28.577-27.351,45.12l8.173-74.252S445.067,342.843,460.3,305.355Z" transform="translate(-120.378 -161.907)" opacity="0.3" fill="url(#radial-gradient-9)"/>
    <path id="Path_11425" data-name="Path 11425" d="M459.55,234.48Z" transform="translate(-79.591 -153.184)" opacity="0.5" fill="url(#radial-gradient-10)"/>
    <path id="Path_11426" data-name="Path 11426" d="M464.156,218.27Z" transform="translate(-87.204 -147.547)" opacity="0.5" fill="url(#radial-gradient-11)"/>
    <path id="Path_11427" data-name="Path 11427" d="M532.088,212.174l-3.535-23.483-79.17-5.147,33.15-42.8,46.659,30.9S541.775,200.269,532.088,212.174Z" transform="translate(-149.083 -120.59)" opacity="0.52" fill="url(#radial-gradient-12)"/>
    <path id="Path_11428" data-name="Path 11428" d="M433.1,215.213c-3.973-4.931-6.132-2.518-6.132-2.518.985-3.262,2.185-5.355,3.607-5.355,4.644,0,8.415,8.128,8.415,18.16s-3.738,18.147-8.382,18.147A6.138,6.138,0,0,0,428,244.3C439.09,240.96,437.8,221.012,433.1,215.213Z" transform="translate(-37.703 -143.747)" opacity="0.52" fill="url(#radial-gradient-13)"/>
    <path id="Path_11429" data-name="Path 11429" d="M458.472,134.4s44.774-1.592,61.773,25.29c8.239,13.046,4.99,26.744-1.109,39.53v.822a38.064,38.064,0,0,1-.509,6.249c-1.181,6.947-6.523,19.008-10.143,19.008l-3.79-1.3c-1.4,5.805-8.389,19.7-8.389,19.7l-5.392,4.508s-17.761,14.321-23.355,17.031c-11.422,7.175-28.349-3.594-28.349-3.594-4.794-13.581-18.767-33.92-18.767-33.92s-.32-19.686-2.172-37.729C411.787,126.942,458.472,134.4,458.472,134.4Z" transform="translate(-117.821 -118.292)" fill="url(#radial-gradient-14)"/>
    <path id="Path_11430" data-name="Path 11430" d="M452.74,254.035c10.991-10.091,15.583-12.544,16.229-27.018.294-7.7,3.327-39.086-.176-45.759-2.257-6.934-25.662-8.61-25.662-8.61l17.045-15.61a40.641,40.641,0,0,1-42.524,8.793c8.369-31.134,18.591-31.311,18.591-31.311s44.774-1.592,61.773,25.29c8.239,13.046,4.99,26.744-1.109,39.53v.822a38.05,38.05,0,0,1-.509,6.249c-1.181,6.947-6.523,19.008-10.143,19.008l-3.79-1.3c-1.4,5.805-8.389,19.7-8.389,19.7s-20.508,17.56-28.747,21.552c-4.37,2.753-9.537,2.87-14.259,1.957a63.274,63.274,0,0,0,21.669-13.287Z" transform="translate(-95.592 -118.422)" opacity="0.5" fill="url(#radial-gradient-15)"/>
    <path id="Path_11431" data-name="Path 11431" d="M536.008,173.919c23.535,5.988,17.769,29.928,15.3,35.277l-7.175,21.3s9.25,5.721,9.25,13.111l1.2,13.046,6.725,1.357c-1.246.457-8.786,1.742-9.589,2.257-8.767,5.616,6.523,14.383,6.523,14.383a45.1,45.1,0,0,1-14.664-5.662c-4.794-13.581-18.767-33.92-18.767-33.92s-.32-19.686-2.172-37.729c-3.914-38.108,25.981-46.248,33.45-40.534C560.11,159.816,536.008,173.919,536.008,173.919Z" transform="translate(-222.199 -125.603)" opacity="0.3" fill="url(#radial-gradient-16)"/>
    <path id="Path_11432" data-name="Path 11432" d="M460.23,243.91" transform="translate(-80.637 -156.462)" fill="#fff"/>
    <path id="Path_11435" data-name="Path 11435" d="M435.338,250.867c-4.566,7.534-1.4-15.655-.731-20.5.111-.828.685-3.1,1.474-3.385C440.641,225.335,438.625,245.433,435.338,250.867Z" transform="translate(-41.329 -150.542)" opacity="0.32" fill="url(#radial-gradient-17)"/>
    <path id="Path_11436" data-name="Path 11436" d="M547.3,229.04c.261,2.9,1.957,5.121,3.712,4.958s3.014-2.648,2.753-5.551-1.957-5.114-3.718-4.951S547.036,226.111,547.3,229.04Z" transform="translate(-230.983 -149.361)" fill="#1d1d1b"/>
    <path id="Path_11437" data-name="Path 11437" d="M548.3,228.144c.15,1.585,1.057,2.792,2.029,2.707s1.65-1.448,1.5-3.033-1.05-2.792-2.022-2.7S548.154,226.559,548.3,228.144Z" transform="translate(-229.688 -149.927)" fill="#fff"/>
    <path id="Path_11438" data-name="Path 11438" d="M547.69,240.087s4.834-4.781,7.912,0C553.867,239.885,553.5,238.033,547.69,240.087Z" transform="translate(-233.059 -154.394)" fill="#ec5347"/>
    <path id="Path_11439" data-name="Path 11439" d="M476.06,210.275c12.3-9.028,24.487,1.866,24.487,1.866s-5.134-10.92-15.225-9.563C478.186,203.53,476.06,210.275,476.06,210.275Z" transform="translate(-131.28 -142.051)" fill="#1d1d1b"/>
    <path id="Path_11440" data-name="Path 11440" d="M563.792,212.039c-3-4.429-9.374-5.218-12.987-4.69a13.235,13.235,0,0,0-8.884,5.871s3.014-10.711,12.89-10.248C562.083,203.3,563.792,212.039,563.792,212.039Z" transform="translate(-237.485 -142.223)" fill="#1d1d1b"/>
    <path id="Path_11441" data-name="Path 11441" d="M491.349,229.2c.274,3.027,2.009,5.342,3.875,5.166s3.144-2.759,2.864-5.786-2.009-5.336-3.868-5.166S491.069,226.175,491.349,229.2Z" transform="translate(-138.807 -149.333)" fill="#1d1d1b"/>
    <path id="Path_11442" data-name="Path 11442" d="M492.355,228.315c.15,1.65,1.1,2.916,2.114,2.824s1.716-1.507,1.565-3.164-1.1-2.909-2.113-2.818S492.179,226.664,492.355,228.315Z" transform="translate(-137.399 -149.941)" fill="#fff"/>
    <path id="Path_11443" data-name="Path 11443" d="M496.8,241.678s-5.042-4.99-8.252,0C490.363,241.456,490.742,239.525,496.8,241.678Z" transform="translate(-135.681 -154.915)" fill="#ec5347"/>
    <path id="Path_11547" data-name="Path 11547" d="M10.052,0C15.6,0,20.1,2.751,20.1,6.145s-4.5,6.145-10.052,6.145S0,9.538,0,6.145,4.5,0,10.052,0Z" transform="translate(302.4 89.828)" opacity="0.18" fill="url(#radial-gradient-18)"/>
    <path id="Path_11548" data-name="Path 11548" d="M10.052,0C15.6,0,20.1,2.751,20.1,6.145s-4.5,6.145-10.052,6.145S0,9.538,0,6.145,4.5,0,10.052,0Z" transform="translate(353.567 89.32)" opacity="0.08" fill="url(#radial-gradient-19)"/>
    <path id="Path_11444" data-name="Path 11444" d="M528.75,256.639l6.947,4.188-1.559-24.357Z" transform="translate(-200.799 -153.876)" opacity="0.5" fill="url(#radial-gradient-20)"/>
    <path id="Path_11445" data-name="Path 11445" d="M526.32,269.931c0-.039,3.823-.28,3.823-.28a19.57,19.57,0,0,1,8.917,5.525,6.242,6.242,0,0,1-6.308,1A20.5,20.5,0,0,0,526.32,269.931Z" transform="translate(-202.577 -165.412)" opacity="0.5" fill="url(#radial-gradient-21)"/>
    <path id="Path_11446" data-name="Path 11446" d="M419.567,173.873c.274-11.272,2.648-17.612,2.648-17.612s15.844-6.973,20.221-10.28l-6.014,6.764c22.335,10.678,53.137-4.168,53.137-4.168s3.385,7.032-11.35,12.348c0,0,25.812,1.631,20.437,22.752a27.025,27.025,0,0,1,5.5,19.68l2.883-.078,4.116-22.544c10.946-13.248,9.843,12.57,9.843,12.57s15-41.526,3.8-45.518c0,0,17.3-26.223-51.375-37.938l8.747,6.419c-22.9-11.18-74.363,1.187-66.894,28.871C416.4,149.38,419.567,173.873,419.567,173.873Z" transform="translate(-119.535 -109.85)" fill="url(#radial-gradient-22)"/>
    <path id="Path_11447" data-name="Path 11447" d="M438.152,135.393c-2.27-2.081-12.563-5.531-14-7.541,15.655-11.885,42.8-7.56,54.141-2.022l-7.678-9.961c57.722,14.944,42.615,34,42.615,34,11.18,3.992-3.8,45.518-3.8,45.518s1.1-25.812-9.843-12.57l-4.116,22.544-2.564-.574a24.226,24.226,0,0,0-5.838-19.041C492.45,164.63,466.638,163,466.638,163c14.736-5.336,11.337-12.335,11.337-12.335s-30.8,14.846-53.137,4.168l6.014-6.764c-1.911,1.448-12.27-1.794-16.308.163C415.223,139.855,438.152,135.393,438.152,135.393Z" transform="translate(-107.983 -111.943)" fill="url(#radial-gradient-23)"/>
    <path id="Path_11448" data-name="Path 11448" d="M530.8,695.485c-133.5,40.906-193.245-11.578-193.245-11.578,45.974-84.284-2.459-170.186-2.459-170.186-5.838-70.051,15.107-104.845,15.107-104.845s50.586-19.863,52.634-21.376c-9.25,22.048,8.532,55.191,21.474,56.144,38.205,2.824,65.465-55.413,65.465-55.413.535-.652,6.66,1.239,6.66,1.239L561.3,418.752S540.677,542.487,528,624.07Z" transform="translate(-99.415 -206.388)" fill="url(#radial-gradient-24)"/>
    <path id="Path_11449" data-name="Path 11449" d="M348.805,543.8c-2.446-29.315.346-52.608,4.416-69.8l7.228,58.094s115.751,9.915,144.733,8.819c14.722-.046,13.183-34.99,43.052-62.445,13.3-12.224,17.762,32.3,17.762,32.3L537.869,652.613l3.366,70.788S505.547,737.243,438.412,735.8,357.67,711.3,357.67,711.3C399.587,618.433,348.805,543.8,348.805,543.8Z" transform="translate(-113.123 -236.464)" opacity="0.2" fill="url(#radial-gradient-25)"/>
    <path id="Path_11450" data-name="Path 11450" d="M492.892,573.537l-79.131-28.264s86.384,5.871,88.283,4.312c15.088-12.616,12.615-43.7,37.951-69.986,12.537-13.007,16.151,32.3,16.151,32.3L528.019,653.745l3.366,70.788S495.7,738.374,428.562,736.926s-80.742-24.494-80.742-24.494C550.223,741.492,492.892,573.537,492.892,573.537Z" transform="translate(-103.071 -238.656)" opacity="0.2" fill="url(#radial-gradient-26)"/>
    <path id="Path_11451" data-name="Path 11451" d="M581.888,437.509,570.394,412.33s-11.089-27.181,11.311-46.15c0,0-12.694,5.929-20.345,14.722,0,0-18.225,22.322-13.366,52.6l10.176-9.308S567.993,434.685,581.888,437.509Z" transform="translate(-259.005 -198.975)" fill="url(#radial-gradient-27)"/>
    <path id="Path_11452" data-name="Path 11452" d="M557.05,444.49l13.131,19.517c-12.524-2.8-21.891-12.772-21.891-12.772C548.4,450.635,555.824,445.436,557.05,444.49Z" transform="translate(-248.03 -226.204)" fill="url(#radial-gradient-28)"/>
    <path id="Path_11453" data-name="Path 11453" d="M426.463,439.612l21.715-20.378c42.2-11.683,38.4-45.518,38.4-45.518,2.759-.293,7.482,2.126,7.482,2.126l12.557,10.1c5.838,13.137-18.539,53.339-45.909,62.19l-7.1-13.483C437.147,443.552,426.463,439.612,426.463,439.612Z" transform="translate(-105.87 -201.587)" fill="url(#radial-gradient-29)"/>
    <path id="Path_11454" data-name="Path 11454" d="M529.214,452.88s5.218,7.978,5.473,8.754c-13.7,7.665-25,6.021-25,6.021Z" transform="translate(-187.356 -229.121)" fill="url(#radial-gradient-30)"/>
    <path id="Path_11455" data-name="Path 11455" d="M543.7,662.227l-2.974-22.054h0l-1.957-14.533h0l-1.089-8.1s-.691-.783-1.911-2.244h0c-1.239-1.474-3.02-3.647-5.218-6.406h0c-1.416-1.794-2.994-3.835-4.69-6.105h0c-1.579-2.1-3.262-4.39-5.016-6.849h0q-2.2-3.086-4.533-6.523h0c-1.585-2.329-3.2-4.775-4.827-7.319h0q-2.172-3.379-4.344-6.973h0c-.75-1.24-1.5-2.5-2.244-3.777l-.137-.228c-.744-1.3-1.487-2.576-2.224-3.881h0q-2.087-3.718-4.1-7.586h0q-2.211-4.266-4.286-8.682h0q-1.957-4.188-3.738-8.48h0c-1.357-3.261-2.609-6.621-3.77-9.974h0c-1.155-3.372-2.179-6.771-3.066-10.169h0a114.527,114.527,0,0,1-2.609-12.87h0a86.2,86.2,0,0,1-.874-15.655h0c.033-.842.085-1.67.143-2.5v-.137c.059-.77.137-1.539.215-2.309a1.207,1.207,0,0,1,.046-.4c.085-.724.176-1.442.287-2.159l.078-.509c.1-.7.228-1.4.359-2.094a2.408,2.408,0,0,1,.1-.515c.137-.7.28-1.4.444-2.094a1.457,1.457,0,0,1,.091-.359,58.14,58.14,0,0,1,2.146-7.025v-.046l6.2-8.871.065-.039h0l.13-.085.1-.072.131-.091.346-.248.117-.085.235-.176.163-.124c.085-.065.17-.13.254-.209l.189-.15c.7-.581,17.612-6.047,18.264-6.882L506.3,448.7l-11.67,8.519h0l-6.777,3.96-1.3.763L480.673,461l-3.209-5.727-2.714-4.853h0l-4.233-6.438c-1.448,1.429-3.725,2.609-5.382,3.914-.183.137,1.957,2.772,1.761,2.909l.248.307,4.905,6.086h0l4.279,5.31.476,2.2h0l1.774,8.219h.1a194.033,194.033,0,0,0-14.794,42.093h0c-.059.241-.1.489-.163.737-.15.652-.307,1.363-.45,2.055l-.274,1.3c-.15.73-.3,1.474-.444,2.218-.078.385-.156.776-.228,1.168-.189.972-.365,1.957-.535,2.942a2.781,2.781,0,0,1-.091.509c-.2,1.187-.391,2.394-.574,3.607-.039.235-.072.483-.1.724-.143.965-.281,1.957-.411,2.922-.046.359-.085.724-.131,1.089-.111.881-.215,1.768-.313,2.668-.046.385-.085.776-.124,1.168-.091.907-.183,1.827-.261,2.746,0,.359-.065.717-.091,1.083-.085,1.057-.163,2.12-.228,3.19l-.039.541h0a151.7,151.7,0,0,0,3.914,45.381h0v.039q.652,2.55,1.383,5.121l.235.809a135.821,135.821,0,0,0,5.14,14.351h0c.039.1.085.189.124.287.541,1.266,1.109,2.538,1.7,3.8.124.274.248.541.378.809q.822,1.742,1.7,3.47l.287.581h0q1.918,3.757,4.142,7.482h0l.222.352c.587.985,1.2,1.957,1.82,2.948.157.254.32.5.476.75q1,1.552,2.055,3.1l.2.307h0q2.179,3.183,4.566,6.334h0c.385.5.8,1,1.194,1.5,2.355,2.988,4.86,5.949,7.567,8.878l1.814.391h0l7.123,1.553h0l6.628,1.409h0l4.442.972,9.23,2h0l7.13,1.592h0Z" transform="translate(-163.381 -226.026)" fill="url(#radial-gradient-31)"/>
    <path id="Path_11456" data-name="Path 11456" d="M495.833,754.722a3.5,3.5,0,1,0-2.211,4.416,3.5,3.5,0,0,0,2.211-4.416Z" transform="translate(-135.195 -333.237)" fill="#829cf2"/>
    <path id="Path_11457" data-name="Path 11457" d="M503.358,732.105a3.5,3.5,0,1,0-2.211,4.423,3.5,3.5,0,0,0,2.211-4.423Z" transform="translate(-147.632 -325.375)" fill="#829cf2"/>
    <path id="Path_11458" data-name="Path 11458" d="M510.895,709.536a3.49,3.49,0,1,0-.185,2.669A3.5,3.5,0,0,0,510.895,709.536Z" transform="translate(-160.087 -317.529)" fill="#829cf2"/>
    <path id="Path_11459" data-name="Path 11459" d="M518.425,686.966a3.49,3.49,0,1,0-.185,2.669A3.5,3.5,0,0,0,518.425,686.966Z" transform="translate(-172.529 -309.681)" fill="#829cf2"/>
    <path id="Path_11460" data-name="Path 11460" d="M525.963,664.4a3.5,3.5,0,1,0-2.211,4.416A3.5,3.5,0,0,0,525.963,664.4Z" transform="translate(-184.979 -301.833)" fill="#829cf2"/>
    <path id="Path_11461" data-name="Path 11461" d="M533.543,641.832a3.5,3.5,0,1,0-2.211,4.416A3.5,3.5,0,0,0,533.543,641.832Z" transform="translate(-197.503 -293.986)" fill="#829cf2"/>
    <path id="Path_11462" data-name="Path 11462" d="M541.022,619.266a3.483,3.483,0,1,0-.182,2.67A3.5,3.5,0,0,0,541.022,619.266Z" transform="translate(-209.869 -286.142)" fill="#829cf2"/>
    <path id="Path_11463" data-name="Path 11463" d="M548.535,596.726a3.49,3.49,0,1,0-.185,2.669A3.5,3.5,0,0,0,548.535,596.726Z" transform="translate(-222.28 -278.305)" fill="#829cf2"/>
    <path id="Path_11464" data-name="Path 11464" d="M556.088,574.125a3.5,3.5,0,1,0-2.211,4.423A3.5,3.5,0,0,0,556.088,574.125Z" transform="translate(-234.758 -270.446)" fill="#829cf2"/>
    <path id="Path_11465" data-name="Path 11465" d="M560.395,553.705a3.483,3.483,0,0,1,1.957-4.305h-.039a3.5,3.5,0,0,0,2.211,6.627l.261-.111A3.5,3.5,0,0,1,560.395,553.705Z" transform="translate(-250.311 -262.681)" fill="#829cf2"/>
    <path id="Path_11466" data-name="Path 11466" d="M516.538,749.035a3.5,3.5,0,1,0-2.211,4.423A3.5,3.5,0,0,0,516.538,749.035Z" transform="translate(-169.409 -331.262)" fill="#829cf2"/>
    <path id="Path_11467" data-name="Path 11467" d="M524.063,726.472a3.5,3.5,0,1,0-2.211,4.416A3.5,3.5,0,0,0,524.063,726.472Z" transform="translate(-181.84 -323.415)" fill="#829cf2"/>
    <path id="Path_11468" data-name="Path 11468" d="M531.592,703.906a3.484,3.484,0,1,0-.183,2.67A3.5,3.5,0,0,0,531.592,703.906Z" transform="translate(-194.287 -315.571)" fill="#829cf2"/>
    <path id="Path_11469" data-name="Path 11469" d="M539.126,681.336a3.5,3.5,0,1,0-2.2,4.423A3.5,3.5,0,0,0,539.126,681.336Z" transform="translate(-206.733 -307.724)" fill="#829cf2"/>
    <path id="Path_11470" data-name="Path 11470" d="M546.658,658.725a3.5,3.5,0,1,0-2.211,4.423,3.5,3.5,0,0,0,2.211-4.423Z" transform="translate(-219.177 -299.861)" fill="#829cf2"/>
    <path id="Path_11471" data-name="Path 11471" d="M554.2,636.2a3.5,3.5,0,1,0-2.211,4.416A3.5,3.5,0,0,0,554.2,636.2Z" transform="translate(-231.626 -292.028)" fill="#829cf2"/>
    <path id="Path_11472" data-name="Path 11472" d="M561.728,613.634a3.5,3.5,0,1,0-2.2,4.416A3.5,3.5,0,0,0,561.728,613.634Z" transform="translate(-244.077 -284.182)" fill="#829cf2"/>
    <path id="Path_11473" data-name="Path 11473" d="M569.256,591.066a3.5,3.5,0,1,0-2.2,4.423A3.5,3.5,0,0,0,569.256,591.066Z" transform="translate(-256.517 -276.337)" fill="#829cf2"/>
    <path id="Path_11474" data-name="Path 11474" d="M576.788,568.5a3.5,3.5,0,1,0-2.211,4.423A3.5,3.5,0,0,0,576.788,568.5Z" transform="translate(-268.961 -268.489)" fill="#829cf2"/>
    <path id="Path_11475" data-name="Path 11475" d="M527.4,763.812a3.222,3.222,0,0,0-.926-.2Z" transform="translate(-191.011 -337.161)" fill="#829cf2"/>
    <path id="Path_11476" data-name="Path 11476" d="M537.228,743.405a3.5,3.5,0,1,0-2.211,4.423A3.5,3.5,0,0,0,537.228,743.405Z" transform="translate(-203.596 -329.304)" fill="#829cf2"/>
    <path id="Path_11477" data-name="Path 11477" d="M544.758,720.835a3.5,3.5,0,1,0-2.211,4.423,3.5,3.5,0,0,0,2.211-4.423Z" transform="translate(-216.037 -321.457)" fill="#829cf2"/>
    <path id="Path_11478" data-name="Path 11478" d="M552.3,698.274a3.5,3.5,0,1,0-2.2,4.416A3.5,3.5,0,0,0,552.3,698.274Z" transform="translate(-228.495 -313.611)" fill="#829cf2"/>
    <path id="Path_11479" data-name="Path 11479" d="M559.825,675.726a3.49,3.49,0,1,0-.185,2.669A3.5,3.5,0,0,0,559.825,675.726Z" transform="translate(-240.935 -305.773)" fill="#829cf2"/>
    <path id="Path_11480" data-name="Path 11480" d="M567.358,653.135a3.5,3.5,0,1,0-2.211,4.423A3.5,3.5,0,0,0,567.358,653.135Z" transform="translate(-253.379 -297.918)" fill="#829cf2"/>
    <path id="Path_11481" data-name="Path 11481" d="M574.888,630.565a3.5,3.5,0,1,0-2.211,4.423A3.5,3.5,0,0,0,574.888,630.565Z" transform="translate(-265.821 -290.07)" fill="#829cf2"/>
    <path id="Path_11482" data-name="Path 11482" d="M582.428,608a3.5,3.5,0,1,0-2.2,4.416A3.5,3.5,0,0,0,582.428,608Z" transform="translate(-278.28 -282.224)" fill="#829cf2"/>
    <path id="Path_11483" data-name="Path 11483" d="M586.023,585.545a3.47,3.47,0,0,0-2.185-2.185c-.085.652-.17,1.363-.241,2.055-.046.385-.085.776-.124,1.168-.091.907-.183,1.826-.261,2.746,0,.261-.046.528-.065.789a4.292,4.292,0,0,0,.652-.15,3.5,3.5,0,0,0,2.224-4.423Z" transform="translate(-286.787 -274.488)" fill="#829cf2"/>
    <path id="Path_11484" data-name="Path 11484" d="M563.278,715.208a3.49,3.49,0,0,0-4.416-2.2l-.209.091.065.137c.1.2.189.391.287.58h0c.92,1.8,1.911,3.588,2.935,5.382A3.49,3.49,0,0,0,563.278,715.208Z" transform="translate(-248.067 -319.502)" fill="#829cf2"/>
    <path id="Path_11485" data-name="Path 11485" d="M569.705,697.052a3.5,3.5,0,1,0-3.588-5.753c.7,1.9,1.448,3.8,2.25,5.7h0l.1.215A3.557,3.557,0,0,0,569.705,697.052Z" transform="translate(-261.611 -311.646)" fill="#829cf2"/>
    <path id="Path_11486" data-name="Path 11486" d="M576.513,674.442a3.5,3.5,0,1,0-2.211-6.6,3.6,3.6,0,0,0-1.063.594,1.676,1.676,0,0,0,.091.378h0v.039q.652,2.55,1.383,5.121c.059.209.124.417.183.652a3.4,3.4,0,0,0,1.618-.182Z" transform="translate(-273.337 -303.758)" fill="#829cf2"/>
    <path id="Path_11487" data-name="Path 11487" d="M584.681,647.517a3.49,3.49,0,0,0-3.437-2.368c.293,2.263.652,4.566,1.044,6.83l.183-.039A3.5,3.5,0,0,0,584.681,647.517Z" transform="translate(-284.206 -295.972)" fill="#829cf2"/>
    <path id="Path_11488" data-name="Path 11488" d="M463.067,745.8a3.43,3.43,0,0,0,1.52,1.872l-.509-3.777-.215-1.6A3.483,3.483,0,0,0,463.067,745.8Z" transform="translate(-86.728 -329.748)" fill="#829cf2"/>
    <path id="Path_11489" data-name="Path 11489" d="M468.467,718.213a3.5,3.5,0,1,0,2.2,6.627l.072-.033-.522-3.914h0l-.385-2.877a3.572,3.572,0,0,0-1.363.2Z" transform="translate(-94.835 -321.307)" fill="#829cf2"/>
    <path id="Path_11490" data-name="Path 11490" d="M472.516,700.639a3.49,3.49,0,0,0,4.423,2.2,3.453,3.453,0,0,0,.763-.372c-1.142-1.376-2.609-3.19-4.344-5.382A3.477,3.477,0,0,0,472.516,700.639Z" transform="translate(-106.008 -314.032)" fill="#829cf2"/>
    <path id="Path_11491" data-name="Path 11491" d="M474.767,759.935a3.49,3.49,0,1,0-.187,2.67A3.5,3.5,0,0,0,474.767,759.935Z" transform="translate(-100.392 -335.052)" fill="#829cf2"/>
    <path id="Path_11492" data-name="Path 11492" d="M482.214,737.37a3.49,3.49,0,0,0-6.8.985c.326.842.652,1.677.952,2.524a3.49,3.49,0,0,0,5.871-3.509Z" transform="translate(-112.75 -327.209)" fill="#829cf2"/>
    <path id="Path_11493" data-name="Path 11493" d="M489.835,714.8a3.49,3.49,0,1,0-.185,2.669A3.5,3.5,0,0,0,489.835,714.8Z" transform="translate(-125.29 -319.358)" fill="#829cf2"/>
    <path id="Path_11494" data-name="Path 11494" d="M497.367,692.234a3.5,3.5,0,1,0-2.2,4.416A3.5,3.5,0,0,0,497.367,692.234Z" transform="translate(-137.734 -311.511)" fill="#829cf2"/>
    <path id="Path_11495" data-name="Path 11495" d="M500.475,667.457a3.5,3.5,0,1,0,4.423,2.211l-.046-.1-.965-1.4A3.49,3.49,0,0,0,500.475,667.457Z" transform="translate(-150.177 -303.668)" fill="#829cf2"/>
    <path id="Path_11496" data-name="Path 11496" d="M509.129,649.757a3.49,3.49,0,0,0,4.416,2.211l.222-.1q-1.82-2.851-3.64-5.871A3.5,3.5,0,0,0,509.129,649.757Z" transform="translate(-165.947 -296.268)" fill="#829cf2"/>
    <path id="Path_11497" data-name="Path 11497" d="M563.175,551.375a3.5,3.5,0,0,0-4.423-2.211l-.254.117a3.483,3.483,0,0,0,2.433,6.523h.039a3.49,3.49,0,0,0,2.2-4.429Z" transform="translate(-246.463 -262.536)" fill="#829cf2"/>
    <path id="Path_11498" data-name="Path 11498" d="M570.7,528.8a3.5,3.5,0,1,0-2.211,4.416A3.5,3.5,0,0,0,570.7,528.8Z" transform="translate(-258.903 -254.685)" fill="#829cf2"/>
    <path id="Path_11499" data-name="Path 11499" d="M579.887,546.075a3.477,3.477,0,0,0-1.3-1.735q-.7,2.7-1.363,5.544h0l-.157.724a3.829,3.829,0,0,0,.652-.143A3.5,3.5,0,0,0,579.887,546.075Z" transform="translate(-276.678 -260.922)" fill="#829cf2"/>
    <path id="Path_11500" data-name="Path 11500" d="M544.817,474.515a3.5,3.5,0,1,0,6.627-2.211,3.45,3.45,0,0,0-.835-1.3l-.248.143-4.083-.652A3.5,3.5,0,0,0,544.817,474.515Z" transform="translate(-227.146 -235.244)" fill="#829cf2"/>
    <path id="Path_11501" data-name="Path 11501" d="M557.976,509.3a3.483,3.483,0,0,0,.541,6.745c.033-.7.072-1.4.124-2.107V513.8c.059-.77.137-1.539.215-2.309a1.2,1.2,0,0,1,.046-.4c.078-.652.163-1.3.261-1.957A3.6,3.6,0,0,0,557.976,509.3Z" transform="translate(-241.774 -248.682)" fill="#829cf2"/>
    <path id="Path_11502" data-name="Path 11502" d="M558.8,494.135a3.49,3.49,0,0,0,2.211-4.416,3.65,3.65,0,0,0-.515-.959c-.568,1.115-1.481,2.988-2.609,5.538A3.5,3.5,0,0,0,558.8,494.135Z" transform="translate(-245.296 -241.596)" fill="#829cf2"/>
    <path id="Path_11503" data-name="Path 11503" d="M565.53,464.42l2.074,2.57a4.051,4.051,0,0,0-.111-.47A3.464,3.464,0,0,0,565.53,464.42Z" transform="translate(-256.698 -233.133)" fill="#829cf2"/>
    <path id="Path_11504" data-name="Path 11504" d="M333.49,435.41s16.666,14.859,17.932,49.575L363.77,596.757l-2.185-.365-36.125,32.837L297.366,567.56S260.883,497.072,333.49,435.41Z" transform="translate(128.039 -223.047)" fill="url(#radial-gradient-32)"/>
    <path id="Path_11505" data-name="Path 11505" d="M350.052,480.37s-15.844,30.593-3.438,72.184A625.9,625.9,0,0,0,375.8,629.9l-9.85,14.957-28.095-61.669S310.62,533.617,350.052,480.37Z" transform="translate(89.599 -238.679)" opacity="0.3" fill="url(#radial-gradient-33)"/>
    <path id="Path_11506" data-name="Path 11506" d="M239.58,603.975c-20.985-13.17-34.572-26.444-42.98-36.855a223.057,223.057,0,0,1-14.794,18.427c-.652.75-1.344,1.487-2.016,2.231,16.993,20.489,52.354,119.371,109.254,87.1C289.044,674.88,303.258,643.948,239.58,603.975Z" transform="translate(-237.894 460.82) rotate(-74)" fill="url(#radial-gradient-34)"/>
    <path id="Path_11510" data-name="Path 11510" d="M34.617,4.763a7.53,7.53,0,0,0-2.15-.3,21.228,21.228,0,0,0-3.844.382c-1.2.22-2.21.478-2.688.613l-.258.07h-.065a1.007,1.007,0,0,1-.419.038A37,37,0,0,1,9.483,0L9.424.043,9.139.231a3.957,3.957,0,0,0-1.2,1.349,4.838,4.838,0,0,0-.3,3.468,8.6,8.6,0,0,0,2.392,3.763,24.583,24.583,0,0,0,6.441,4.344c.129.07,5.623,2.984,5.984,3.914a11.232,11.232,0,0,0-5.511-1.736,1.033,1.033,0,0,1-.495.118A42.8,42.8,0,0,0,5,17.2l-.72.2c1.107.183,2,2.742,1.258,2.188a3.811,3.811,0,0,0-2.376-.71,6.314,6.314,0,0,0-1.495.226,6.434,6.434,0,0,0-.688.226c.081.473.188,1.188.263,2.1.048.537.086,1.134.107,1.8A28.438,28.438,0,0,1,0,32.842c.167.183.392.419.683.715.629.656,1.538,1.564,2.624,2.581.473.452.995.925,1.532,1.4a.866.866,0,0,1,0-.2c.624.4,1.2.72.925,1.075,1.516,1.22,9.86,6.043,9.86,6.043a6.508,6.508,0,0,0,.849.183l31.305-6.1s20.6-19.671-3.833-28.493C39.918,8.6,36.643,5.43,34.617,4.763ZM13.5,25.332l.28.124Z" transform="translate(330.968 423.866) rotate(-18)" fill="url(#radial-gradient-35)"/>
    <path id="Path_11512" data-name="Path 11512" d="M13.86,5.984C5.591-5.306.113,2.823,0,2.941,2.688,5.694,9.252,9.032,12.655,16.683l12.607,5.623c-.538-3.086-.22-5.548-1.269-7.564Z" transform="translate(309.537 440.755) rotate(-18)" fill="#fc8e8e"/>
    <path id="Path_11513" data-name="Path 11513" d="M13.86,5.984C5.591-5.306.113,2.823,0,2.941,6.908-.731,11.623,5.452,15.026,13.1l10.215,9.2c-.538-3.086-.22-5.548-1.269-7.564Z" transform="translate(309.536 440.755) rotate(-18)" opacity="0.3" fill="url(#radial-gradient-36)"/>
    <path id="Path_11514" data-name="Path 11514" d="M9.962,10.6C9.161-3.346.156.466,0,.5.769,4.267,4.435,10.648,3.129,18.922l8.279,4.4a27.083,27.083,0,0,0,2-7.994Z" transform="translate(323.174 436.433) rotate(-18)" fill="url(#radial-gradient-37)"/>
    <path id="Path_11515" data-name="Path 11515" d="M9.962,10.6C9.161-3.346.156.466,0,.5,7.838,1.649,8.349,7.81,7.037,16.094l4.371,7.236a27.085,27.085,0,0,0,2-7.994Z" transform="translate(323.174 436.433) rotate(-18)" opacity="0.3" fill="url(#radial-gradient-38)"/>
    <path id="Path_11516" data-name="Path 11516" d="M9,12.638C12.44-.9,2.71.021,2.554.01,2.15,3.848,3.736,11.02,0,18.514L6.57,25.2a27.068,27.068,0,0,0,4.3-7.021Z" transform="translate(332.947 436.587) rotate(-18)" fill="url(#radial-gradient-39)"/>
    <path id="Path_11517" data-name="Path 11517" d="M6.451,12.638C9.887-.9.156.021,0,.01c8.6,2.4,5.2,10.145,1.462,17.639l2.554,7.527a27.069,27.069,0,0,0,4.3-7.021Z" transform="translate(335.376 435.798) rotate(-18)" opacity="0.3" fill="url(#radial-gradient-40)"/>
    <path id="Path_11518" data-name="Path 11518" d="M16.967,16.021s-4.785-1.978-4.742-2.032h0l.038-.032a20.255,20.255,0,0,0-2.876.984C14.15,11.655,21.322,1.865,8.978,0,8.758.317,6.9,6.4,0,14.827c0,0,4.914,7.317,12.365,8.6l14.472-2.688Z" transform="translate(340.59 443.164) rotate(-18)" fill="#fd8f8f"/>
    <path id="Path_11519" data-name="Path 11519" d="M7.763,19.805c1.285.726,2.591,1.409,3.9,2.086l10.6-1.957L12.4,15.193s-4.785-1.978-4.742-2.032h0l.038-.032a20.288,20.288,0,0,0-2.876.984C9.091,11.166,15.279,3.011,7.645,0c1.425,3.586.226,8.327-3.6,9.967A23.623,23.623,0,0,1,0,15.521C2.715,16.7,5.161,18.354,7.763,19.805Z" transform="translate(345.187 442.541) rotate(-18)" fill="#fd8f8f"/>
    <path id="Path_11507" data-name="Path 11507" d="M246.2,613.339a198.6,198.6,0,0,1-26.007-19.289c-2.948,10.437-11.285,19.041-21.363,23.1,19.569,34.781,51.31,92.933,96.834,67.089C295.664,684.244,309.878,653.312,246.2,613.339Z" transform="translate(-248.72 464.603) rotate(-74)" fill="url(#radial-gradient-41)"/>
    <path id="Path_11508" data-name="Path 11508" d="M214.99,587.86c-1.826,10.437-9.132,19.478-18.46,24.487,2.55,4.508,5.323,9.491,8.31,14.683,20.221-5.219,23.587-27.671,23.587-27.671a176.49,176.49,0,0,1-13.437-11.5Z" transform="translate(-246.43 464.427) rotate(-74)" fill="url(#radial-gradient-42)"/>
    <path id="Path_11509" data-name="Path 11509" d="M262.64,674.982c-20.169-16.862-37.729-40.058-53.489-61.062a101.928,101.928,0,0,1-10.091,8.213c19.693,36.4,52.53,92.072,95.014,67.963a31.964,31.964,0,0,0,1.3-12.27C290.1,687.206,269.2,680.461,262.64,674.982Z" transform="translate(-255.383 462.775) rotate(-74)" opacity="0.3" fill="url(#radial-gradient-43)"/>
    <path id="Path_11520" data-name="Path 11520" d="M763.368,574.292c-20.978-13.17-34.572-26.451-42.98-36.862A225.577,225.577,0,0,1,705.6,555.864c-.652.75-1.344,1.481-2.016,2.224,16.96,20.5,52.354,119.371,109.254,87.109C812.839,645.2,827.053,614.258,763.368,574.292Z" transform="translate(-593.34 -258.519)" fill="url(#radial-gradient-44)"/>
    <path id="Path_11521" data-name="Path 11521" d="M750.948,583.659a198.464,198.464,0,0,1-26-19.289c-2.948,10.437-11.285,19.034-21.363,23.1,19.569,34.774,51.3,92.927,96.834,67.089C800.419,654.564,814.633,623.625,750.948,583.659Z" transform="translate(-580.92 -267.886)" fill="url(#radial-gradient-45)"/>
    <path id="Path_11522" data-name="Path 11522" d="M825.97,558.17c-1.827,10.469-9.132,19.484-18.46,24.487,2.55,4.508,5.316,9.491,8.31,14.683,20.221-5.218,23.587-27.664,23.587-27.664A173.769,173.769,0,0,1,825.97,558.17Z" transform="translate(-686.346 -265.73)" fill="url(#radial-gradient-46)"/>
    <path id="Path_11523" data-name="Path 11523" d="M767.04,646.144c-20.169-16.856-35.087-38.486-50.841-59.464-.9,1.076-1.826,2.113-2.785,3.072a49.537,49.537,0,0,1-7.214,5.91c19.7,36.4,49.953,88.889,92.438,64.774a72.82,72.82,0,0,0,1.155-11.448C794.5,658.368,773.6,651.623,767.04,646.144Z" transform="translate(-580.646 -275.643)" opacity="0.3" fill="url(#radial-gradient-47)"/>
    <path id="Path_11524" data-name="Path 11524" d="M437.291,448.46l-9.85-20.189s35.753-5.838,41.226-50.351l12.394,9.732s2.257,3.438.385,9.289a86.678,86.678,0,0,1-44.154,51.519Z" transform="translate(-81.207 -203.057)" opacity="0.2" fill="url(#radial-gradient-48)"/>
    <path id="Path_11525" data-name="Path 11525" d="M532.338,459.59,526.226,447v5.029L509.69,465.075A36.906,36.906,0,0,0,532.338,459.59Z" transform="translate(-185.007 -227.076)" opacity="0.3" fill="url(#radial-gradient-49)"/>
    <path id="Path_11526" data-name="Path 11526" d="M572,461.332l-11.676-17.149,1-3.183-8.852,7.939S561.423,459.33,572,461.332Z" transform="translate(-252.585 -224.99)" opacity="0.3" fill="url(#radial-gradient-50)"/>
    <path id="Path_11527" data-name="Path 11527" d="M898.073,521.049c29.654,10.737,4.651,34.572,4.651,34.572l-37.977,7.4c-.333-.052-.652-.13-1.031-.222,0,0-10.13-5.871-11.963-7.332.333-.45-.365-.828-1.122-1.3a.819.819,0,0,0,0,.254c-.652-.587-1.3-1.161-1.866-1.7-1.3-1.239-9.9-18.493-10-19.067.235-.085,7.7-1.513,8.017-1.6a7.351,7.351,0,0,1,1.813-.267c.979,0,11.65-4.272,16.119-4.168a1.26,1.26,0,0,0,.607-.144,13.634,13.634,0,0,1,6.686,2.114c-.437-1.135-7.11-4.67-7.267-4.749a29.78,29.78,0,0,1-7.873-5.277,10.439,10.439,0,0,1-2.909-4.566,5.8,5.8,0,0,1,.372-4.2,4.682,4.682,0,0,1,1.455-1.637c.124-.091.235-.163.339-.228l.078-.052a44.922,44.922,0,0,0,19.041,6.771,1.222,1.222,0,0,0,.509-.046h.078l.313-.091c.607-.163,1.826-.476,3.261-.744a25.724,25.724,0,0,1,4.657-.457,8.958,8.958,0,0,1,2.609.352C889.228,515.439,893.2,519.281,898.073,521.049Zm-36.588,18.695-.339-.156Z" transform="translate(-779.903 -248.589)" fill="url(#radial-gradient-51)"/>
    <path id="Path_11528" data-name="Path 11528" d="M895.811,550.278c-7.3,14.351-17.671,14.162-33.457,14.162-7.547,0-14.735-.47-20.456-4.233-.222,1.057-.144.391-.509,1.481.189.209.457.483.783.822.731.757,1.774,1.8,3.027,2.974.548.522,1.142,1.063,1.768,1.618a.715.715,0,0,1,0-.235c.718.463,1.383.828,1.063,1.252,1.742,1.4,11.357,6.96,11.357,6.96q.509.137.978.215l36.066-7.032s9.439-9.015,9.348-18.225C905.778,550.037,899.6,542.816,895.811,550.278Z" transform="translate(-774.816 -261.811)" opacity="0.3" fill="url(#radial-gradient-52)"/>
    <path id="Path_11529" data-name="Path 11529" d="M962.195,532.961c-13.209-10.633-17.1.574-17.195.75,4.025,2.381,12.746,4.26,19.126,12.165l16.556,2.661c-1.585-3.451-2-6.432-3.849-8.48Z" transform="translate(-917.304 -255.374)" fill="url(#radial-gradient-53)"/>
    <path id="Path_11530" data-name="Path 11530" d="M962.195,532.961c-13.209-10.633-17.1.574-17.195.75,6.954-6.458,14.409-.652,20.789,7.227l14.892,7.6c-1.585-3.451-2-6.432-3.849-8.48Z" transform="translate(-917.304 -255.374)" opacity="0.3" fill="url(#radial-gradient-54)"/>
    <path id="Path_11531" data-name="Path 11531" d="M953.693,550.975c-15.088-7.743-16.634,4.018-16.693,4.207,4.429,1.526,13.34,1.6,21.187,8.056l16.758-.737c-2.25-3.059-3.262-5.871-5.486-7.521Z" transform="translate(-906.349 -262.312)" fill="url(#radial-gradient-55)"/>
    <path id="Path_11532" data-name="Path 11532" d="M953.693,550.975c-15.088-7.743-16.634,4.018-16.693,4.207,5.505-7.73,13.972-3.575,21.82,2.877l16.125,4.442c-2.25-3.059-3.262-5.871-5.486-7.521Z" transform="translate(-906.349 -262.312)" opacity="0.3" fill="url(#radial-gradient-56)"/>
    <path id="Path_11533" data-name="Path 11533" d="M943.441,563.507c-15.433-7.012-16.418,4.807-16.471,5,4.5,1.3,13.4.952,21.526,7.025L965.176,574c-2.387-2.955-3.529-5.74-5.871-7.254Z" transform="translate(-890.038 -266.814)" fill="url(#radial-gradient-57)"/>
    <path id="Path_11534" data-name="Path 11534" d="M943.381,563.507c-15.433-7.012-16.418,4.807-16.471,5,5.134-7.991,13.79-4.246,21.937,1.826L965.155,574c-2.387-2.955-3.529-5.74-5.871-7.254Z" transform="translate(-889.978 -266.814)" opacity="0.3" fill="url(#radial-gradient-58)"/>
    <path id="Path_11535" data-name="Path 11535" d="M928.791,574.538c-15.44-7.006-16.418,4.814-16.471,5.01,4.494,1.3,13.4.952,21.526,7.025l16.679-1.539c-2.387-2.948-3.535-5.734-5.87-7.247Z" transform="translate(-865.831 -270.65)" fill="url(#radial-gradient-59)"/>
    <path id="Path_11536" data-name="Path 11536" d="M928.731,574.538c-15.44-7.006-16.418,4.814-16.471,5.01,5.127-7.991,13.79-4.246,21.937,1.826l16.307,3.659c-2.387-2.949-3.535-5.734-5.871-7.247Z" transform="translate(-865.772 -270.65)" opacity="0.3" fill="url(#radial-gradient-60)"/>
    <path id="Path_11537" data-name="Path 11537" d="M507.94,287.691l23.1-.241s-1.807,10.939-14.031,10.646a12.06,12.06,0,0,1-3.568-.613,16.653,16.653,0,0,0-1.174-6.875C511.841,289.557,508.592,288.611,507.94,287.691Z" transform="translate(-182.566 -171.601)" fill="#1d1d1b"/>
    <path id="Path_11538" data-name="Path 11538" d="M527.184,296.907c-2.061,2.407-5.427,4.566-10.946,4.429a12.057,12.057,0,0,1-3.568-.613C512.69,300.2,516.532,295.811,527.184,296.907Z" transform="translate(-181.797 -174.828)" fill="#d60b52"/>
    <path id="Path_11539" data-name="Path 11539" d="M510.207,288.161l-.287-.528,17.508-.183s-.5,2.146-4.07,2.355c-2.948.176-6.373.489-8.61.535C512.255,290.418,511.394,290.353,510.207,288.161Z" transform="translate(-180.247 -171.601)" fill="#fff"/>
    <path id="Path_11540" data-name="Path 11540" d="M513.958,285.855c5.218.979,9.276-1.872,14.859-.078l2.792.887-23.959.254S508.733,284.87,513.958,285.855Z" transform="translate(-182.948 -170.808)" opacity="0.5" fill="url(#radial-gradient-61)"/>
  </g>
</svg>
